STARTFONT 2.1
FONT -Windows-¸¼Àº °íµñ-medium-r-normal--21-120-96-96-p-350-ksc5601.1987-0
SIZE 21 96 96
FONTBOUNDINGBOX 35 21 0 -4
STARTPROPERTIES 17
FOUNDRY "Windows"
FAMILY_NAME "¸¼Àº °íµñ"
WEIGHT_NAME "medium"
SLANT "r"
SETWIDTH_NAME "normal"
ADD_STYLE_NAME ""
PIXEL_SIZE 21
POINT_SIZE 120
RESOLUTION_X 96
RESOLUTION_Y 96
SPACING "p"
AVERAGE_WIDTH 350
CHARSET_REGISTRY "ksc5601.1987"
CHARSET_ENCODING "0"
DEFAULT_CHAR 8481
FONT_ASCENT 17
FONT_DESCENT 4
ENDPROPERTIES
CHARS 2401
STARTCHAR char0x2421
ENCODING 9249
SWIDTH 1333 0
DWIDTH 16 0
BBX 9 7 3 2
BITMAP
FF80
0080
0080
0080
0080
0080
0080
ENDCHAR
STARTCHAR char0x2422
ENCODING 9250
SWIDTH 1333 0
DWIDTH 16 0
BBX 11 7 2 2
BITMAP
FBE0
0820
0820
0820
0820
0820
0820
ENDCHAR
STARTCHAR char0x2423
ENCODING 9251
SWIDTH 1333 0
DWIDTH 16 0
BBX 13 7 2 2
BITMAP
F840
0840
0840
0840
08A0
09B0
0A18
ENDCHAR
STARTCHAR char0x2424
ENCODING 9252
SWIDTH 1333 0
DWIDTH 16 0
BBX 10 7 3 2
BITMAP
8000
8000
8000
8000
8000
8000
FFC0
ENDCHAR
STARTCHAR char0x2425
ENCODING 9253
SWIDTH 1333 0
DWIDTH 16 0
BBX 12 7 2 2
BITMAP
87E0
8080
8080
8080
8140
8220
FC10
ENDCHAR
STARTCHAR char0x2426
ENCODING 9254
SWIDTH 1333 0
DWIDTH 16 0
BBX 13 8 2 2
BITMAP
0080
8080
87F8
8000
81E0
8210
8210
F9E0
ENDCHAR
STARTCHAR char0x2427
ENCODING 9255
SWIDTH 1333 0
DWIDTH 16 0
BBX 10 7 3 2
BITMAP
FFC0
8000
8000
8000
8000
8000
FFC0
ENDCHAR
STARTCHAR char0x2428
ENCODING 9256
SWIDTH 1333 0
DWIDTH 16 0
BBX 12 7 2 2
BITMAP
FBF0
8200
8200
8200
8200
8200
FFF0
ENDCHAR
STARTCHAR char0x2429
ENCODING 9257
SWIDTH 1333 0
DWIDTH 16 0
BBX 9 7 3 2
BITMAP
FF80
0080
0080
FF80
8000
8000
FF80
ENDCHAR
STARTCHAR char0x242A
ENCODING 9258
SWIDTH 1333 0
DWIDTH 16 0
BBX 11 7 2 2
BITMAP
FBE0
0820
0820
F820
8020
8020
FC20
ENDCHAR
STARTCHAR char0x242B
ENCODING 9259
SWIDTH 1333 0
DWIDTH 16 0
BBX 11 7 2 2
BITMAP
FBE0
0A20
0A20
FA20
8220
8220
FFE0
ENDCHAR
STARTCHAR char0x242C
ENCODING 9260
SWIDTH 1333 0
DWIDTH 16 0
BBX 11 7 2 2
BITMAP
FA20
0A20
0A20
FBE0
8220
8220
FFE0
ENDCHAR
STARTCHAR char0x242D
ENCODING 9261
SWIDTH 1333 0
DWIDTH 16 0
BBX 13 7 2 2
BITMAP
F840
0840
0840
F840
80A0
81B0
FF18
ENDCHAR
STARTCHAR char0x242E
ENCODING 9262
SWIDTH 1333 0
DWIDTH 16 0
BBX 12 7 2 2
BITMAP
F9F0
0900
0900
F9F0
8100
8100
FDF0
ENDCHAR
STARTCHAR char0x242F
ENCODING 9263
SWIDTH 1333 0
DWIDTH 16 0
BBX 12 7 2 2
BITMAP
FBF0
0920
0920
F920
8120
8120
FFF0
ENDCHAR
STARTCHAR char0x2430
ENCODING 9264
SWIDTH 1333 0
DWIDTH 16 0
BBX 12 9 2 1
BITMAP
0080
F080
17F0
1000
F1C0
8220
8220
FA20
01C0
ENDCHAR
STARTCHAR char0x2431
ENCODING 9265
SWIDTH 1333 0
DWIDTH 16 0
BBX 9 7 3 2
BITMAP
FF80
8080
8080
8080
8080
8080
FF80
ENDCHAR
STARTCHAR char0x2432
ENCODING 9266
SWIDTH 1333 0
DWIDTH 16 0
BBX 9 7 3 2
BITMAP
8080
8080
8080
FF80
8080
8080
FF80
ENDCHAR
STARTCHAR char0x2433
ENCODING 9267
SWIDTH 1333 0
DWIDTH 16 0
BBX 12 7 2 2
BITMAP
8910
8910
8910
F9F0
8910
8910
F9F0
ENDCHAR
STARTCHAR char0x2434
ENCODING 9268
SWIDTH 1333 0
DWIDTH 16 0
BBX 13 7 2 2
BITMAP
8840
8840
8840
F840
88A0
89B0
FB18
ENDCHAR
STARTCHAR char0x2435
ENCODING 9269
SWIDTH 1333 0
DWIDTH 16 0
BBX 12 8 2 2
BITMAP
0400
0400
0400
0400
0E00
1900
30C0
C030
ENDCHAR
STARTCHAR char0x2436
ENCODING 9270
SWIDTH 1333 0
DWIDTH 16 0
BBX 12 8 2 2
BITMAP
1080
1080
1080
1080
30C0
29C0
4520
8210
ENDCHAR
STARTCHAR char0x2437
ENCODING 9271
SWIDTH 1333 0
DWIDTH 16 0
BBX 8 8 4 2
BITMAP
3C
42
81
81
81
81
42
3C
ENDCHAR
STARTCHAR char0x2438
ENCODING 9272
SWIDTH 1333 0
DWIDTH 16 0
BBX 12 7 2 2
BITMAP
FFF0
0400
0400
0E00
1900
30C0
C030
ENDCHAR
STARTCHAR char0x2439
ENCODING 9273
SWIDTH 1333 0
DWIDTH 16 0
BBX 13 7 1 2
BITMAP
FDF8
1040
1040
1040
28A0
4D90
8218
ENDCHAR
STARTCHAR char0x243A
ENCODING 9274
SWIDTH 1333 0
DWIDTH 16 0
BBX 12 9 2 2
BITMAP
0400
0400
FFF0
0400
0400
0E00
1900
30C0
C030
ENDCHAR
STARTCHAR char0x243B
ENCODING 9275
SWIDTH 1333 0
DWIDTH 16 0
BBX 9 7 3 2
BITMAP
FF80
0080
0080
FF80
0080
0080
0080
ENDCHAR
STARTCHAR char0x243C
ENCODING 9276
SWIDTH 1333 0
DWIDTH 16 0
BBX 10 7 3 2
BITMAP
FFC0
8000
8000
FF80
8000
8000
FFC0
ENDCHAR
STARTCHAR char0x243D
ENCODING 9277
SWIDTH 1333 0
DWIDTH 16 0
BBX 10 7 3 2
BITMAP
FFC0
2100
2100
2100
2100
2100
FFC0
ENDCHAR
STARTCHAR char0x243E
ENCODING 9278
SWIDTH 1333 0
DWIDTH 16 0
BBX 10 9 3 2
BITMAP
0800
0800
FFC0
0000
3F00
6180
4080
6180
3F00
ENDCHAR
STARTCHAR char0x243F
ENCODING 9279
SWIDTH 1333 0
DWIDTH 16 0
BBX 4 15 7 -1
BITMAP
80
80
80
80
80
80
80
F0
80
80
80
80
80
80
80
ENDCHAR
STARTCHAR char0x2440
ENCODING 9280
SWIDTH 1333 0
DWIDTH 16 0
BBX 5 15 6 -1
BITMAP
88
88
88
88
88
88
88
F8
88
88
88
88
88
88
88
ENDCHAR
STARTCHAR char0x2441
ENCODING 9281
SWIDTH 1333 0
DWIDTH 16 0
BBX 4 15 7 -1
BITMAP
80
80
80
80
F0
80
80
80
80
F0
80
80
80
80
80
ENDCHAR
STARTCHAR char0x2442
ENCODING 9282
SWIDTH 1333 0
DWIDTH 16 0
BBX 5 15 6 -1
BITMAP
88
88
88
88
F8
88
88
88
88
F8
88
88
88
88
88
ENDCHAR
STARTCHAR char0x2443
ENCODING 9283
SWIDTH 1333 0
DWIDTH 16 0
BBX 5 15 5 -1
BITMAP
08
08
08
08
08
08
08
F8
08
08
08
08
08
08
08
ENDCHAR
STARTCHAR char0x2444
ENCODING 9284
SWIDTH 1333 0
DWIDTH 16 0
BBX 7 15 4 -1
BITMAP
12
12
12
12
12
12
12
F2
12
12
12
12
12
12
12
ENDCHAR
STARTCHAR char0x2445
ENCODING 9285
SWIDTH 1333 0
DWIDTH 16 0
BBX 5 15 5 -1
BITMAP
08
08
08
08
F8
08
08
08
08
F8
08
08
08
08
08
ENDCHAR
STARTCHAR char0x2446
ENCODING 9286
SWIDTH 1333 0
DWIDTH 16 0
BBX 7 15 4 -1
BITMAP
12
12
12
12
F2
12
12
12
12
F2
12
12
12
12
12
ENDCHAR
STARTCHAR char0x2447
ENCODING 9287
SWIDTH 1333 0
DWIDTH 16 0
BBX 14 7 1 2
BITMAP
0200
0200
0200
0200
0200
0200
FFFC
ENDCHAR
STARTCHAR char0x2448
ENCODING 9288
SWIDTH 1333 0
DWIDTH 16 0
BBX 14 15 1 -1
BITMAP
0010
0010
0010
0010
0010
0810
081C
0810
0810
0810
0810
FFD0
0010
0010
0010
ENDCHAR
STARTCHAR char0x2449
ENCODING 9289
SWIDTH 1333 0
DWIDTH 16 0
BBX 13 15 1 -1
BITMAP
0048
0048
0048
0048
0048
0848
0878
0848
0848
0848
0848
FF48
0048
0048
0048
ENDCHAR
STARTCHAR char0x244A
ENCODING 9290
SWIDTH 1333 0
DWIDTH 16 0
BBX 12 15 1 -1
BITMAP
0010
0010
0010
0010
0010
0810
0810
0810
0810
0810
0810
FFD0
0010
0010
0010
ENDCHAR
STARTCHAR char0x244B
ENCODING 9291
SWIDTH 1333 0
DWIDTH 16 0
BBX 14 7 1 2
BITMAP
0840
0840
0840
0840
0840
0840
FFFC
ENDCHAR
STARTCHAR char0x244C
ENCODING 9292
SWIDTH 1333 0
DWIDTH 16 0
BBX 14 8 1 0
BITMAP
FFFC
0200
0200
0200
0200
0200
0200
0200
ENDCHAR
STARTCHAR char0x244D
ENCODING 9293
SWIDTH 1333 0
DWIDTH 16 0
BBX 13 15 1 -1
BITMAP
0008
0008
0008
0008
0008
FFE8
0408
0408
04F8
0408
0408
0408
0408
0408
0008
ENDCHAR
STARTCHAR char0x244E
ENCODING 9294
SWIDTH 1333 0
DWIDTH 16 0
BBX 13 15 1 -1
BITMAP
0048
0048
0048
0048
0048
FF48
0848
0848
0BC8
0848
0848
0848
0848
0848
0048
ENDCHAR
STARTCHAR char0x244F
ENCODING 9295
SWIDTH 1333 0
DWIDTH 16 0
BBX 13 15 1 -1
BITMAP
0008
0008
0008
0008
0008
FFE8
0408
0408
0408
0408
0408
0408
0408
0408
0008
ENDCHAR
STARTCHAR char0x2450
ENCODING 9296
SWIDTH 1333 0
DWIDTH 16 0
BBX 14 8 1 0
BITMAP
FFFC
0840
0840
0840
0840
0840
0840
0840
ENDCHAR
STARTCHAR char0x2451
ENCODING 9297
SWIDTH 1333 0
DWIDTH 16 0
BBX 14 1 1 5
BITMAP
FFFC
ENDCHAR
STARTCHAR char0x2452
ENCODING 9298
SWIDTH 1333 0
DWIDTH 16 0
BBX 13 15 1 -1
BITMAP
0008
0008
0008
0008
0008
0008
0008
0008
0008
0008
FFE8
0008
0008
0008
0008
ENDCHAR
STARTCHAR char0x2453
ENCODING 9299
SWIDTH 1333 0
DWIDTH 16 0
BBX 1 15 7 -1
BITMAP
80
80
80
80
80
80
80
80
80
80
80
80
80
80
80
ENDCHAR
STARTCHAR char0x3021
ENCODING 12321
SWIDTH 1333 0
DWIDTH 16 0
BBX 14 15 1 -2
BITMAP
0020
7E20
0220
0220
0420
0420
083C
0820
1020
6020
C020
0020
0020
0020
0020
ENDCHAR
STARTCHAR char0x3022
ENCODING 12322
SWIDTH 1333 0
DWIDTH 16 0
BBX 14 15 1 -2
BITMAP
0010
7E10
0210
0410
041C
1810
7010
C010
0000
3FF0
0010
0010
0010
0010
0010
ENDCHAR
STARTCHAR char0x3023
ENCODING 12323
SWIDTH 1333 0
DWIDTH 16 0
BBX 14 14 1 -1
BITMAP
0010
7E10
0210
0410
0410
081C
1010
2010
C010
0010
2010
2000
2000
3FF0
ENDCHAR
STARTCHAR char0x3024
ENCODING 12324
SWIDTH 1333 0
DWIDTH 16 0
BBX 14 13 1 -1
BITMAP
7E20
0220
0420
041C
1820
7020
C000
0000
1FE0
1000
1000
1000
1FE0
ENDCHAR
STARTCHAR char0x3025
ENCODING 12325
SWIDTH 1333 0
DWIDTH 16 0
BBX 14 14 1 -1
BITMAP
0010
7E10
0210
041C
0C10
1810
7010
C000
1FF0
0010
1FF0
1000
1000
1FF0
ENDCHAR
STARTCHAR char0x3026
ENCODING 12326
SWIDTH 1333 0
DWIDTH 16 0
BBX 14 14 1 -1
BITMAP
0010
7E10
0210
041C
0410
1810
3010
C000
3DF0
0410
3C10
2010
2010
3E10
ENDCHAR
STARTCHAR char0x3027
ENCODING 12327
SWIDTH 1333 0
DWIDTH 16 0
BBX 14 14 1 -1
BITMAP
0010
7E10
0210
041C
0410
1810
3010
C000
3DF0
0510
3D10
2110
2110
3DF0
ENDCHAR
STARTCHAR char0x3028
ENCODING 12328
SWIDTH 1333 0
DWIDTH 16 0
BBX 14 14 1 -1
BITMAP
0010
7E10
0210
0410
041C
0810
3010
C010
0000
1FF0
1010
1010
1010
1FF0
ENDCHAR
STARTCHAR char0x3029
ENCODING 12329
SWIDTH 1333 0
DWIDTH 16 0
BBX 14 14 1 -1
BITMAP
0020
7E20
0220
0420
043C
1820
7020
C000
1020
1020
1FE0
1020
1020
1FE0
ENDCHAR
STARTCHAR char0x302A
ENCODING 12330
SWIDTH 1333 0
DWIDTH 16 0
BBX 14 14 1 -1
BITMAP
0010
7E10
0210
0410
041C
1810
7010
C000
2220
2220
3E20
2250
22D8
3F8C
ENDCHAR
STARTCHAR char0x302B
ENCODING 12331
SWIDTH 1333 0
DWIDTH 16 0
BBX 14 15 1 -2
BITMAP
0020
7E20
0220
0620
0420
083C
1820
2020
C020
0220
0200
0700
0C80
1860
6018
ENDCHAR
STARTCHAR char0x302C
ENCODING 12332
SWIDTH 1333 0
DWIDTH 16 0
BBX 14 15 1 -2
BITMAP
0010
7E10
0210
0210
041C
0810
1010
6010
C000
0840
0840
0860
14E0
2390
430C
ENDCHAR
STARTCHAR char0x302D
ENCODING 12333
SWIDTH 1333 0
DWIDTH 16 0
BBX 14 14 1 -1
BITMAP
0010
7E10
0210
0410
041C
0810
1010
2010
C010
0FC0
3030
2010
3030
0FC0
ENDCHAR
STARTCHAR char0x302E
ENCODING 12334
SWIDTH 1333 0
DWIDTH 16 0
BBX 13 15 2 -2
BITMAP
0020
FC20
0420
0820
1838
3020
C020
0020
0000
7FE0
0400
0E00
1900
30C0
C030
ENDCHAR
STARTCHAR char0x302F
ENCODING 12335
SWIDTH 1333 0
DWIDTH 16 0
BBX 14 15 1 -2
BITMAP
0010
7E10
0210
0410
041C
1810
3010
C210
0200
3FF0
0200
0700
0C80
1860
6018
ENDCHAR
STARTCHAR char0x3030
ENCODING 12336
SWIDTH 1333 0
DWIDTH 16 0
BBX 14 13 1 -1
BITMAP
7E20
0220
0420
041C
1820
3020
C000
0000
1FE0
1000
1FE0
1000
1FE0
ENDCHAR
STARTCHAR char0x3031
ENCODING 12337
SWIDTH 1333 0
DWIDTH 16 0
BBX 13 14 1 -1
BITMAP
0020
7F20
0120
0220
0618
0C20
3020
C020
0000
3FE0
0840
0840
0840
3FE0
ENDCHAR
STARTCHAR char0x3032
ENCODING 12338
SWIDTH 1333 0
DWIDTH 16 0
BBX 14 14 1 -1
BITMAP
0010
7E10
0210
041C
0410
1810
3010
C210
0200
3FF0
0000
0FC0
1020
0FC0
ENDCHAR
STARTCHAR char0x3033
ENCODING 12339
SWIDTH 1333 0
DWIDTH 16 0
BBX 13 15 1 -2
BITMAP
0048
7E48
0248
0248
0448
0448
0878
1848
1048
6048
C048
0048
0048
0048
0048
ENDCHAR
STARTCHAR char0x3034
ENCODING 12340
SWIDTH 1333 0
DWIDTH 16 0
BBX 13 15 1 -2
BITMAP
0048
7E48
0248
0248
0478
0848
1848
6048
C000
1FF8
0008
0008
0008
0008
0008
ENDCHAR
STARTCHAR char0x3035
ENCODING 12341
SWIDTH 1333 0
DWIDTH 16 0
BBX 13 14 1 -1
BITMAP
0048
7E48
0248
0248
0448
0C78
1848
3048
C048
0048
1000
1000
1000
1FF8
ENDCHAR
STARTCHAR char0x3036
ENCODING 12342
SWIDTH 1333 0
DWIDTH 16 0
BBX 13 14 1 -1
BITMAP
0048
7E48
0248
0478
0448
1848
7048
C000
1FF8
0008
1FF8
1000
1000
1FF8
ENDCHAR
STARTCHAR char0x3037
ENCODING 12343
SWIDTH 1333 0
DWIDTH 16 0
BBX 13 14 1 -1
BITMAP
0048
7E48
0248
0448
0478
1848
7048
C048
0000
1FF8
1008
1008
1008
1FF8
ENDCHAR
STARTCHAR char0x3038
ENCODING 12344
SWIDTH 1333 0
DWIDTH 16 0
BBX 13 14 1 -1
BITMAP
0048
7E48
0248
0448
0478
1848
7048
C000
1008
1008
1FF8
1008
1008
1FF8
ENDCHAR
STARTCHAR char0x3039
ENCODING 12345
SWIDTH 1333 0
DWIDTH 16 0
BBX 14 15 1 -2
BITMAP
0048
7E48
0248
0248
0448
0C78
1848
3048
C048
0108
0100
0380
0640
0C30
300C
ENDCHAR
STARTCHAR char0x303A
ENCODING 12346
SWIDTH 1333 0
DWIDTH 16 0
BBX 14 15 1 -2
BITMAP
0048
7E48
0248
0248
0478
0C48
1848
3048
C008
0820
0820
0C20
1E50
33C8
618C
ENDCHAR
STARTCHAR char0x303B
ENCODING 12347
SWIDTH 1333 0
DWIDTH 16 0
BBX 13 14 1 -1
BITMAP
0048
7E48
0248
0248
0478
0C48
1848
3048
C008
07E0
1818
1008
1818
07E0
ENDCHAR
STARTCHAR char0x303C
ENCODING 12348
SWIDTH 1333 0
DWIDTH 16 0
BBX 14 15 1 -2
BITMAP
0020
7F20
0120
0120
023C
0220
0420
0820
1820
603C
C020
0020
0020
0020
0020
ENDCHAR
STARTCHAR char0x303D
ENCODING 12349
SWIDTH 1333 0
DWIDTH 16 0
BBX 14 15 1 -2
BITMAP
0010
7E10
021C
0410
0410
181C
3010
C010
0000
3FF0
0010
0010
0010
0010
0010
ENDCHAR
STARTCHAR char0x303E
ENCODING 12350
SWIDTH 1333 0
DWIDTH 16 0
BBX 14 14 1 -1
BITMAP
0010
7E10
0210
041C
0410
0810
1010
201C
C010
0010
1010
1000
1000
1FF0
ENDCHAR
STARTCHAR char0x303F
ENCODING 12351
SWIDTH 1333 0
DWIDTH 16 0
BBX 14 14 1 -1
BITMAP
0010
7E10
021C
0410
0410
181C
3010
C010
0000
1FF0
0010
1FF0
1000
1FF0
ENDCHAR
STARTCHAR char0x3040
ENCODING 12352
SWIDTH 1333 0
DWIDTH 16 0
BBX 14 15 1 -2
BITMAP
0010
7E10
0210
021C
0410
0410
0810
101C
6010
C010
0210
0200
0580
1840
6038
ENDCHAR
STARTCHAR char0x3041
ENCODING 12353
SWIDTH 1333 0
DWIDTH 16 0
BBX 14 14 1 -1
BITMAP
0010
7E10
021C
0210
0410
081C
1010
2010
C010
0FC0
3030
2010
3030
0FC0
ENDCHAR
STARTCHAR char0x3042
ENCODING 12354
SWIDTH 1333 0
DWIDTH 16 0
BBX 13 15 1 -2
BITMAP
0048
7E48
0248
0248
0478
0448
0848
0848
1078
6048
C048
0048
0048
0048
0048
ENDCHAR
STARTCHAR char0x3043
ENCODING 12355
SWIDTH 1333 0
DWIDTH 16 0
BBX 13 14 1 -1
BITMAP
0048
7E48
0248
0278
0448
0848
1878
6048
C048
0048
1000
1000
1000
1FF8
ENDCHAR
STARTCHAR char0x3044
ENCODING 12356
SWIDTH 1333 0
DWIDTH 16 0
BBX 13 14 1 -1
BITMAP
0048
7E48
0278
0448
0448
0878
3048
C000
1FF8
0008
1FF8
1000
1000
1FF8
ENDCHAR
STARTCHAR char0x3045
ENCODING 12357
SWIDTH 1333 0
DWIDTH 16 0
BBX 12 15 1 -2
BITMAP
0010
7E10
0210
0210
0410
0410
09F0
1810
3010
6010
C010
0010
0010
0010
0010
ENDCHAR
STARTCHAR char0x3046
ENCODING 12358
SWIDTH 1333 0
DWIDTH 16 0
BBX 12 15 1 -2
BITMAP
0010
7E10
0210
0410
04F0
0810
1810
2010
C000
3FF0
0010
0010
0010
0010
0010
ENDCHAR
STARTCHAR char0x3047
ENCODING 12359
SWIDTH 1333 0
DWIDTH 16 0
BBX 12 14 1 -1
BITMAP
0010
7E10
0210
0410
0410
08F0
1010
2010
C010
0010
1010
1000
1000
1FF0
ENDCHAR
STARTCHAR char0x3048
ENCODING 12360
SWIDTH 1333 0
DWIDTH 16 0
BBX 11 13 1 -1
BITMAP
7E20
0220
0220
04E0
0820
1820
2000
C000
1FE0
1000
1000
1000
1FE0
ENDCHAR
STARTCHAR char0x3049
ENCODING 12361
SWIDTH 1333 0
DWIDTH 16 0
BBX 12 14 1 -1
BITMAP
0010
7E10
0210
0410
04F0
1810
3010
C000
1FF0
0010
1FF0
1000
1000
1FF0
ENDCHAR
STARTCHAR char0x304A
ENCODING 12362
SWIDTH 1333 0
DWIDTH 16 0
BBX 12 14 1 -1
BITMAP
0010
7E10
0210
0410
04F0
1810
3010
C000
3CF0
0490
3C90
2090
2090
3CF0
ENDCHAR
STARTCHAR char0x304B
ENCODING 12363
SWIDTH 1333 0
DWIDTH 16 0
BBX 12 14 1 -1
BITMAP
0010
7E10
0210
0210
04F0
0810
1810
2010
C000
1FF0
1010
1010
1010
1FF0
ENDCHAR
STARTCHAR char0x304C
ENCODING 12364
SWIDTH 1333 0
DWIDTH 16 0
BBX 12 14 1 -1
BITMAP
0010
7E10
0210
0410
04F0
0810
3010
C000
1010
1010
1FF0
1010
1010
1FF0
ENDCHAR
STARTCHAR char0x304D
ENCODING 12365
SWIDTH 1333 0
DWIDTH 16 0
BBX 14 15 1 -2
BITMAP
0008
7F08
0108
0208
0208
05F8
0808
3008
C008
0108
0100
0380
04C0
0830
300C
ENDCHAR
STARTCHAR char0x304E
ENCODING 12366
SWIDTH 1333 0
DWIDTH 16 0
BBX 14 15 1 -2
BITMAP
0010
7E10
0210
0210
04F0
0810
1810
2010
C000
0820
0820
0C20
1A50
33C8
6184
ENDCHAR
STARTCHAR char0x304F
ENCODING 12367
SWIDTH 1333 0
DWIDTH 16 0
BBX 12 14 1 -1
BITMAP
0010
7E10
0210
0210
04F0
0810
1010
6010
C010
0FC0
3030
2010
3030
0FC0
ENDCHAR
STARTCHAR char0x3050
ENCODING 12368
SWIDTH 1333 0
DWIDTH 16 0
BBX 12 14 1 -2
BITMAP
7E20
0220
0420
04E0
1820
3020
C000
0000
3FE0
0100
0780
0580
18C0
6030
ENDCHAR
STARTCHAR char0x3051
ENCODING 12369
SWIDTH 1333 0
DWIDTH 16 0
BBX 11 13 1 -1
BITMAP
7E20
0220
0220
04E0
0820
1820
2000
C000
1FE0
1000
1FE0
1000
1FE0
ENDCHAR
STARTCHAR char0x3052
ENCODING 12370
SWIDTH 1333 0
DWIDTH 16 0
BBX 11 13 1 -1
BITMAP
7E20
0220
0220
04E0
0820
1820
2000
C000
3FE0
0840
0840
0840
3FE0
ENDCHAR
STARTCHAR char0x3053
ENCODING 12371
SWIDTH 1333 0
DWIDTH 16 0
BBX 11 13 1 -1
BITMAP
7E20
0220
0420
04E0
1820
3020
C100
0100
3FE0
0000
0FC0
1020
0FC0
ENDCHAR
STARTCHAR char0x3054
ENCODING 12372
SWIDTH 1333 0
DWIDTH 16 0
BBX 13 15 1 -2
BITMAP
0048
7E48
0248
0248
0448
07C8
0848
1848
1048
6048
C048
0048
0048
0048
0048
ENDCHAR
STARTCHAR char0x3055
ENCODING 12373
SWIDTH 1333 0
DWIDTH 16 0
BBX 13 14 1 -1
BITMAP
0048
7E48
0248
0448
07C8
0848
1848
2048
C048
0048
1000
1000
1000
1FF8
ENDCHAR
STARTCHAR char0x3056
ENCODING 12374
SWIDTH 1333 0
DWIDTH 16 0
BBX 13 14 1 -1
BITMAP
0048
7E48
0248
0448
05C8
0848
3048
C000
1FF8
0008
1FF8
1000
1000
1FF8
ENDCHAR
STARTCHAR char0x3057
ENCODING 12375
SWIDTH 1333 0
DWIDTH 16 0
BBX 13 14 1 -1
BITMAP
0048
7E48
0248
0248
07C8
0C48
1848
3048
C000
1FF8
1008
1008
1008
1FF8
ENDCHAR
STARTCHAR char0x3058
ENCODING 12376
SWIDTH 1333 0
DWIDTH 16 0
BBX 13 14 1 -1
BITMAP
0048
7E48
0248
0448
07C8
0848
3048
C000
1008
1008
1FF8
1008
1008
1FF8
ENDCHAR
STARTCHAR char0x3059
ENCODING 12377
SWIDTH 1333 0
DWIDTH 16 0
BBX 14 15 1 -2
BITMAP
0048
7E48
0248
0248
05C8
0448
0848
1048
6048
C108
0100
0380
0640
0C30
300C
ENDCHAR
STARTCHAR char0x305A
ENCODING 12378
SWIDTH 1333 0
DWIDTH 16 0
BBX 14 15 1 -2
BITMAP
0050
7C50
0450
0450
0BD0
0850
1050
6050
C010
0820
0820
0C20
1E50
31D8
618C
ENDCHAR
STARTCHAR char0x305B
ENCODING 12379
SWIDTH 1333 0
DWIDTH 16 0
BBX 13 14 1 -1
BITMAP
0048
7E48
0248
0248
07C8
0848
1848
2048
C008
07E0
1818
1008
1818
07E0
ENDCHAR
STARTCHAR char0x305C
ENCODING 12380
SWIDTH 1333 0
DWIDTH 16 0
BBX 12 15 1 -2
BITMAP
0010
7E10
0210
0210
04F0
0410
0810
0810
10F0
6010
C010
0010
0010
0010
0010
ENDCHAR
STARTCHAR char0x305D
ENCODING 12381
SWIDTH 1333 0
DWIDTH 16 0
BBX 12 15 1 -2
BITMAP
0010
7E10
02F0
0210
0410
08F0
1810
2010
C000
3FF0
0010
0010
0010
0010
0010
ENDCHAR
STARTCHAR char0x305E
ENCODING 12382
SWIDTH 1333 0
DWIDTH 16 0
BBX 12 15 1 -2
BITMAP
0010
7E10
02F0
0410
0410
08F0
3010
C010
0000
3EF0
0210
0210
0210
0210
0210
ENDCHAR
STARTCHAR char0x305F
ENCODING 12383
SWIDTH 1333 0
DWIDTH 16 0
BBX 12 14 1 -1
BITMAP
0010
7E10
0210
04F0
0410
0810
10F0
2010
C010
0010
1010
1000
1000
1FF0
ENDCHAR
STARTCHAR char0x3060
ENCODING 12384
SWIDTH 1333 0
DWIDTH 16 0
BBX 11 13 1 -1
BITMAP
7E20
02E0
0220
0420
08E0
1820
2000
C000
1FE0
1000
1000
1000
1FE0
ENDCHAR
STARTCHAR char0x3061
ENCODING 12385
SWIDTH 1333 0
DWIDTH 16 0
BBX 12 14 1 -1
BITMAP
0010
7E10
02F0
0410
0410
18F0
3010
C000
1FF0
0010
1FF0
1000
1000
1FF0
ENDCHAR
STARTCHAR char0x3062
ENCODING 12386
SWIDTH 1333 0
DWIDTH 16 0
BBX 12 14 1 -1
BITMAP
0010
7E10
0210
02F0
0410
0C10
18F0
3010
C000
1FF0
1010
1010
1010
1FF0
ENDCHAR
STARTCHAR char0x3063
ENCODING 12387
SWIDTH 1333 0
DWIDTH 16 0
BBX 12 14 1 -1
BITMAP
0010
7E10
02F0
0610
0410
08F0
3010
C000
1010
1010
1FF0
1010
1010
1FF0
ENDCHAR
STARTCHAR char0x3064
ENCODING 12388
SWIDTH 1333 0
DWIDTH 16 0
BBX 13 15 2 -2
BITMAP
0010
7E10
0210
02F0
0410
0810
18F0
2010
C010
0110
0100
0380
04C0
1860
6018
ENDCHAR
STARTCHAR char0x3065
ENCODING 12389
SWIDTH 1333 0
DWIDTH 16 0
BBX 14 15 1 -2
BITMAP
0010
7E10
0210
02F0
0410
0810
18F0
2010
C010
0820
0820
0C20
1A50
33D8
618C
ENDCHAR
STARTCHAR char0x3066
ENCODING 12390
SWIDTH 1333 0
DWIDTH 16 0
BBX 12 14 1 -1
BITMAP
0010
7E10
0210
04F0
0410
0810
10F0
2010
C010
0FC0
3030
2010
3030
0FC0
ENDCHAR
STARTCHAR char0x3067
ENCODING 12391
SWIDTH 1333 0
DWIDTH 16 0
BBX 11 13 1 -1
BITMAP
7E20
02E0
0420
0420
08E0
3000
C000
1FE0
1000
1FE0
1000
1000
1FE0
ENDCHAR
STARTCHAR char0x3068
ENCODING 12392
SWIDTH 1333 0
DWIDTH 16 0
BBX 13 15 1 -2
BITMAP
0048
7E48
0248
0448
07C8
0448
0C48
1848
13C8
6048
C048
0048
0048
0048
0048
ENDCHAR
STARTCHAR char0x3069
ENCODING 12393
SWIDTH 1333 0
DWIDTH 16 0
BBX 13 14 1 -1
BITMAP
0048
7E48
0248
03C8
0448
0848
1BC8
2048
C048
0048
1000
1000
1000
1FF8
ENDCHAR
STARTCHAR char0x306A
ENCODING 12394
SWIDTH 1333 0
DWIDTH 16 0
BBX 13 14 1 -1
BITMAP
0048
7E48
03C8
0448
0448
09C8
3048
C000
1FF8
0008
1FF8
1000
1000
1FF8
ENDCHAR
STARTCHAR char0x306B
ENCODING 12395
SWIDTH 1333 0
DWIDTH 16 0
BBX 13 14 1 -1
BITMAP
0048
7E48
03C8
0448
0448
09C8
3048
C000
1008
1008
1FF8
1008
1008
1FF8
ENDCHAR
STARTCHAR char0x306C
ENCODING 12396
SWIDTH 1333 0
DWIDTH 16 0
BBX 14 15 1 -2
BITMAP
0048
7E48
0248
03C8
0448
0448
0BC8
1048
6048
C108
0100
0380
0640
0C30
300C
ENDCHAR
STARTCHAR char0x306D
ENCODING 12397
SWIDTH 1333 0
DWIDTH 16 0
BBX 14 11 1 1
BITMAP
3FF0
0010
0010
0010
0010
0210
0210
0210
0200
0200
FFFC
ENDCHAR
STARTCHAR char0x306E
ENCODING 12398
SWIDTH 1333 0
DWIDTH 16 0
BBX 14 15 1 -2
BITMAP
3FF0
0010
0010
0210
0210
0200
FFFC
0000
0000
3FE0
0020
0020
0020
0020
0020
ENDCHAR
STARTCHAR char0x306F
ENCODING 12399
SWIDTH 1333 0
DWIDTH 16 0
BBX 14 14 1 -1
BITMAP
3FF0
0010
0010
0210
0210
0210
0200
FFFC
0000
0000
2000
2000
2000
3FF0
ENDCHAR
STARTCHAR char0x3070
ENCODING 12400
SWIDTH 1333 0
DWIDTH 16 0
BBX 14 14 1 -1
BITMAP
3FF0
0010
0010
0210
0210
0200
FFFC
0000
0000
3FF0
2000
2000
2000
3FF0
ENDCHAR
STARTCHAR char0x3071
ENCODING 12401
SWIDTH 1333 0
DWIDTH 16 0
BBX 14 14 1 -1
BITMAP
3FF0
0010
0010
0210
0210
0200
FFFC
0000
3FF0
0010
3FF0
2000
2000
3FF0
ENDCHAR
STARTCHAR char0x3072
ENCODING 12402
SWIDTH 1333 0
DWIDTH 16 0
BBX 14 14 1 -1
BITMAP
3FF0
0010
0010
0210
0210
0200
FFFC
0000
3DF0
0510
3D10
2110
2110
3DF0
ENDCHAR
STARTCHAR char0x3073
ENCODING 12403
SWIDTH 1333 0
DWIDTH 16 0
BBX 14 14 1 -1
BITMAP
3FF0
0010
0010
0210
0210
0200
FFFC
0000
3C20
0420
3C20
2070
2090
3D08
ENDCHAR
STARTCHAR char0x3074
ENCODING 12404
SWIDTH 1333 0
DWIDTH 16 0
BBX 14 14 1 -1
BITMAP
3FF0
0010
0010
0210
0210
0200
FFFC
0000
3C40
05F8
3C00
21E0
2110
3EE0
ENDCHAR
STARTCHAR char0x3075
ENCODING 12405
SWIDTH 1333 0
DWIDTH 16 0
BBX 14 14 1 -1
BITMAP
3FF0
0010
0010
0210
0210
0200
FFFC
0000
0000
3FF0
2010
2010
2010
3FF0
ENDCHAR
STARTCHAR char0x3076
ENCODING 12406
SWIDTH 1333 0
DWIDTH 16 0
BBX 14 14 1 -1
BITMAP
3FF0
0010
0010
0210
0210
0200
FFFC
0000
2010
2010
3FF0
2010
2010
3FF0
ENDCHAR
STARTCHAR char0x3077
ENCODING 12407
SWIDTH 1333 0
DWIDTH 16 0
BBX 14 15 1 -2
BITMAP
3FF0
0010
0010
0210
0210
0210
0200
FFFC
0000
0200
0200
0700
0C80
1860
6018
ENDCHAR
STARTCHAR char0x3078
ENCODING 12408
SWIDTH 1333 0
DWIDTH 16 0
BBX 14 14 1 -1
BITMAP
3FF0
0010
0010
0210
0210
0200
FFFC
0000
0000
0FC0
3030
2010
3030
0FC0
ENDCHAR
STARTCHAR char0x3079
ENCODING 12409
SWIDTH 1333 0
DWIDTH 16 0
BBX 14 15 1 -2
BITMAP
3FF0
0010
0010
0210
0210
0200
FFFC
0000
0000
3FF0
0200
0700
0C80
1860
6018
ENDCHAR
STARTCHAR char0x307A
ENCODING 12410
SWIDTH 1333 0
DWIDTH 16 0
BBX 14 15 1 -2
BITMAP
0010
7F10
0110
0110
0110
0110
091C
0910
0910
0810
0810
FFD0
0010
0010
0010
ENDCHAR
STARTCHAR char0x307B
ENCODING 12411
SWIDTH 1333 0
DWIDTH 16 0
BBX 14 15 1 -2
BITMAP
0010
7F90
0090
0090
089C
0890
0810
FFD0
0000
3FF0
0010
0010
0010
0010
0010
ENDCHAR
STARTCHAR char0x307C
ENCODING 12412
SWIDTH 1333 0
DWIDTH 16 0
BBX 14 14 1 -1
BITMAP
0010
7F10
0110
0110
0910
091C
0810
FFD0
0010
0010
1010
1000
1000
1FF0
ENDCHAR
STARTCHAR char0x307D
ENCODING 12413
SWIDTH 1333 0
DWIDTH 16 0
BBX 14 14 1 -1
BITMAP
0010
7F10
0110
0910
091C
0810
FFD0
0000
1FF0
0010
1FF0
1000
1000
1FF0
ENDCHAR
STARTCHAR char0x307E
ENCODING 12414
SWIDTH 1333 0
DWIDTH 16 0
BBX 14 14 1 -1
BITMAP
0010
7F10
0110
0910
091C
0810
FFD0
0000
3DF0
0510
3D10
2110
2110
3DF0
ENDCHAR
STARTCHAR char0x3121
ENCODING 12577
SWIDTH 1333 0
DWIDTH 16 0
BBX 14 14 1 -1
BITMAP
0010
7F10
0110
0110
091C
0910
0810
FFD0
0000
1FF0
1010
1010
1010
1FF0
ENDCHAR
STARTCHAR char0x3122
ENCODING 12578
SWIDTH 1333 0
DWIDTH 16 0
BBX 14 14 1 -1
BITMAP
0010
7F10
0110
0910
091C
0810
FFD0
0000
1010
1010
1FF0
1010
1010
1FF0
ENDCHAR
STARTCHAR char0x3123
ENCODING 12579
SWIDTH 1333 0
DWIDTH 16 0
BBX 14 15 1 -2
BITMAP
0010
7F10
0110
0110
0910
091C
0810
FFD0
0010
0110
0100
0380
04C0
1860
6018
ENDCHAR
STARTCHAR char0x3124
ENCODING 12580
SWIDTH 1333 0
DWIDTH 16 0
BBX 14 14 1 -1
BITMAP
0010
7F10
0110
0110
091C
0910
0810
FFD0
0010
0FC0
3030
2010
3030
0FC0
ENDCHAR
STARTCHAR char0x3125
ENCODING 12581
SWIDTH 1333 0
DWIDTH 16 0
BBX 13 15 1 -2
BITMAP
0048
7E48
0248
0248
0248
0248
1278
1248
1248
1048
1048
FF48
0048
0048
0008
ENDCHAR
STARTCHAR char0x3126
ENCODING 12582
SWIDTH 1333 0
DWIDTH 16 0
BBX 12 14 1 -1
BITMAP
0090
7E90
0290
0290
1290
12F0
1090
FE90
0090
0090
1010
1000
1000
1FF0
ENDCHAR
STARTCHAR char0x3127
ENCODING 12583
SWIDTH 1333 0
DWIDTH 16 0
BBX 12 14 1 -1
BITMAP
0090
7E90
0290
1290
12F0
1090
FE90
0000
1FF0
0010
1FF0
1000
1000
1FF0
ENDCHAR
STARTCHAR char0x3128
ENCODING 12584
SWIDTH 1333 0
DWIDTH 16 0
BBX 12 14 1 -1
BITMAP
0090
7E90
0290
0290
12F0
1290
1090
FF90
0000
1010
1010
1FF0
1010
1FF0
ENDCHAR
STARTCHAR char0x3129
ENCODING 12585
SWIDTH 1333 0
DWIDTH 16 0
BBX 14 15 1 -2
BITMAP
0050
7E50
0250
0250
1270
1250
1050
FF50
0000
0820
0820
0C20
1E50
33D8
618C
ENDCHAR
STARTCHAR char0x312A
ENCODING 12586
SWIDTH 1333 0
DWIDTH 16 0
BBX 13 14 1 -1
BITMAP
0048
7E48
0248
0248
1278
1248
1048
FF48
0000
07E0
1818
1008
1818
07E0
ENDCHAR
STARTCHAR char0x312B
ENCODING 12587
SWIDTH 1333 0
DWIDTH 16 0
BBX 12 15 1 -2
BITMAP
0010
7F90
0090
0090
0090
0090
0890
0890
0890
0810
0810
FFD0
0010
0010
0010
ENDCHAR
STARTCHAR char0x312C
ENCODING 12588
SWIDTH 1333 0
DWIDTH 16 0
BBX 12 15 1 -2
BITMAP
0010
7F90
0090
0090
0890
0890
0810
FFD0
0010
0000
3FF0
0010
0010
0010
0010
ENDCHAR
STARTCHAR char0x312D
ENCODING 12589
SWIDTH 1333 0
DWIDTH 16 0
BBX 12 14 1 -1
BITMAP
0010
7F90
0090
0090
0890
0890
0810
FFD0
0010
0010
1000
1000
1000
1FF0
ENDCHAR
STARTCHAR char0x312E
ENCODING 12590
SWIDTH 1333 0
DWIDTH 16 0
BBX 12 14 1 -1
BITMAP
7F90
0090
0090
0890
0810
FFD0
0010
0000
1FF0
0010
1FF0
1000
1000
1FF0
ENDCHAR
STARTCHAR char0x312F
ENCODING 12591
SWIDTH 1333 0
DWIDTH 16 0
BBX 12 14 1 -1
BITMAP
0010
7F90
0090
0090
0890
0890
0810
FFD0
0000
1FF0
1010
1010
1010
1FF0
ENDCHAR
STARTCHAR char0x3130
ENCODING 12592
SWIDTH 1333 0
DWIDTH 16 0
BBX 12 14 1 -1
BITMAP
0010
7F90
0090
0890
0890
0810
FFD0
0000
1010
1010
1FF0
1010
1010
1FF0
ENDCHAR
STARTCHAR char0x3131
ENCODING 12593
SWIDTH 1333 0
DWIDTH 16 0
BBX 13 15 1 -2
BITMAP
0010
7F90
0090
0090
0890
0890
0810
FFD0
0010
0110
0110
0380
06C0
1C60
7018
ENDCHAR
STARTCHAR char0x3132
ENCODING 12594
SWIDTH 1333 0
DWIDTH 16 0
BBX 12 14 1 -1
BITMAP
0010
7F90
0090
0090
0890
0890
0810
FFD0
0010
0FC0
3030
2010
3030
0FC0
ENDCHAR
STARTCHAR char0x3133
ENCODING 12595
SWIDTH 1333 0
DWIDTH 16 0
BBX 14 11 1 1
BITMAP
3FF0
0010
0010
0010
0010
0910
0910
0910
0900
0900
FFFC
ENDCHAR
STARTCHAR char0x3134
ENCODING 12596
SWIDTH 1333 0
DWIDTH 16 0
BBX 14 14 1 -1
BITMAP
3FF0
0010
0010
0890
0890
0890
0880
FFFC
0000
2000
2000
2000
2000
3FF0
ENDCHAR
STARTCHAR char0x3135
ENCODING 12597
SWIDTH 1333 0
DWIDTH 16 0
BBX 14 14 1 -1
BITMAP
3FF0
0010
0010
0890
0890
0880
FFFC
0000
3FF0
0010
3FF0
2000
2000
3FF0
ENDCHAR
STARTCHAR char0x3136
ENCODING 12598
SWIDTH 1333 0
DWIDTH 16 0
BBX 14 14 1 -1
BITMAP
3FF0
0010
0010
0890
0890
0880
FFFC
0000
2010
2010
3FF0
2010
2010
3FF0
ENDCHAR
STARTCHAR char0x3137
ENCODING 12599
SWIDTH 1333 0
DWIDTH 16 0
BBX 14 15 1 -2
BITMAP
3FF0
0010
0010
0890
0890
0890
0880
FFFC
0000
0200
0200
0700
0C80
1860
6018
ENDCHAR
STARTCHAR char0x3138
ENCODING 12600
SWIDTH 1333 0
DWIDTH 16 0
BBX 14 15 1 -2
BITMAP
3FF0
0010
0010
0010
0010
0020
0020
FFFC
0200
0200
0200
0200
0200
0200
0200
ENDCHAR
STARTCHAR char0x3139
ENCODING 12601
SWIDTH 1333 0
DWIDTH 16 0
BBX 14 15 1 -2
BITMAP
3FF0
0010
0010
0010
0010
FFFC
0200
0200
0200
3FF0
0010
0010
0010
0010
0010
ENDCHAR
STARTCHAR char0x313A
ENCODING 12602
SWIDTH 1333 0
DWIDTH 16 0
BBX 14 14 1 -1
BITMAP
3FF0
0010
0010
0010
0010
0020
FFFC
0100
0100
2100
2100
2100
2000
3FF0
ENDCHAR
STARTCHAR char0x313B
ENCODING 12603
SWIDTH 1333 0
DWIDTH 16 0
BBX 14 14 1 -1
BITMAP
3FF0
0010
0010
0010
0020
FFFC
0200
0200
0200
3FF0
2000
2000
2000
3FF0
ENDCHAR
STARTCHAR char0x313C
ENCODING 12604
SWIDTH 1333 0
DWIDTH 16 0
BBX 14 14 1 -1
BITMAP
3FF0
0010
0010
0010
0020
FFFC
0200
0200
3FF0
0010
3FF0
2000
2000
3FF0
ENDCHAR
STARTCHAR char0x313D
ENCODING 12605
SWIDTH 1333 0
DWIDTH 16 0
BBX 14 14 1 -1
BITMAP
3FF0
0010
0010
0020
0020
FFFC
0200
0200
3FF0
0410
3C10
2010
2010
3E10
ENDCHAR
STARTCHAR char0x313E
ENCODING 12606
SWIDTH 1333 0
DWIDTH 16 0
BBX 14 14 1 -1
BITMAP
3FF0
0010
0010
0020
0020
FFFC
0200
0200
3FF0
0510
3D10
2110
2110
3DF0
ENDCHAR
STARTCHAR char0x313F
ENCODING 12607
SWIDTH 1333 0
DWIDTH 16 0
BBX 14 14 1 -1
BITMAP
3FF0
0010
0010
0010
0020
FFFC
0200
0240
3C40
05F8
3C00
20E0
2110
3EE0
ENDCHAR
STARTCHAR char0x3140
ENCODING 12608
SWIDTH 1333 0
DWIDTH 16 0
BBX 14 14 1 -1
BITMAP
3FF0
0010
0010
0010
0010
FFFC
0200
0200
0200
3FF0
2010
2010
2010
3FF0
ENDCHAR
STARTCHAR char0x3141
ENCODING 12609
SWIDTH 1333 0
DWIDTH 16 0
BBX 14 14 1 -1
BITMAP
3FF0
0010
0010
0010
0010
FFFC
0200
0200
2210
2010
3FF0
2010
2010
3FF0
ENDCHAR
STARTCHAR char0x3142
ENCODING 12610
SWIDTH 1333 0
DWIDTH 16 0
BBX 14 15 1 -2
BITMAP
3FF0
0010
0010
0010
0010
0020
FFFC
0200
0200
0000
0200
0200
0700
1CC0
7038
ENDCHAR
STARTCHAR char0x3143
ENCODING 12611
SWIDTH 1333 0
DWIDTH 16 0
BBX 14 14 1 -1
BITMAP
3FF0
0010
0010
0010
0020
FFFC
0200
0200
0200
1FC0
3030
2010
3030
0FC0
ENDCHAR
STARTCHAR char0x3144
ENCODING 12612
SWIDTH 1333 0
DWIDTH 16 0
BBX 14 15 1 -2
BITMAP
3FF0
0010
0010
0010
0020
FFFC
0200
0200
0000
3FF0
0200
0700
0C80
1860
6018
ENDCHAR
STARTCHAR char0x3145
ENCODING 12613
SWIDTH 1333 0
DWIDTH 16 0
BBX 13 15 1 -2
BITMAP
0008
7F88
0088
0088
0088
0088
0088
FFE8
0408
0408
04F8
0408
0408
0408
0008
ENDCHAR
STARTCHAR char0x3146
ENCODING 12614
SWIDTH 1333 0
DWIDTH 16 0
BBX 12 15 1 -2
BITMAP
0010
3F10
0110
0110
0110
FFD0
0810
08F0
0810
0000
3FF0
0010
0010
0010
0010
ENDCHAR
STARTCHAR char0x3147
ENCODING 12615
SWIDTH 1333 0
DWIDTH 16 0
BBX 12 14 1 -1
BITMAP
0010
7F10
0110
0110
0110
0110
FFD0
0410
04F0
0410
2410
2000
2000
3FF0
ENDCHAR
STARTCHAR char0x3148
ENCODING 12616
SWIDTH 1333 0
DWIDTH 16 0
BBX 12 14 1 -1
BITMAP
7F10
0110
0110
0110
FFD0
0810
08F0
0810
0000
3FF0
0010
3FF0
2000
3FF0
ENDCHAR
STARTCHAR char0x3149
ENCODING 12617
SWIDTH 1333 0
DWIDTH 16 0
BBX 14 15 1 -2
BITMAP
0010
3F10
0110
0110
0110
FFD0
0810
08F0
0810
0010
0820
0820
1E70
33D8
618C
ENDCHAR
STARTCHAR char0x314A
ENCODING 12618
SWIDTH 1333 0
DWIDTH 16 0
BBX 13 14 1 -1
BITMAP
0008
3F88
0088
0088
0088
FFE8
0808
08F8
0008
07E0
1818
1008
1818
07E0
ENDCHAR
STARTCHAR char0x314B
ENCODING 12619
SWIDTH 1333 0
DWIDTH 16 0
BBX 13 15 1 -2
BITMAP
0048
7E48
0248
0248
0248
0248
FFC8
0848
0848
0BC8
0848
0848
0848
0848
0048
ENDCHAR
STARTCHAR char0x314C
ENCODING 12620
SWIDTH 1333 0
DWIDTH 16 0
BBX 13 15 1 -2
BITMAP
0050
7E50
0250
0250
0250
0250
FF50
1050
13D0
1050
1110
0100
0380
0CE0
7038
ENDCHAR
STARTCHAR char0x314D
ENCODING 12621
SWIDTH 1333 0
DWIDTH 16 0
BBX 13 15 1 -2
BITMAP
0008
3F88
0088
0088
0088
0088
0088
FFE8
0408
0408
0408
0408
0408
0408
0008
ENDCHAR
STARTCHAR char0x314E
ENCODING 12622
SWIDTH 1333 0
DWIDTH 16 0
BBX 12 15 1 -2
BITMAP
0010
3F10
0110
0110
0110
0110
FFD0
0810
0810
0800
3FF0
0010
0010
0010
0010
ENDCHAR
STARTCHAR char0x314F
ENCODING 12623
SWIDTH 1333 0
DWIDTH 16 0
BBX 12 14 1 -1
BITMAP
0010
3F10
0110
0110
0110
0110
FFD0
0410
0410
0410
2410
2000
2000
3FF0
ENDCHAR
STARTCHAR char0x3150
ENCODING 12624
SWIDTH 1333 0
DWIDTH 16 0
BBX 12 14 1 -1
BITMAP
0010
7F10
0110
0110
0110
0110
FFD0
0810
0800
1FF0
0010
1FF0
1000
1FF0
ENDCHAR
STARTCHAR char0x3151
ENCODING 12625
SWIDTH 1333 0
DWIDTH 16 0
BBX 12 14 1 -1
BITMAP
0010
7F10
0110
0110
0110
FFD0
0810
0810
0800
1FF0
1010
1010
1010
1FF0
ENDCHAR
STARTCHAR char0x3152
ENCODING 12626
SWIDTH 1333 0
DWIDTH 16 0
BBX 12 14 1 -1
BITMAP
0010
7F10
0110
0110
0110
FFD0
0410
0400
1410
1010
1FF0
1010
1010
1FF0
ENDCHAR
STARTCHAR char0x3153
ENCODING 12627
SWIDTH 1333 0
DWIDTH 16 0
BBX 13 15 1 -2
BITMAP
0010
3F10
0110
0110
0110
0110
FFD0
0810
0810
0810
0110
0100
0280
0C60
3018
ENDCHAR
STARTCHAR char0x3154
ENCODING 12628
SWIDTH 1333 0
DWIDTH 16 0
BBX 14 15 1 -2
BITMAP
3FF0
0010
0010
0010
0010
0020
0020
FFFC
0840
0840
0840
0840
0840
0840
0840
ENDCHAR
STARTCHAR char0x3155
ENCODING 12629
SWIDTH 1333 0
DWIDTH 16 0
BBX 14 14 1 -1
BITMAP
3FF0
0010
0010
0010
0010
0020
FFFC
0440
0440
2440
2440
2000
2000
3FF0
ENDCHAR
STARTCHAR char0x3156
ENCODING 12630
SWIDTH 1333 0
DWIDTH 16 0
BBX 14 14 1 -1
BITMAP
3FF0
0010
0010
0010
0010
FFFC
0840
0840
3FF0
0010
3FF0
2000
2000
3FF0
ENDCHAR
STARTCHAR char0x3157
ENCODING 12631
SWIDTH 1333 0
DWIDTH 16 0
BBX 14 11 1 1
BITMAP
3FE0
0020
0020
0020
0020
0020
0020
0020
0020
0020
FFFC
ENDCHAR
STARTCHAR char0x3158
ENCODING 12632
SWIDTH 1333 0
DWIDTH 16 0
BBX 14 15 1 -2
BITMAP
3FF0
0010
0010
0010
0010
0010
FFFC
0000
0000
3FF0
0010
0010
0010
0010
0010
ENDCHAR
STARTCHAR char0x3159
ENCODING 12633
SWIDTH 1333 0
DWIDTH 16 0
BBX 14 14 1 -1
BITMAP
3FF0
0010
0010
0010
0010
0020
FFFC
0000
0000
2000
2000
2000
2000
3FF0
ENDCHAR
STARTCHAR char0x315A
ENCODING 12634
SWIDTH 1333 0
DWIDTH 16 0
BBX 14 14 1 -1
BITMAP
3FF0
0010
0010
0010
0010
0020
FFFC
0000
0000
3FF0
2000
2000
2000
3FF0
ENDCHAR
STARTCHAR char0x315B
ENCODING 12635
SWIDTH 1333 0
DWIDTH 16 0
BBX 14 14 1 -1
BITMAP
3FF0
0010
0010
0010
0010
FFFC
0000
0000
3FF0
0010
3FF0
2000
2000
3FF0
ENDCHAR
STARTCHAR char0x315C
ENCODING 12636
SWIDTH 1333 0
DWIDTH 16 0
BBX 14 14 1 -1
BITMAP
3FF0
0010
0010
0010
0030
FFFC
0000
0000
3FF0
0210
3E10
2010
2010
3F10
ENDCHAR
STARTCHAR char0x315D
ENCODING 12637
SWIDTH 1333 0
DWIDTH 16 0
BBX 14 14 1 -1
BITMAP
3FF0
0010
0010
0010
0010
FFFC
0000
0000
3FF0
2010
2010
2010
2010
3FF0
ENDCHAR
STARTCHAR char0x315E
ENCODING 12638
SWIDTH 1333 0
DWIDTH 16 0
BBX 14 14 1 -1
BITMAP
3FF0
0010
0010
0010
0010
FFFC
0000
0000
2010
2010
3FF0
2010
2010
3FF0
ENDCHAR
STARTCHAR char0x315F
ENCODING 12639
SWIDTH 1333 0
DWIDTH 16 0
BBX 14 15 1 -2
BITMAP
3FF0
0010
0010
0010
0010
0020
FFFC
0000
0000
0200
0200
0700
0C80
1860
6018
ENDCHAR
STARTCHAR char0x3160
ENCODING 12640
SWIDTH 1333 0
DWIDTH 16 0
BBX 14 14 1 -1
BITMAP
3FF0
0010
0010
0010
0020
0020
FFFC
0000
0000
0FC0
3030
2010
3030
0FC0
ENDCHAR
STARTCHAR char0x3161
ENCODING 12641
SWIDTH 1333 0
DWIDTH 16 0
BBX 13 15 1 -2
BITMAP
0008
7F88
0088
0088
0088
0088
0088
0088
0008
0008
FFE8
0008
0008
0008
0008
ENDCHAR
STARTCHAR char0x3162
ENCODING 12642
SWIDTH 1333 0
DWIDTH 16 0
BBX 11 15 2 -2
BITMAP
0020
7E20
0220
0220
0420
0420
0820
0820
1020
6020
C020
0020
0020
0020
0020
ENDCHAR
STARTCHAR char0x3163
ENCODING 12643
SWIDTH 1333 0
DWIDTH 16 0
BBX 11 15 2 -2
BITMAP
0020
7E20
0220
0420
0420
0820
3020
C020
0000
3FE0
0020
0020
0020
0020
0020
ENDCHAR
STARTCHAR char0x3164
ENCODING 12644
SWIDTH 1333 0
DWIDTH 16 0
BBX 11 14 2 -1
BITMAP
0020
7E20
0220
0420
0420
0820
1020
2020
C020
0020
2020
2000
2000
3FE0
ENDCHAR
STARTCHAR char0x3165
ENCODING 12645
SWIDTH 1333 0
DWIDTH 16 0
BBX 10 13 2 -1
BITMAP
7E40
0240
0440
0440
0840
3040
C000
0000
3FC0
2000
2000
2000
3FC0
ENDCHAR
STARTCHAR char0x3166
ENCODING 12646
SWIDTH 1333 0
DWIDTH 16 0
BBX 11 14 2 -1
BITMAP
0020
7E20
0220
0420
0420
0820
3020
C000
1FE0
0020
1FE0
1000
1000
1FE0
ENDCHAR
STARTCHAR char0x3167
ENCODING 12647
SWIDTH 1333 0
DWIDTH 16 0
BBX 11 14 2 -1
BITMAP
0020
7E20
0220
0420
0420
1820
3020
C000
7DE0
0520
7D20
4120
4120
7DE0
ENDCHAR
STARTCHAR char0x3168
ENCODING 12648
SWIDTH 1333 0
DWIDTH 16 0
BBX 11 14 2 -1
BITMAP
0020
7E20
0220
0420
0420
0820
3020
C020
0000
3FE0
2020
2020
2020
3FE0
ENDCHAR
STARTCHAR char0x3169
ENCODING 12649
SWIDTH 1333 0
DWIDTH 16 0
BBX 11 14 2 -1
BITMAP
0020
7E20
0220
0420
0420
0820
3020
C000
2020
2020
3FE0
2020
2020
3FE0
ENDCHAR
STARTCHAR char0x316A
ENCODING 12650
SWIDTH 1333 0
DWIDTH 16 0
BBX 13 15 2 -2
BITMAP
0010
7E10
0210
0410
0410
0810
1010
2010
C010
0210
0200
0700
0C80
1860
6018
ENDCHAR
STARTCHAR char0x316B
ENCODING 12651
SWIDTH 1333 0
DWIDTH 16 0
BBX 12 14 2 -1
BITMAP
0010
7E10
0210
0210
0410
0810
1010
2010
C010
0FC0
3030
2010
3030
0FC0
ENDCHAR
STARTCHAR char0x316C
ENCODING 12652
SWIDTH 1333 0
DWIDTH 16 0
BBX 11 14 2 -2
BITMAP
7E40
0240
0640
0440
0840
3040
C000
0000
3FC0
0200
0700
0900
1080
6060
ENDCHAR
STARTCHAR char0x316D
ENCODING 12653
SWIDTH 1333 0
DWIDTH 16 0
BBX 10 13 2 -1
BITMAP
7E40
0240
0440
0440
0840
3040
C000
0000
3FC0
0880
0880
0880
7FC0
ENDCHAR
STARTCHAR char0x316E
ENCODING 12654
SWIDTH 1333 0
DWIDTH 16 0
BBX 14 15 1 -2
BITMAP
0020
7720
1120
1120
1120
2120
223C
2220
4220
8420
0420
0820
0020
0020
0020
ENDCHAR
STARTCHAR char0x316F
ENCODING 12655
SWIDTH 1333 0
DWIDTH 16 0
BBX 14 15 1 -2
BITMAP
0020
77A0
10A0
10A0
213C
4320
8620
0C20
0000
3FE0
0020
0020
0020
0020
0020
ENDCHAR
STARTCHAR char0x3170
ENCODING 12656
SWIDTH 1333 0
DWIDTH 16 0
BBX 14 15 1 -2
BITMAP
0010
7790
1090
1090
211C
4310
8610
0C10
0000
7DF0
0410
0410
0410
0410
0410
ENDCHAR
STARTCHAR char0x3171
ENCODING 12657
SWIDTH 1333 0
DWIDTH 16 0
BBX 14 14 1 -1
BITMAP
0010
7790
1090
1090
2110
211C
4210
8610
0C10
0010
2010
2000
2000
3FF0
ENDCHAR
STARTCHAR char0x3172
ENCODING 12658
SWIDTH 1333 0
DWIDTH 16 0
BBX 14 14 1 -1
BITMAP
0010
7790
1090
2110
611C
C210
0C10
0000
3FF0
0010
3FF0
2000
2000
3FF0
ENDCHAR
STARTCHAR char0x3173
ENCODING 12659
SWIDTH 1333 0
DWIDTH 16 0
BBX 14 14 1 -1
BITMAP
0010
7790
1090
2110
611C
C210
0C10
0000
7DF0
0510
7D10
4110
4110
7DF0
ENDCHAR
STARTCHAR char0x3174
ENCODING 12660
SWIDTH 1333 0
DWIDTH 16 0
BBX 14 14 1 -1
BITMAP
0010
7710
1110
1110
221C
4210
8410
0810
0000
3FF0
2010
2010
2010
3FF0
ENDCHAR
STARTCHAR char0x3175
ENCODING 12661
SWIDTH 1333 0
DWIDTH 16 0
BBX 14 14 1 -1
BITMAP
0010
7710
1110
1110
221C
4210
8410
0800
2010
2010
3FF0
2010
2010
3FF0
ENDCHAR
STARTCHAR char0x3176
ENCODING 12662
SWIDTH 1333 0
DWIDTH 16 0
BBX 14 15 1 -2
BITMAP
0010
7790
1090
1090
2110
211C
4210
8610
0C10
0210
0210
0700
0C80
1860
6018
ENDCHAR
STARTCHAR char0x3177
ENCODING 12663
SWIDTH 1333 0
DWIDTH 16 0
BBX 14 15 1 -2
BITMAP
0010
7710
1110
1110
211C
4210
8210
0410
0810
0000
1040
1040
3CA0
67B0
C318
ENDCHAR
STARTCHAR char0x3178
ENCODING 12664
SWIDTH 1333 0
DWIDTH 16 0
BBX 14 14 1 -1
BITMAP
0020
7720
1120
1120
223C
4220
8420
0820
0000
0FC0
3030
2010
3030
0FC0
ENDCHAR
STARTCHAR char0x3179
ENCODING 12665
SWIDTH 1333 0
DWIDTH 16 0
BBX 14 13 1 -1
BITMAP
77A0
10A0
10A0
211C
4320
8620
0C00
0000
3FE0
2000
3FE0
2000
3FE0
ENDCHAR
STARTCHAR char0x317A
ENCODING 12666
SWIDTH 1333 0
DWIDTH 16 0
BBX 13 15 1 -2
BITMAP
0048
7748
1148
1148
1148
1148
2378
2248
6248
4448
8448
0848
0048
0048
0008
ENDCHAR
STARTCHAR char0x317B
ENCODING 12667
SWIDTH 1333 0
DWIDTH 16 0
BBX 13 15 1 -2
BITMAP
0048
7748
1148
1148
2278
4248
C448
0848
0000
1FF8
0008
0008
0008
0008
0008
ENDCHAR
STARTCHAR char0x317C
ENCODING 12668
SWIDTH 1333 0
DWIDTH 16 0
BBX 13 14 1 -1
BITMAP
0048
7748
1148
1148
2148
2278
4248
C448
0848
0048
1000
1000
1000
1FF8
ENDCHAR
STARTCHAR char0x317D
ENCODING 12669
SWIDTH 1333 0
DWIDTH 16 0
BBX 13 14 1 -1
BITMAP
0048
7748
1148
1148
2378
4248
8448
0C48
0000
1FF8
0008
1FF8
1000
1FF8
ENDCHAR
STARTCHAR char0x317E
ENCODING 12670
SWIDTH 1333 0
DWIDTH 16 0
BBX 13 14 1 -1
BITMAP
0048
7748
1148
1148
2278
4248
C448
0848
0000
1FF8
1008
1008
1008
1FF8
ENDCHAR
STARTCHAR char0x3221
ENCODING 12833
SWIDTH 1333 0
DWIDTH 16 0
BBX 13 14 1 -1
BITMAP
0048
7748
1148
2148
6278
C648
0C48
0000
1008
1008
1FF8
1008
1008
1FF8
ENDCHAR
STARTCHAR char0x3222
ENCODING 12834
SWIDTH 1333 0
DWIDTH 16 0
BBX 14 15 1 -2
BITMAP
0048
7E48
1248
1248
2248
2478
4448
C448
0848
0108
0100
0380
0640
0C30
300C
ENDCHAR
STARTCHAR char0x3223
ENCODING 12835
SWIDTH 1333 0
DWIDTH 16 0
BBX 14 15 1 -2
BITMAP
0048
7E48
1248
1248
2278
4448
8448
0848
0048
0828
0820
0C20
1A50
33C8
618C
ENDCHAR
STARTCHAR char0x3224
ENCODING 12836
SWIDTH 1333 0
DWIDTH 16 0
BBX 13 14 1 -1
BITMAP
0048
7E48
1248
2248
2278
4448
8448
0848
0008
07E0
1818
1008
1818
07E0
ENDCHAR
STARTCHAR char0x3225
ENCODING 12837
SWIDTH 1333 0
DWIDTH 16 0
BBX 14 15 1 -2
BITMAP
0010
7710
1110
1110
111C
2110
2210
2210
4210
841C
0410
0810
0010
0010
0010
ENDCHAR
STARTCHAR char0x3226
ENCODING 12838
SWIDTH 1333 0
DWIDTH 16 0
BBX 14 15 1 -2
BITMAP
0010
7790
109C
1090
2110
411C
8610
0C10
0000
3FF0
0010
0010
0010
0010
0010
ENDCHAR
STARTCHAR char0x3227
ENCODING 12839
SWIDTH 1333 0
DWIDTH 16 0
BBX 14 14 1 -1
BITMAP
0010
7790
109C
2110
6110
C21C
0C10
0000
3FF0
0010
3FF0
2000
2000
3FF0
ENDCHAR
STARTCHAR char0x3228
ENCODING 12840
SWIDTH 1333 0
DWIDTH 16 0
BBX 12 15 1 -2
BITMAP
0010
7790
1090
1090
1090
1110
21F0
2110
4210
4210
8410
0C10
0010
0010
0010
ENDCHAR
STARTCHAR char0x3229
ENCODING 12841
SWIDTH 1333 0
DWIDTH 16 0
BBX 12 15 1 -2
BITMAP
0010
7710
1110
1210
23F0
4310
8610
0C10
0000
3FF0
0010
0010
0010
0010
0010
ENDCHAR
STARTCHAR char0x322A
ENCODING 12842
SWIDTH 1333 0
DWIDTH 16 0
BBX 12 15 1 -2
BITMAP
0010
7710
1110
1210
23F0
4210
8610
0C10
0000
3EF0
0210
0210
0210
0210
0210
ENDCHAR
STARTCHAR char0x322B
ENCODING 12843
SWIDTH 1333 0
DWIDTH 16 0
BBX 12 14 1 -1
BITMAP
0010
7710
1110
1210
21F0
2210
4210
8410
0810
0010
1000
1000
1000
1FF0
ENDCHAR
STARTCHAR char0x322C
ENCODING 12844
SWIDTH 1333 0
DWIDTH 16 0
BBX 12 14 1 -1
BITMAP
0010
7710
1210
11F0
2210
4610
8C10
0000
1FF0
0010
1FF0
1000
1000
1FF0
ENDCHAR
STARTCHAR char0x322D
ENCODING 12845
SWIDTH 1333 0
DWIDTH 16 0
BBX 12 14 1 -1
BITMAP
0010
7710
1110
1210
23F0
4210
8610
0C10
0000
1FF0
1010
1010
1010
1FF0
ENDCHAR
STARTCHAR char0x322E
ENCODING 12846
SWIDTH 1333 0
DWIDTH 16 0
BBX 12 14 1 -1
BITMAP
0010
7710
1210
11F0
2310
4210
8410
0C00
1010
1010
1FF0
1010
1010
1FF0
ENDCHAR
STARTCHAR char0x322F
ENCODING 12847
SWIDTH 1333 0
DWIDTH 16 0
BBX 14 15 1 -2
BITMAP
0010
7790
1090
1110
21F0
2210
4210
8410
0810
0110
0100
0380
0640
0C30
300C
ENDCHAR
STARTCHAR char0x3230
ENCODING 12848
SWIDTH 1333 0
DWIDTH 16 0
BBX 14 15 1 -2
BITMAP
0010
7790
1090
1110
21F0
2110
4210
8410
0810
0000
0820
0820
1C50
33C8
618C
ENDCHAR
STARTCHAR char0x3231
ENCODING 12849
SWIDTH 1333 0
DWIDTH 16 0
BBX 13 14 1 -1
BITMAP
0008
7788
1088
1108
21F8
4108
8308
0608
0008
07E0
1818
1008
1818
07E0
ENDCHAR
STARTCHAR char0x3232
ENCODING 12850
SWIDTH 1333 0
DWIDTH 16 0
BBX 13 15 1 -2
BITMAP
0048
7748
1148
1148
1248
11C8
2248
2248
6248
4448
8448
0848
0048
0048
0048
ENDCHAR
STARTCHAR char0x3233
ENCODING 12851
SWIDTH 1333 0
DWIDTH 16 0
BBX 13 15 1 -2
BITMAP
0048
7748
1148
1248
23C8
4248
C448
0848
0000
1FF8
0008
0008
0008
0008
0008
ENDCHAR
STARTCHAR char0x3234
ENCODING 12852
SWIDTH 1333 0
DWIDTH 16 0
BBX 13 14 1 -1
BITMAP
0048
7748
1148
1248
21C8
2248
4448
8448
0848
0048
1000
1000
1000
1FF8
ENDCHAR
STARTCHAR char0x3235
ENCODING 12853
SWIDTH 1333 0
DWIDTH 16 0
BBX 13 14 1 -1
BITMAP
0048
7748
1148
1248
23C8
4248
C448
0848
0000
1FF8
1008
1008
1008
1FF8
ENDCHAR
STARTCHAR char0x3236
ENCODING 12854
SWIDTH 1333 0
DWIDTH 16 0
BBX 14 15 1 -2
BITMAP
0048
7748
1148
1248
21C8
2248
4448
8448
0848
0108
0100
0380
0640
0C30
300C
ENDCHAR
STARTCHAR char0x3237
ENCODING 12855
SWIDTH 1333 0
DWIDTH 16 0
BBX 13 14 1 -1
BITMAP
0048
7748
1148
1248
23C8
4248
8448
0848
0000
07E0
1818
1008
1818
07E0
ENDCHAR
STARTCHAR char0x3238
ENCODING 12856
SWIDTH 1333 0
DWIDTH 16 0
BBX 12 15 1 -2
BITMAP
0010
7710
1110
11F0
1110
1110
2310
23F0
4210
4610
8410
0810
0010
0010
0010
ENDCHAR
STARTCHAR char0x3239
ENCODING 12857
SWIDTH 1333 0
DWIDTH 16 0
BBX 12 14 1 -1
BITMAP
0010
7790
10F0
1110
2110
21F0
4210
8410
0C10
0010
1000
1000
1000
1FF0
ENDCHAR
STARTCHAR char0x323A
ENCODING 12858
SWIDTH 1333 0
DWIDTH 16 0
BBX 12 14 1 -1
BITMAP
0010
7790
10F0
1110
2110
42F0
8610
0C10
0000
1FF0
0010
1FF0
1000
1FF0
ENDCHAR
STARTCHAR char0x323B
ENCODING 12859
SWIDTH 1333 0
DWIDTH 16 0
BBX 14 15 1 -2
BITMAP
0008
7788
1088
10F8
2188
2108
43F8
8608
0C08
0008
0108
0100
02C0
0C20
301C
ENDCHAR
STARTCHAR char0x323C
ENCODING 12860
SWIDTH 1333 0
DWIDTH 16 0
BBX 14 15 1 -2
BITMAP
0010
7790
1090
10F0
2110
4110
82F0
0610
0C10
0000
0820
0820
1E50
33D8
618C
ENDCHAR
STARTCHAR char0x323D
ENCODING 12861
SWIDTH 1333 0
DWIDTH 16 0
BBX 11 13 1 -1
BITMAP
77A0
10E0
1120
2120
42E0
8620
0C00
0000
1FE0
1000
1FE0
1000
1FE0
ENDCHAR
STARTCHAR char0x323E
ENCODING 12862
SWIDTH 1333 0
DWIDTH 16 0
BBX 13 15 1 -2
BITMAP
0048
7748
1148
11C8
1248
1248
2248
22C8
6248
4448
8448
0848
0048
0048
0048
ENDCHAR
STARTCHAR char0x323F
ENCODING 12863
SWIDTH 1333 0
DWIDTH 16 0
BBX 14 11 1 1
BITMAP
7DF0
0410
0410
0410
0410
0510
0910
0910
0100
0100
FFFC
ENDCHAR
STARTCHAR char0x3240
ENCODING 12864
SWIDTH 1333 0
DWIDTH 16 0
BBX 14 15 1 -2
BITMAP
3DE0
0420
0420
0420
0D20
0920
0100
FFFC
0000
3FE0
0020
0020
0020
0020
0020
ENDCHAR
STARTCHAR char0x3241
ENCODING 12865
SWIDTH 1333 0
DWIDTH 16 0
BBX 14 14 1 -1
BITMAP
3DF0
0410
0410
0510
0910
0100
0100
FFFC
0000
2000
2000
2000
2000
3FF0
ENDCHAR
STARTCHAR char0x3242
ENCODING 12866
SWIDTH 1333 0
DWIDTH 16 0
BBX 14 14 1 -1
BITMAP
3DF0
0410
0410
0510
0910
0100
FFFC
0000
0040
21F8
2000
21F0
2110
3EE0
ENDCHAR
STARTCHAR char0x3243
ENCODING 12867
SWIDTH 1333 0
DWIDTH 16 0
BBX 14 14 1 -1
BITMAP
3DF0
0410
0410
0510
0910
0100
FFFC
0000
3FF0
0010
3FF0
2000
2000
3FF0
ENDCHAR
STARTCHAR char0x3244
ENCODING 12868
SWIDTH 1333 0
DWIDTH 16 0
BBX 14 14 1 -1
BITMAP
3DF0
0410
0410
0510
0910
0100
FFFC
0000
0000
3FF0
2010
2010
2010
3FF0
ENDCHAR
STARTCHAR char0x3245
ENCODING 12869
SWIDTH 1333 0
DWIDTH 16 0
BBX 14 14 1 -1
BITMAP
3DF0
0410
0410
0510
0910
0100
FFFC
0000
2010
2010
3FF0
2010
2010
3FF0
ENDCHAR
STARTCHAR char0x3246
ENCODING 12870
SWIDTH 1333 0
DWIDTH 16 0
BBX 14 15 1 -2
BITMAP
3DF0
0410
0410
0510
0D10
0910
0100
FFFC
0000
0200
0200
0700
0C80
1860
6018
ENDCHAR
STARTCHAR char0x3247
ENCODING 12871
SWIDTH 1333 0
DWIDTH 16 0
BBX 14 15 1 -2
BITMAP
3DF0
0410
0410
0510
0910
0100
FFFC
0000
0000
0FC0
1020
2010
2010
1020
0FC0
ENDCHAR
STARTCHAR char0x3248
ENCODING 12872
SWIDTH 1333 0
DWIDTH 16 0
BBX 14 15 1 -2
BITMAP
3DF0
0410
0410
0610
0A10
0200
FFFC
0000
0000
3FF0
0200
0700
0480
1860
6018
ENDCHAR
STARTCHAR char0x3249
ENCODING 12873
SWIDTH 1333 0
DWIDTH 16 0
BBX 14 15 1 -2
BITMAP
3DF0
0410
0410
0510
0910
0100
FFFC
0000
0200
3FF0
0300
0700
0C80
1860
6018
ENDCHAR
STARTCHAR char0x324A
ENCODING 12874
SWIDTH 1333 0
DWIDTH 16 0
BBX 14 15 1 -2
BITMAP
0010
7790
1090
1090
1090
1490
249C
2490
0410
0410
0410
FFD0
0010
0010
0010
ENDCHAR
STARTCHAR char0x324B
ENCODING 12875
SWIDTH 1333 0
DWIDTH 16 0
BBX 14 15 1 -2
BITMAP
0010
7790
1090
1090
149C
2490
0410
FFD0
0010
0000
3FF0
0010
0010
0010
0010
ENDCHAR
STARTCHAR char0x324C
ENCODING 12876
SWIDTH 1333 0
DWIDTH 16 0
BBX 14 14 1 -1
BITMAP
0010
7790
1090
1490
349C
0410
FFD0
0000
3FF0
0010
3FF0
2000
2000
3FF0
ENDCHAR
STARTCHAR char0x324D
ENCODING 12877
SWIDTH 1333 0
DWIDTH 16 0
BBX 14 15 1 -2
BITMAP
0010
7790
1090
1090
149C
2490
0410
FFD0
0010
0840
0840
0840
14E0
3798
630C
ENDCHAR
STARTCHAR char0x324E
ENCODING 12878
SWIDTH 1333 0
DWIDTH 16 0
BBX 14 14 1 -1
BITMAP
0010
7790
1090
1090
149C
2490
0410
FFD0
0010
0FC0
3030
2010
3030
0FC0
ENDCHAR
STARTCHAR char0x324F
ENCODING 12879
SWIDTH 1333 0
DWIDTH 16 0
BBX 13 15 1 -2
BITMAP
0048
6F48
2148
2148
2148
2948
4978
4948
0848
0848
FFC8
0048
0048
0048
0048
ENDCHAR
STARTCHAR char0x3250
ENCODING 12880
SWIDTH 1333 0
DWIDTH 16 0
BBX 12 15 1 -2
BITMAP
0050
6E50
2250
2250
2A70
4A50
0850
FF50
0050
0000
1FF0
0010
0010
0010
0010
ENDCHAR
STARTCHAR char0x3251
ENCODING 12881
SWIDTH 1333 0
DWIDTH 16 0
BBX 13 14 1 -1
BITMAP
0048
6F48
2148
2148
2978
4948
0848
FF48
0000
07E0
1818
1008
1818
07E0
ENDCHAR
STARTCHAR char0x3252
ENCODING 12882
SWIDTH 1333 0
DWIDTH 16 0
BBX 12 15 1 -2
BITMAP
0010
7790
1090
1090
1090
1090
1490
2490
2490
0410
0410
FFD0
0010
0010
0010
ENDCHAR
STARTCHAR char0x3253
ENCODING 12883
SWIDTH 1333 0
DWIDTH 16 0
BBX 12 14 1 -1
BITMAP
0010
7790
1090
1090
1490
2490
0410
FFD0
0010
0010
1010
1000
1000
1FF0
ENDCHAR
STARTCHAR char0x3254
ENCODING 12884
SWIDTH 1333 0
DWIDTH 16 0
BBX 12 14 1 -1
BITMAP
7790
1090
1090
1490
2490
0410
FFD0
0000
3FF0
0010
3FF0
2000
2000
3FF0
ENDCHAR
STARTCHAR char0x3255
ENCODING 12885
SWIDTH 1333 0
DWIDTH 16 0
BBX 12 14 1 -1
BITMAP
0010
7790
1090
1090
1490
1490
0410
FFD0
0000
3FF0
2010
2010
2010
3FF0
ENDCHAR
STARTCHAR char0x3256
ENCODING 12886
SWIDTH 1333 0
DWIDTH 16 0
BBX 12 14 1 -1
BITMAP
0010
7790
1090
1490
1490
0410
FFD0
0000
2010
2010
3FF0
2010
2010
3FF0
ENDCHAR
STARTCHAR char0x3257
ENCODING 12887
SWIDTH 1333 0
DWIDTH 16 0
BBX 12 14 1 -1
BITMAP
0010
7790
1090
1090
1490
2490
0410
FFD0
0010
0FC0
3030
2010
3030
0FC0
ENDCHAR
STARTCHAR char0x3258
ENCODING 12888
SWIDTH 1333 0
DWIDTH 16 0
BBX 14 11 1 1
BITMAP
79F0
0810
0810
0810
0810
0A90
1290
1290
0280
0280
FFFC
ENDCHAR
STARTCHAR char0x3259
ENCODING 12889
SWIDTH 1333 0
DWIDTH 16 0
BBX 14 15 1 -2
BITMAP
7DF0
0410
0410
0410
0410
0410
0410
FFFC
0200
0200
0200
0200
0200
0200
0200
ENDCHAR
STARTCHAR char0x325A
ENCODING 12890
SWIDTH 1333 0
DWIDTH 16 0
BBX 14 15 1 -2
BITMAP
3DF0
0410
0410
0410
0810
FFFC
0200
0200
0200
3FF0
0010
0010
0010
0010
0010
ENDCHAR
STARTCHAR char0x325B
ENCODING 12891
SWIDTH 1333 0
DWIDTH 16 0
BBX 14 14 1 -1
BITMAP
3DF0
0410
0410
0410
0810
0820
FFFC
0100
0100
2100
2100
2000
2000
3FF0
ENDCHAR
STARTCHAR char0x325C
ENCODING 12892
SWIDTH 1333 0
DWIDTH 16 0
BBX 14 14 1 -1
BITMAP
7DF0
0410
0410
0410
0820
FFFC
0200
0200
3FF0
0010
3FF0
2000
2000
3FF0
ENDCHAR
STARTCHAR char0x325D
ENCODING 12893
SWIDTH 1333 0
DWIDTH 16 0
BBX 14 14 1 -1
BITMAP
3DF0
0410
0410
0410
0820
FFFC
0200
0240
3C40
05F8
3C00
21E0
2110
3EE0
ENDCHAR
STARTCHAR char0x325E
ENCODING 12894
SWIDTH 1333 0
DWIDTH 16 0
BBX 14 14 1 -1
BITMAP
7DF0
0410
0410
0410
0810
FFFC
0200
0200
0200
3FF0
2010
2010
2010
3FF0
ENDCHAR
STARTCHAR char0x325F
ENCODING 12895
SWIDTH 1333 0
DWIDTH 16 0
BBX 14 14 1 -1
BITMAP
3DF0
0410
0410
0410
0810
FFFC
0200
0200
2210
2010
3FF0
2010
2010
3FF0
ENDCHAR
STARTCHAR char0x3260
ENCODING 12896
SWIDTH 1333 0
DWIDTH 16 0
BBX 14 15 1 -2
BITMAP
3FF0
0410
0410
0410
0810
0820
FFFC
0200
0200
0000
0200
0200
0700
18C0
6038
ENDCHAR
STARTCHAR char0x3261
ENCODING 12897
SWIDTH 1333 0
DWIDTH 16 0
BBX 14 14 1 -1
BITMAP
3DF0
0410
0410
0420
0820
FFFC
0200
0200
0200
0FC0
3030
2010
3030
0FC0
ENDCHAR
STARTCHAR char0x3262
ENCODING 12898
SWIDTH 1333 0
DWIDTH 16 0
BBX 14 15 1 -2
BITMAP
3DF0
0410
0410
0410
0820
FFFC
0200
0200
0000
3FF0
0200
0700
0C80
1860
6018
ENDCHAR
STARTCHAR char0x3263
ENCODING 12899
SWIDTH 1333 0
DWIDTH 16 0
BBX 13 15 1 -2
BITMAP
0008
7788
1088
1088
1088
1088
FFE8
0408
0408
04F8
0408
0408
0408
0408
0008
ENDCHAR
STARTCHAR char0x3264
ENCODING 12900
SWIDTH 1333 0
DWIDTH 16 0
BBX 12 14 1 -1
BITMAP
7710
1110
1110
1110
FFD0
0810
08F0
0810
0000
3FF0
0010
3FF0
2000
3FF0
ENDCHAR
STARTCHAR char0x3265
ENCODING 12901
SWIDTH 1333 0
DWIDTH 16 0
BBX 13 15 1 -2
BITMAP
0010
7710
1110
1110
1110
FFD0
0810
08F0
0810
0840
0840
0840
14A0
37B0
6318
ENDCHAR
STARTCHAR char0x3266
ENCODING 12902
SWIDTH 1333 0
DWIDTH 16 0
BBX 13 14 1 -1
BITMAP
0008
7788
1088
1088
1088
FFE8
0808
08F8
0808
07E0
1818
1008
1818
07E0
ENDCHAR
STARTCHAR char0x3267
ENCODING 12903
SWIDTH 1333 0
DWIDTH 16 0
BBX 13 15 1 -2
BITMAP
0028
7628
1228
1228
1228
2228
FFA8
0828
0828
0BE8
0828
0828
0828
0828
0028
ENDCHAR
STARTCHAR char0x3268
ENCODING 12904
SWIDTH 1333 0
DWIDTH 16 0
BBX 13 15 1 -2
BITMAP
0048
7748
1148
1148
1148
FFC8
0848
09C8
0848
0000
1FF8
0008
0008
0008
0008
ENDCHAR
STARTCHAR char0x3269
ENCODING 12905
SWIDTH 1333 0
DWIDTH 16 0
BBX 13 14 1 -1
BITMAP
0048
7F48
1148
1148
1148
2248
FE48
0848
09C8
0848
1048
1000
1000
1FF8
ENDCHAR
STARTCHAR char0x326A
ENCODING 12906
SWIDTH 1333 0
DWIDTH 16 0
BBX 13 14 1 -1
BITMAP
0048
7748
1148
2248
FFC8
0848
09C8
0848
0000
1FF8
0008
1FF8
1000
1FF8
ENDCHAR
STARTCHAR char0x326B
ENCODING 12907
SWIDTH 1333 0
DWIDTH 16 0
BBX 13 14 1 -1
BITMAP
0048
7748
1148
1148
2248
FFC8
0848
09C8
0848
0000
1FF8
1008
1008
1FF8
ENDCHAR
STARTCHAR char0x326C
ENCODING 12908
SWIDTH 1333 0
DWIDTH 16 0
BBX 13 14 1 -1
BITMAP
0048
7748
1148
2248
FFC8
0848
09C8
0848
0000
1008
1008
1FF8
1008
1FF8
ENDCHAR
STARTCHAR char0x326D
ENCODING 12909
SWIDTH 1333 0
DWIDTH 16 0
BBX 14 15 1 -2
BITMAP
0048
7E48
1248
1248
2248
FF48
1048
13C8
1048
0000
0820
0820
1E70
33D8
618C
ENDCHAR
STARTCHAR char0x326E
ENCODING 12910
SWIDTH 1333 0
DWIDTH 16 0
BBX 13 15 1 -2
BITMAP
0008
7788
1088
1088
1088
1088
1088
FFE8
0408
0408
0408
0408
0408
0408
0008
ENDCHAR
STARTCHAR char0x326F
ENCODING 12911
SWIDTH 1333 0
DWIDTH 16 0
BBX 12 14 1 -1
BITMAP
0010
7710
1110
1110
1110
1110
FFD0
0410
0410
0410
2410
2000
2000
3FF0
ENDCHAR
STARTCHAR char0x3270
ENCODING 12912
SWIDTH 1333 0
DWIDTH 16 0
BBX 12 14 1 -1
BITMAP
0010
7710
1110
1110
1110
FFD0
0810
0800
3FF0
0010
3FF0
2000
2000
3FF0
ENDCHAR
STARTCHAR char0x3271
ENCODING 12913
SWIDTH 1333 0
DWIDTH 16 0
BBX 12 14 1 -1
BITMAP
0010
7710
1110
1110
1110
FFD0
0810
0810
0800
1FF0
1010
1010
1010
1FF0
ENDCHAR
STARTCHAR char0x3272
ENCODING 12914
SWIDTH 1333 0
DWIDTH 16 0
BBX 12 14 1 -1
BITMAP
0010
7710
1110
1110
1110
FFD0
0410
0400
1410
1010
1FF0
1010
1010
1FF0
ENDCHAR
STARTCHAR char0x3273
ENCODING 12915
SWIDTH 1333 0
DWIDTH 16 0
BBX 14 15 1 -2
BITMAP
7DF0
0410
0410
0410
0410
0420
0420
FFFC
0840
0840
0840
0840
0840
0840
0840
ENDCHAR
STARTCHAR char0x3274
ENCODING 12916
SWIDTH 1333 0
DWIDTH 16 0
BBX 14 11 1 1
BITMAP
7DF0
0410
0410
0410
0410
0410
0410
0410
0810
0810
FFFC
ENDCHAR
STARTCHAR char0x3275
ENCODING 12917
SWIDTH 1333 0
DWIDTH 16 0
BBX 14 15 1 -2
BITMAP
3DE0
0420
0420
0420
0820
0820
FFFC
0000
0000
3FE0
0020
0020
0020
0020
0020
ENDCHAR
STARTCHAR char0x3276
ENCODING 12918
SWIDTH 1333 0
DWIDTH 16 0
BBX 14 14 1 -1
BITMAP
3DF0
0410
0410
0410
0810
0820
FFFC
0000
0000
2000
2000
2000
2000
3FF0
ENDCHAR
STARTCHAR char0x3277
ENCODING 12919
SWIDTH 1333 0
DWIDTH 16 0
BBX 14 14 1 -1
BITMAP
3DF0
0410
0410
0410
0820
FFFC
0000
0000
2040
21F8
2000
21F0
2110
3EE0
ENDCHAR
STARTCHAR char0x3278
ENCODING 12920
SWIDTH 1333 0
DWIDTH 16 0
BBX 14 14 1 -1
BITMAP
3DF0
0410
0410
0410
0820
FFFC
0000
0000
3FF0
0010
3FF0
2000
2000
3FF0
ENDCHAR
STARTCHAR char0x3279
ENCODING 12921
SWIDTH 1333 0
DWIDTH 16 0
BBX 14 14 1 -1
BITMAP
3DF0
0410
0410
0410
0820
FFFC
0000
0000
3DF0
0510
3D10
2110
2110
3DF0
ENDCHAR
STARTCHAR char0x327A
ENCODING 12922
SWIDTH 1333 0
DWIDTH 16 0
BBX 14 14 1 -1
BITMAP
3DF0
0410
0410
0410
0820
FFFC
0000
0040
3DF8
0400
3CE0
2110
2110
3EE0
ENDCHAR
STARTCHAR char0x327B
ENCODING 12923
SWIDTH 1333 0
DWIDTH 16 0
BBX 14 14 1 -1
BITMAP
3DF0
0410
0410
0410
0810
0810
FFFC
0000
0000
3FF0
2010
2010
2010
3FF0
ENDCHAR
STARTCHAR char0x327C
ENCODING 12924
SWIDTH 1333 0
DWIDTH 16 0
BBX 14 14 1 -1
BITMAP
3DE0
0420
0420
0420
0820
0820
FFFC
0000
2020
2020
3FE0
2020
2020
3FE0
ENDCHAR
STARTCHAR char0x327D
ENCODING 12925
SWIDTH 1333 0
DWIDTH 16 0
BBX 14 15 1 -2
BITMAP
3FF0
0410
0410
0410
0810
0820
FFFC
0000
0000
0200
0200
0700
0980
10E0
6038
ENDCHAR
STARTCHAR char0x327E
ENCODING 12926
SWIDTH 1333 0
DWIDTH 16 0
BBX 14 14 1 -1
BITMAP
3DF0
0410
0410
0420
0420
0420
FFFC
0000
0000
0FC0
3030
2010
3030
0FC0
ENDCHAR
STARTCHAR char0x3321
ENCODING 13089
SWIDTH 1333 0
DWIDTH 16 0
BBX 14 14 1 -1
BITMAP
3DF0
0410
0410
0410
0820
FFFC
0000
0000
3FF0
2000
3FF0
2000
2000
3FF0
ENDCHAR
STARTCHAR char0x3322
ENCODING 13090
SWIDTH 1333 0
DWIDTH 16 0
BBX 12 15 1 -2
BITMAP
0010
7790
1090
1090
1090
2090
2110
2110
4310
8210
0410
0C10
0010
0010
0010
ENDCHAR
STARTCHAR char0x3323
ENCODING 13091
SWIDTH 1333 0
DWIDTH 16 0
BBX 11 15 2 -2
BITMAP
0020
7720
1120
1120
2220
4220
8420
0820
0000
3FE0
0020
0020
0020
0020
0020
ENDCHAR
STARTCHAR char0x3324
ENCODING 13092
SWIDTH 1333 0
DWIDTH 16 0
BBX 12 14 1 -1
BITMAP
0010
7790
1090
1090
2110
2110
4210
8610
0C10
0010
1010
1000
1000
1FF0
ENDCHAR
STARTCHAR char0x3325
ENCODING 13093
SWIDTH 1333 0
DWIDTH 16 0
BBX 11 14 2 -1
BITMAP
0020
7720
1120
2120
6220
C420
0820
0000
1FE0
0020
1FE0
1000
1000
1FE0
ENDCHAR
STARTCHAR char0x3326
ENCODING 13094
SWIDTH 1333 0
DWIDTH 16 0
BBX 11 14 2 -1
BITMAP
0020
7720
1120
1120
2220
4220
8420
0820
0000
3FE0
2020
2020
2020
3FE0
ENDCHAR
STARTCHAR char0x3327
ENCODING 13095
SWIDTH 1333 0
DWIDTH 16 0
BBX 11 14 2 -1
BITMAP
0020
7720
1120
1120
2220
4220
8420
0800
2020
2020
3FE0
2020
2020
3FE0
ENDCHAR
STARTCHAR char0x3328
ENCODING 13096
SWIDTH 1333 0
DWIDTH 16 0
BBX 14 15 1 -2
BITMAP
0010
7790
1090
1090
2110
2110
4210
8610
0C10
0110
0100
0380
0640
0C30
300C
ENDCHAR
STARTCHAR char0x3329
ENCODING 13097
SWIDTH 1333 0
DWIDTH 16 0
BBX 12 14 2 -1
BITMAP
0010
7710
1110
1110
2210
4210
8410
0810
0010
0FC0
3030
2010
3030
0FC0
ENDCHAR
STARTCHAR char0x332A
ENCODING 13098
SWIDTH 1333 0
DWIDTH 16 0
BBX 13 15 2 -2
BITMAP
0040
8040
8040
8040
8040
8040
8078
8040
8040
FF40
0040
0040
0040
0040
0040
ENDCHAR
STARTCHAR char0x332B
ENCODING 13099
SWIDTH 1333 0
DWIDTH 16 0
BBX 13 15 2 -2
BITMAP
0020
8020
8020
8020
8038
8020
FFA0
0020
0000
7FE0
0020
0020
0020
0020
0020
ENDCHAR
STARTCHAR char0x332C
ENCODING 13100
SWIDTH 1333 0
DWIDTH 16 0
BBX 13 15 2 -2
BITMAP
0020
8020
8020
8020
8038
8020
FFA0
0020
0000
7BE0
0820
0820
0820
0820
0820
ENDCHAR
STARTCHAR char0x332D
ENCODING 13101
SWIDTH 1333 0
DWIDTH 16 0
BBX 13 14 2 -1
BITMAP
0040
8040
8040
8040
8040
8078
8040
FF40
0040
4040
4040
4000
4000
7FE0
ENDCHAR
STARTCHAR char0x332E
ENCODING 13102
SWIDTH 1333 0
DWIDTH 16 0
BBX 13 13 2 -1
BITMAP
8080
8080
8078
8080
8080
FF80
0000
0000
7F80
4000
4000
4000
7F80
ENDCHAR
STARTCHAR char0x332F
ENCODING 13103
SWIDTH 1333 0
DWIDTH 16 0
BBX 13 14 2 -1
BITMAP
0020
8020
8020
8038
8020
8020
FFA0
0000
7FE0
0020
7FE0
4000
4000
7FE0
ENDCHAR
STARTCHAR char0x3330
ENCODING 13104
SWIDTH 1333 0
DWIDTH 16 0
BBX 13 14 2 -1
BITMAP
0020
8020
8020
8038
8020
8020
FFA0
0000
7BE0
0820
7820
4020
4020
7C20
ENDCHAR
STARTCHAR char0x3331
ENCODING 13105
SWIDTH 1333 0
DWIDTH 16 0
BBX 13 14 2 -1
BITMAP
0020
8020
8020
8038
8020
8020
FFA0
0000
7BE0
0A20
7A20
4220
4220
7BE0
ENDCHAR
STARTCHAR char0x3332
ENCODING 13106
SWIDTH 1333 0
DWIDTH 16 0
BBX 13 14 2 -1
BITMAP
0020
8020
8020
8020
8038
8020
FFA0
0020
0000
7FE0
4020
4020
4020
7FE0
ENDCHAR
STARTCHAR char0x3333
ENCODING 13107
SWIDTH 1333 0
DWIDTH 16 0
BBX 13 14 2 -1
BITMAP
0020
8020
8020
8020
8038
8020
FFA0
0000
4020
4020
7FE0
4020
4020
7FE0
ENDCHAR
STARTCHAR char0x3334
ENCODING 13108
SWIDTH 1333 0
DWIDTH 16 0
BBX 13 15 2 -2
BITMAP
0020
8020
8020
8020
8038
8020
8020
FFA0
0020
0220
0600
0700
0980
30C0
C030
ENDCHAR
STARTCHAR char0x3335
ENCODING 13109
SWIDTH 1333 0
DWIDTH 16 0
BBX 13 15 2 -2
BITMAP
0020
8020
8020
8020
8038
8020
8020
FFA0
0000
1080
1080
10C0
29C0
4720
8618
ENDCHAR
STARTCHAR char0x3336
ENCODING 13110
SWIDTH 1333 0
DWIDTH 16 0
BBX 13 14 2 -1
BITMAP
0020
8020
8020
8020
8038
8020
FFA0
0020
0020
1F80
6060
4020
6060
1F80
ENDCHAR
STARTCHAR char0x3337
ENCODING 13111
SWIDTH 1333 0
DWIDTH 16 0
BBX 13 14 2 -2
BITMAP
8040
8040
8040
8038
8040
FFC0
0000
0000
FFC0
0400
0A00
1B00
3180
C060
ENDCHAR
STARTCHAR char0x3338
ENCODING 13112
SWIDTH 1333 0
DWIDTH 16 0
BBX 13 15 2 -2
BITMAP
0020
8020
8020
8020
8038
8020
FFA0
0020
0400
7FE0
0400
0E00
1900
30C0
C030
ENDCHAR
STARTCHAR char0x3339
ENCODING 13113
SWIDTH 1333 0
DWIDTH 16 0
BBX 13 13 2 -1
BITMAP
8040
8040
8038
8040
8040
FFC0
0000
0000
7FC0
4000
7FC0
4000
7FC0
ENDCHAR
STARTCHAR char0x333A
ENCODING 13114
SWIDTH 1333 0
DWIDTH 16 0
BBX 13 14 2 -1
BITMAP
0020
8020
8020
8038
8020
8020
FFA0
0020
0400
FFE0
0000
3F80
4040
3F80
ENDCHAR
STARTCHAR char0x333B
ENCODING 13115
SWIDTH 1333 0
DWIDTH 16 0
BBX 12 15 2 -2
BITMAP
0090
8090
8090
8090
8090
8090
8090
80F0
8090
8090
FE90
0090
0090
0090
0090
ENDCHAR
STARTCHAR char0x333C
ENCODING 13116
SWIDTH 1333 0
DWIDTH 16 0
BBX 11 15 2 -2
BITMAP
0120
8120
8120
8120
81E0
8120
FD20
0120
0000
7FE0
0020
0020
0020
0020
0020
ENDCHAR
STARTCHAR char0x333D
ENCODING 13117
SWIDTH 1333 0
DWIDTH 16 0
BBX 11 14 2 -1
BITMAP
0120
8120
8120
8120
8120
81E0
8120
FD20
0120
2120
2000
2000
2000
3FE0
ENDCHAR
STARTCHAR char0x333E
ENCODING 13118
SWIDTH 1333 0
DWIDTH 16 0
BBX 11 14 2 -1
BITMAP
0120
8120
8120
81E0
8120
8120
FD20
0000
3FE0
0020
3FE0
2000
2000
3FE0
ENDCHAR
STARTCHAR char0x333F
ENCODING 13119
SWIDTH 1333 0
DWIDTH 16 0
BBX 12 14 2 -1
BITMAP
0090
8090
8090
8090
80F0
8090
FE90
0090
0000
3FF0
2010
2010
2010
3FF0
ENDCHAR
STARTCHAR char0x3340
ENCODING 13120
SWIDTH 1333 0
DWIDTH 16 0
BBX 12 14 2 -1
BITMAP
0090
8090
8090
8090
80F0
8090
FE90
0000
2010
2010
3FF0
2010
2010
3FF0
ENDCHAR
STARTCHAR char0x3341
ENCODING 13121
SWIDTH 1333 0
DWIDTH 16 0
BBX 12 15 2 -2
BITMAP
0120
8120
8120
8120
8120
81E0
8120
FD20
0120
0220
0200
0700
0980
30C0
C030
ENDCHAR
STARTCHAR char0x3342
ENCODING 13122
SWIDTH 1333 0
DWIDTH 16 0
BBX 13 15 2 -2
BITMAP
0120
8120
8120
8120
81E0
8120
8120
FD20
0000
1040
1040
1840
34A0
6790
C318
ENDCHAR
STARTCHAR char0x3343
ENCODING 13123
SWIDTH 1333 0
DWIDTH 16 0
BBX 12 14 2 -1
BITMAP
0090
8090
8090
8090
80F0
8090
FE90
0090
0000
1FC0
6030
4010
6030
1FC0
ENDCHAR
STARTCHAR char0x3344
ENCODING 13124
SWIDTH 1333 0
DWIDTH 16 0
BBX 13 15 2 -2
BITMAP
0040
8040
8040
8078
8040
8040
8040
8040
8078
8040
FF40
0040
0040
0040
0040
ENDCHAR
STARTCHAR char0x3345
ENCODING 13125
SWIDTH 1333 0
DWIDTH 16 0
BBX 13 15 2 -2
BITMAP
0020
8020
8038
8020
8020
8038
FF20
0020
0000
7FE0
0020
0020
0020
0020
0020
ENDCHAR
STARTCHAR char0x3346
ENCODING 13126
SWIDTH 1333 0
DWIDTH 16 0
BBX 13 14 2 -1
BITMAP
0020
8020
8038
8020
8020
8020
8038
FF20
0020
4020
4020
4000
4000
7FE0
ENDCHAR
STARTCHAR char0x3347
ENCODING 13127
SWIDTH 1333 0
DWIDTH 16 0
BBX 13 14 2 -1
BITMAP
0020
8020
8038
8020
8020
8038
FF20
0000
7FE0
0020
7FE0
4000
4000
7FE0
ENDCHAR
STARTCHAR char0x3348
ENCODING 13128
SWIDTH 1333 0
DWIDTH 16 0
BBX 13 14 2 -1
BITMAP
0020
8020
8038
8020
8020
8038
FF20
0020
0000
7FE0
4020
4020
4020
7FE0
ENDCHAR
STARTCHAR char0x3349
ENCODING 13129
SWIDTH 1333 0
DWIDTH 16 0
BBX 13 14 2 -1
BITMAP
0020
8020
8038
8020
8020
8038
FF20
0020
0020
1F80
6060
4020
6060
1F80
ENDCHAR
STARTCHAR char0x334A
ENCODING 13130
SWIDTH 1333 0
DWIDTH 16 0
BBX 11 15 2 -2
BITMAP
0020
8020
8020
8020
8020
87E0
8020
8020
8020
8020
FF20
0020
0020
0020
0020
ENDCHAR
STARTCHAR char0x334B
ENCODING 13131
SWIDTH 1333 0
DWIDTH 16 0
BBX 10 15 3 -2
BITMAP
0040
8040
8040
87C0
8040
8040
FF40
0040
0000
7FC0
0040
0040
0040
0040
0040
ENDCHAR
STARTCHAR char0x334C
ENCODING 13132
SWIDTH 1333 0
DWIDTH 16 0
BBX 12 14 3 -1
BITMAP
0040
8040
8040
87C0
8040
8040
FF40
0040
0000
7880
0880
08C0
0920
0A10
ENDCHAR
STARTCHAR char0x334D
ENCODING 13133
SWIDTH 1333 0
DWIDTH 16 0
BBX 11 14 3 -1
BITMAP
0040
8040
8040
87C0
8040
8040
8040
FF40
0040
0040
4040
4000
4000
7FE0
ENDCHAR
STARTCHAR char0x334E
ENCODING 13134
SWIDTH 1333 0
DWIDTH 16 0
BBX 10 14 3 -1
BITMAP
0040
8040
8040
87C0
8040
8040
FF40
0000
7FC0
0040
7FC0
4000
4000
7FC0
ENDCHAR
STARTCHAR char0x334F
ENCODING 13135
SWIDTH 1333 0
DWIDTH 16 0
BBX 10 14 3 -1
BITMAP
0040
8040
8040
87C0
8040
8040
FF40
0000
7BC0
0A40
7A40
4240
4240
7BC0
ENDCHAR
STARTCHAR char0x3350
ENCODING 13136
SWIDTH 1333 0
DWIDTH 16 0
BBX 10 14 3 -1
BITMAP
0040
8040
8040
87C0
8040
8040
FF40
0000
7A40
0A40
7BC0
4240
4240
7BC0
ENDCHAR
STARTCHAR char0x3351
ENCODING 13137
SWIDTH 1333 0
DWIDTH 16 0
BBX 10 14 3 -1
BITMAP
0040
8040
8040
87C0
8040
8040
FF40
0040
0000
7FC0
4040
4040
4040
7FC0
ENDCHAR
STARTCHAR char0x3352
ENCODING 13138
SWIDTH 1333 0
DWIDTH 16 0
BBX 10 14 3 -1
BITMAP
0040
8040
8040
87C0
8040
8040
FF40
0000
4040
4040
7FC0
4040
4040
7FC0
ENDCHAR
STARTCHAR char0x3353
ENCODING 13139
SWIDTH 1333 0
DWIDTH 16 0
BBX 12 15 3 -2
BITMAP
0040
8040
8040
87C0
8040
8040
8040
FF40
0040
0440
0400
0E00
1900
30C0
C030
ENDCHAR
STARTCHAR char0x3354
ENCODING 13140
SWIDTH 1333 0
DWIDTH 16 0
BBX 12 15 3 -2
BITMAP
0040
8040
8040
87C0
8040
8040
FF40
0040
0000
1080
1080
1080
2940
4720
8630
ENDCHAR
STARTCHAR char0x3355
ENCODING 13141
SWIDTH 1333 0
DWIDTH 16 0
BBX 10 14 3 -1
BITMAP
0040
8040
8040
87C0
8040
8040
FF40
0040
0040
1F00
60C0
4040
60C0
1F00
ENDCHAR
STARTCHAR char0x3356
ENCODING 13142
SWIDTH 1333 0
DWIDTH 16 0
BBX 10 14 3 -1
BITMAP
8000
8080
8780
8080
8080
FF80
0000
0400
7F80
0000
3F80
4040
4040
3F80
ENDCHAR
STARTCHAR char0x3357
ENCODING 13143
SWIDTH 1333 0
DWIDTH 16 0
BBX 12 15 2 -2
BITMAP
0090
8090
8090
8090
8090
8F90
8090
8090
8090
8090
FE90
0090
0090
0090
0090
ENDCHAR
STARTCHAR char0x3358
ENCODING 13144
SWIDTH 1333 0
DWIDTH 16 0
BBX 11 15 2 -2
BITMAP
0120
8120
8120
8F20
8120
8120
FD20
0120
0000
7FE0
0020
0020
0020
0020
0020
ENDCHAR
STARTCHAR char0x3359
ENCODING 13145
SWIDTH 1333 0
DWIDTH 16 0
BBX 12 14 2 -1
BITMAP
0090
8090
8090
8F90
8090
8090
8090
FE90
0090
0090
2000
2000
2000
3FF0
ENDCHAR
STARTCHAR char0x335A
ENCODING 13146
SWIDTH 1333 0
DWIDTH 16 0
BBX 12 14 2 -1
BITMAP
0090
8090
8090
8F90
8090
8090
FE90
0000
3FF0
0010
3FF0
2000
2000
3FF0
ENDCHAR
STARTCHAR char0x335B
ENCODING 13147
SWIDTH 1333 0
DWIDTH 16 0
BBX 12 14 2 -1
BITMAP
0090
8090
8090
8F90
8090
8090
FE90
0090
0000
3FF0
2010
2010
2010
3FF0
ENDCHAR
STARTCHAR char0x335C
ENCODING 13148
SWIDTH 1333 0
DWIDTH 16 0
BBX 12 14 2 -1
BITMAP
0090
8090
8090
8F90
8090
8090
FE90
0000
2010
2010
3FF0
2010
2010
3FF0
ENDCHAR
STARTCHAR char0x335D
ENCODING 13149
SWIDTH 1333 0
DWIDTH 16 0
BBX 13 15 2 -2
BITMAP
0090
8090
8090
8F90
8090
8090
8090
FE90
0090
0210
0200
0700
0D80
3060
E018
ENDCHAR
STARTCHAR char0x335E
ENCODING 13150
SWIDTH 1333 0
DWIDTH 16 0
BBX 13 15 2 -2
BITMAP
00A0
80A0
80A0
8FA0
80A0
80A0
FCA0
00A0
0000
1040
1040
1840
3CA0
67B0
C318
ENDCHAR
STARTCHAR char0x335F
ENCODING 13151
SWIDTH 1333 0
DWIDTH 16 0
BBX 12 14 2 -1
BITMAP
0090
8090
8090
8F90
8090
8090
FE90
0090
0000
1FC0
6030
4010
6030
1FC0
ENDCHAR
STARTCHAR char0x3360
ENCODING 13152
SWIDTH 1333 0
DWIDTH 16 0
BBX 11 15 2 -2
BITMAP
0020
8020
8020
87E0
8020
8020
8020
87E0
8020
8020
FF20
0020
0020
0020
0020
ENDCHAR
STARTCHAR char0x3361
ENCODING 13153
SWIDTH 1333 0
DWIDTH 16 0
BBX 10 15 3 -2
BITMAP
0040
8040
87C0
8040
87C0
8040
8040
FF40
0040
0000
7FC0
0040
0040
0040
0040
ENDCHAR
STARTCHAR char0x3362
ENCODING 13154
SWIDTH 1333 0
DWIDTH 16 0
BBX 11 14 3 -1
BITMAP
0040
8040
87C0
8040
87C0
8040
8040
FE40
0040
0040
4040
4000
4000
7FE0
ENDCHAR
STARTCHAR char0x3363
ENCODING 13155
SWIDTH 1333 0
DWIDTH 16 0
BBX 10 14 3 -1
BITMAP
8040
87C0
8040
87C0
8040
8040
FF40
0000
7FC0
0040
7FC0
4000
4000
7FC0
ENDCHAR
STARTCHAR char0x3364
ENCODING 13156
SWIDTH 1333 0
DWIDTH 16 0
BBX 10 14 3 -1
BITMAP
0040
8040
87C0
8040
87C0
8040
8040
FF40
0000
7FC0
4040
4040
4040
7FC0
ENDCHAR
STARTCHAR char0x3365
ENCODING 13157
SWIDTH 1333 0
DWIDTH 16 0
BBX 10 14 3 -1
BITMAP
0040
8040
87C0
8040
87C0
8040
FF40
0000
4040
4040
7FC0
4040
4040
7FC0
ENDCHAR
STARTCHAR char0x3366
ENCODING 13158
SWIDTH 1333 0
DWIDTH 16 0
BBX 12 15 3 -2
BITMAP
0040
8040
87C0
8040
8040
87C0
8040
FF40
0040
1080
1080
1080
2940
4720
8630
ENDCHAR
STARTCHAR char0x3367
ENCODING 13159
SWIDTH 1333 0
DWIDTH 16 0
BBX 10 14 3 -1
BITMAP
0040
8040
87C0
8040
87C0
8040
8040
FF40
0040
1F00
60C0
4040
60C0
1F00
ENDCHAR
STARTCHAR char0x3368
ENCODING 13160
SWIDTH 1333 0
DWIDTH 16 0
BBX 10 15 3 -2
BITMAP
0040
8040
87C0
8040
87C0
8040
8040
FF40
0000
7FC0
0040
7FC0
0040
0040
0040
ENDCHAR
STARTCHAR char0x3369
ENCODING 13161
SWIDTH 1333 0
DWIDTH 16 0
BBX 12 15 2 -2
BITMAP
0090
8090
8090
8F90
8090
8090
8F90
8090
8090
8090
FE90
0090
0090
0090
0090
ENDCHAR
STARTCHAR char0x336A
ENCODING 13162
SWIDTH 1333 0
DWIDTH 16 0
BBX 12 14 2 -1
BITMAP
0090
8090
8F90
8090
8F90
8090
8090
FE90
0090
0090
2000
2000
2000
3FF0
ENDCHAR
STARTCHAR char0x336B
ENCODING 13163
SWIDTH 1333 0
DWIDTH 16 0
BBX 14 11 1 1
BITMAP
2000
2000
2000
2000
2000
3FF0
0200
0200
0200
0200
FFFC
ENDCHAR
STARTCHAR char0x336C
ENCODING 13164
SWIDTH 1333 0
DWIDTH 16 0
BBX 14 15 1 -2
BITMAP
2000
2000
2000
2000
3FF0
0200
0200
FFFC
0000
0000
3FE0
0020
0020
0020
0020
ENDCHAR
STARTCHAR char0x336D
ENCODING 13165
SWIDTH 1333 0
DWIDTH 16 0
BBX 14 14 1 -1
BITMAP
2000
2000
2000
2000
3FF0
0200
0200
FFFC
0000
2000
2000
2000
2000
3FF0
ENDCHAR
STARTCHAR char0x336E
ENCODING 13166
SWIDTH 1333 0
DWIDTH 16 0
BBX 14 14 1 -1
BITMAP
2000
2000
2000
3FF0
0200
0200
FFFC
0000
3FF0
0010
3FF0
2000
2000
3FF0
ENDCHAR
STARTCHAR char0x336F
ENCODING 13167
SWIDTH 1333 0
DWIDTH 16 0
BBX 14 14 1 -1
BITMAP
2000
2000
2000
3FF0
0200
0200
FFFC
0000
3DF0
0510
3D10
2110
2110
3DF0
ENDCHAR
STARTCHAR char0x3370
ENCODING 13168
SWIDTH 1333 0
DWIDTH 16 0
BBX 14 14 1 -1
BITMAP
2000
2000
2000
2000
3FF0
0200
0200
FFFC
0000
3FF0
2010
2010
2010
3FF0
ENDCHAR
STARTCHAR char0x3371
ENCODING 13169
SWIDTH 1333 0
DWIDTH 16 0
BBX 14 14 1 -1
BITMAP
2000
2000
2000
2000
3FF0
0200
0200
FFFC
0000
2010
2010
3FF0
2010
3FF0
ENDCHAR
STARTCHAR char0x3372
ENCODING 13170
SWIDTH 1333 0
DWIDTH 16 0
BBX 14 15 1 -2
BITMAP
2000
2000
2000
2000
3FF0
0200
0200
FFFC
0000
0200
0200
0700
0C80
1860
6018
ENDCHAR
STARTCHAR char0x3373
ENCODING 13171
SWIDTH 1333 0
DWIDTH 16 0
BBX 14 14 1 -1
BITMAP
2000
2000
2000
2000
3FF0
0200
0200
FFFC
0000
0FC0
3030
2010
3030
0FC0
ENDCHAR
STARTCHAR char0x3374
ENCODING 13172
SWIDTH 1333 0
DWIDTH 16 0
BBX 14 14 1 -1
BITMAP
2000
2000
2000
2000
3FF0
0200
0200
FFFC
0000
3FF0
0840
0840
0840
3FF0
ENDCHAR
STARTCHAR char0x3375
ENCODING 13173
SWIDTH 1333 0
DWIDTH 16 0
BBX 14 14 1 -1
BITMAP
1000
1000
1000
1FF0
0200
0200
FFFC
0000
0200
7FF8
0000
0FC0
1020
0FC0
ENDCHAR
STARTCHAR char0x3376
ENCODING 13174
SWIDTH 1333 0
DWIDTH 16 0
BBX 14 15 1 -2
BITMAP
0010
4010
4010
4010
4010
4010
7F1C
0810
0810
0810
0810
FF90
0010
0010
0010
ENDCHAR
STARTCHAR char0x3377
ENCODING 13175
SWIDTH 1333 0
DWIDTH 16 0
BBX 14 14 1 -1
BITMAP
0010
4010
4010
4010
4010
7F9C
0810
0810
FFD0
0010
2010
2000
2000
3FF0
ENDCHAR
STARTCHAR char0x3378
ENCODING 13176
SWIDTH 1333 0
DWIDTH 16 0
BBX 14 14 1 -1
BITMAP
4010
4010
4010
7F90
081C
0810
FFD0
0000
3FF0
0010
3FF0
2000
2000
3FF0
ENDCHAR
STARTCHAR char0x3379
ENCODING 13177
SWIDTH 1333 0
DWIDTH 16 0
BBX 14 15 1 -2
BITMAP
4010
4010
4010
4010
7F9C
0810
0810
FFD0
0010
0840
0840
0840
14A0
37B0
6318
ENDCHAR
STARTCHAR char0x337A
ENCODING 13178
SWIDTH 1333 0
DWIDTH 16 0
BBX 12 15 1 -2
BITMAP
0010
2010
2010
2010
2010
2010
3F90
0410
0410
0410
0410
FFD0
0010
0010
0010
ENDCHAR
STARTCHAR char0x337B
ENCODING 13179
SWIDTH 1333 0
DWIDTH 16 0
BBX 12 14 1 -1
BITMAP
0010
4010
4010
4010
4010
7F90
0810
0810
FFD0
0010
1010
1000
1000
1FF0
ENDCHAR
STARTCHAR char0x337C
ENCODING 13180
SWIDTH 1333 0
DWIDTH 16 0
BBX 12 14 1 -1
BITMAP
4010
4010
4010
7F90
0810
0810
FFD0
0000
1FF0
0010
1FF0
1000
1000
1FF0
ENDCHAR
STARTCHAR char0x337D
ENCODING 13181
SWIDTH 1333 0
DWIDTH 16 0
BBX 12 14 1 -1
BITMAP
0010
4010
4010
4010
7F90
0810
0810
FFD0
0000
1FF0
1010
1010
1010
1FF0
ENDCHAR
STARTCHAR char0x337E
ENCODING 13182
SWIDTH 1333 0
DWIDTH 16 0
BBX 12 14 1 -1
BITMAP
4010
4010
4010
7F90
0810
0810
FFD0
0000
2010
2010
3FF0
2010
2010
3FF0
ENDCHAR
STARTCHAR char0x3421
ENCODING 13345
SWIDTH 1333 0
DWIDTH 16 0
BBX 13 15 1 -2
BITMAP
0010
2010
2010
2010
2010
3F90
0410
0410
FFD0
0010
0110
0100
0380
0CE0
7038
ENDCHAR
STARTCHAR char0x3422
ENCODING 13346
SWIDTH 1333 0
DWIDTH 16 0
BBX 14 11 1 1
BITMAP
2000
2000
2000
2000
2000
3FF0
0840
0840
0840
0840
FFFC
ENDCHAR
STARTCHAR char0x3423
ENCODING 13347
SWIDTH 1333 0
DWIDTH 16 0
BBX 14 15 1 -2
BITMAP
2000
2000
2000
2000
3FF0
0840
0840
FFFC
0000
0000
3FE0
0020
0020
0020
0020
ENDCHAR
STARTCHAR char0x3424
ENCODING 13348
SWIDTH 1333 0
DWIDTH 16 0
BBX 14 14 1 -1
BITMAP
2000
2000
2000
2000
3FF0
0840
0840
FFFC
0000
2000
2000
2000
2000
3FF0
ENDCHAR
STARTCHAR char0x3425
ENCODING 13349
SWIDTH 1333 0
DWIDTH 16 0
BBX 14 14 1 -1
BITMAP
2000
2000
2000
3FF0
0840
0840
FFFC
0000
3FF0
0010
3FF0
2000
2000
3FF0
ENDCHAR
STARTCHAR char0x3426
ENCODING 13350
SWIDTH 1333 0
DWIDTH 16 0
BBX 14 14 1 -1
BITMAP
2000
2000
2000
2000
3FF0
0840
0840
FFFC
0000
2010
2010
3FF0
2010
3FF0
ENDCHAR
STARTCHAR char0x3427
ENCODING 13351
SWIDTH 1333 0
DWIDTH 16 0
BBX 14 15 1 -2
BITMAP
2000
2000
2000
2000
3FF0
0840
0840
FFFC
0000
0200
0200
0700
0C80
1860
6018
ENDCHAR
STARTCHAR char0x3428
ENCODING 13352
SWIDTH 1333 0
DWIDTH 16 0
BBX 14 14 1 -1
BITMAP
2000
2000
2000
2000
3FF0
0840
0840
FFFC
0000
0FC0
3030
2010
3030
0FC0
ENDCHAR
STARTCHAR char0x3429
ENCODING 13353
SWIDTH 1333 0
DWIDTH 16 0
BBX 14 15 1 -2
BITMAP
2000
2000
2000
2000
2000
3FF0
0000
0000
FFFC
0200
0200
0200
0200
0200
0200
ENDCHAR
STARTCHAR char0x342A
ENCODING 13354
SWIDTH 1333 0
DWIDTH 16 0
BBX 14 15 1 -2
BITMAP
1000
1000
1000
1000
1FF0
0000
0000
FFFC
0200
0200
3FE0
0020
0020
0020
0020
ENDCHAR
STARTCHAR char0x342B
ENCODING 13355
SWIDTH 1333 0
DWIDTH 16 0
BBX 14 14 1 -1
BITMAP
2000
2000
2000
2000
3FF0
0000
0000
FFFC
0200
0200
2200
2200
2000
3FF0
ENDCHAR
STARTCHAR char0x342C
ENCODING 13356
SWIDTH 1333 0
DWIDTH 16 0
BBX 14 14 1 -1
BITMAP
2000
2000
2000
2000
3FF0
0000
FFFC
0200
0200
3FF0
2000
2000
2000
3FF0
ENDCHAR
STARTCHAR char0x342D
ENCODING 13357
SWIDTH 1333 0
DWIDTH 16 0
BBX 14 14 1 -1
BITMAP
2000
2000
2000
3FF0
0000
0000
FFFC
0200
0200
3FF0
0010
3FF0
2000
3FF0
ENDCHAR
STARTCHAR char0x342E
ENCODING 13358
SWIDTH 1333 0
DWIDTH 16 0
BBX 14 14 1 -1
BITMAP
2000
2000
2000
2000
3FF0
0000
FFFC
0200
0200
3FE0
2020
2020
2020
3FE0
ENDCHAR
STARTCHAR char0x342F
ENCODING 13359
SWIDTH 1333 0
DWIDTH 16 0
BBX 14 14 1 -1
BITMAP
2000
2000
2000
3FF0
0000
0000
FFFC
0200
0200
2220
2020
3FE0
2020
3FE0
ENDCHAR
STARTCHAR char0x3430
ENCODING 13360
SWIDTH 1333 0
DWIDTH 16 0
BBX 14 15 1 -2
BITMAP
1000
1000
1000
1FF0
0000
0000
FFFC
0200
0200
0000
0200
0200
0700
1CC0
7038
ENDCHAR
STARTCHAR char0x3431
ENCODING 13361
SWIDTH 1333 0
DWIDTH 16 0
BBX 14 14 1 -1
BITMAP
1000
1000
1000
1000
1FF0
0000
FFFC
0200
0200
1FC0
3030
2010
3030
0FC0
ENDCHAR
STARTCHAR char0x3432
ENCODING 13362
SWIDTH 1333 0
DWIDTH 16 0
BBX 13 15 1 -2
BITMAP
0008
2008
2008
2008
2008
3F88
0008
0008
FFE8
0408
04F8
0408
0408
0408
0008
ENDCHAR
STARTCHAR char0x3433
ENCODING 13363
SWIDTH 1333 0
DWIDTH 16 0
BBX 14 15 1 -2
BITMAP
2010
2010
2010
3F90
0010
0010
FFF0
0810
08F0
0010
0020
1020
1C70
33C8
6304
ENDCHAR
STARTCHAR char0x3434
ENCODING 13364
SWIDTH 1333 0
DWIDTH 16 0
BBX 13 15 1 -2
BITMAP
0048
4048
4048
4048
7F48
0048
0048
FFC8
0848
0848
09C8
0848
0848
0848
0048
ENDCHAR
STARTCHAR char0x3435
ENCODING 13365
SWIDTH 1333 0
DWIDTH 16 0
BBX 13 15 1 -2
BITMAP
0008
2008
2008
2008
2008
3F88
0008
0008
FFE8
0408
0408
0408
0408
0408
0008
ENDCHAR
STARTCHAR char0x3436
ENCODING 13366
SWIDTH 1333 0
DWIDTH 16 0
BBX 12 14 1 -1
BITMAP
0010
2010
2010
2010
3F90
0010
0010
FFD0
0410
0410
1410
1000
1000
1FF0
ENDCHAR
STARTCHAR char0x3437
ENCODING 13367
SWIDTH 1333 0
DWIDTH 16 0
BBX 13 14 1 -1
BITMAP
0008
2008
2008
2008
3FC8
0008
FFE8
0408
0400
1FF8
0008
1FF8
1000
1FF8
ENDCHAR
STARTCHAR char0x3438
ENCODING 13368
SWIDTH 1333 0
DWIDTH 16 0
BBX 12 14 1 -1
BITMAP
2010
2010
2010
3F90
0010
0010
FFD0
0410
0400
1FF0
1010
1010
1010
1FF0
ENDCHAR
STARTCHAR char0x3439
ENCODING 13369
SWIDTH 1333 0
DWIDTH 16 0
BBX 12 14 1 -1
BITMAP
2010
2010
2010
3F90
0010
0010
FFD0
0410
0400
1410
1010
1FF0
1010
1FF0
ENDCHAR
STARTCHAR char0x343A
ENCODING 13370
SWIDTH 1333 0
DWIDTH 16 0
BBX 14 15 1 -2
BITMAP
2000
2000
2000
2000
2000
3FF0
0000
0000
FFFC
0840
0840
0840
0840
0840
0840
ENDCHAR
STARTCHAR char0x343B
ENCODING 13371
SWIDTH 1333 0
DWIDTH 16 0
BBX 14 15 1 -2
BITMAP
2000
2000
2000
2000
3FF0
0000
0000
FFFC
0840
0840
3FF0
0010
0010
0010
0010
ENDCHAR
STARTCHAR char0x343C
ENCODING 13372
SWIDTH 1333 0
DWIDTH 16 0
BBX 14 14 1 -1
BITMAP
2000
2000
2000
3FF0
0000
0000
FFFC
0840
0840
3FF0
0010
3FF0
2000
3FF0
ENDCHAR
STARTCHAR char0x343D
ENCODING 13373
SWIDTH 1333 0
DWIDTH 16 0
BBX 14 14 1 -1
BITMAP
2000
2000
2000
3FF0
0000
0000
FFFC
0840
0840
3FF0
2010
2010
2010
3FF0
ENDCHAR
STARTCHAR char0x343E
ENCODING 13374
SWIDTH 1333 0
DWIDTH 16 0
BBX 14 14 1 -1
BITMAP
2000
2000
2000
3FF0
0000
0000
FFFC
0880
0880
2890
2010
3FF0
2010
3FF0
ENDCHAR
STARTCHAR char0x343F
ENCODING 13375
SWIDTH 1333 0
DWIDTH 16 0
BBX 14 14 1 -1
BITMAP
2000
2000
2000
2000
3FF0
0000
FFFC
0840
0840
0FC0
3030
2010
3030
0FC0
ENDCHAR
STARTCHAR char0x3440
ENCODING 13376
SWIDTH 1333 0
DWIDTH 16 0
BBX 14 11 1 1
BITMAP
2000
2000
2000
2000
2000
3FF0
0000
0000
0000
0000
FFFC
ENDCHAR
STARTCHAR char0x3441
ENCODING 13377
SWIDTH 1333 0
DWIDTH 16 0
BBX 14 15 1 -2
BITMAP
1000
1000
1000
1000
1FF0
0000
0000
FFFC
0000
0000
3FE0
0020
0020
0020
0020
ENDCHAR
STARTCHAR char0x3442
ENCODING 13378
SWIDTH 1333 0
DWIDTH 16 0
BBX 14 14 1 -1
BITMAP
2000
2000
2000
2000
3FF0
0000
0000
FFFC
0000
2000
2000
2000
2000
3FF0
ENDCHAR
STARTCHAR char0x3443
ENCODING 13379
SWIDTH 1333 0
DWIDTH 16 0
BBX 14 14 1 -1
BITMAP
2000
2000
2000
3FF0
0000
0000
FFFC
0000
3FF0
0010
3FF0
2000
2000
3FF0
ENDCHAR
STARTCHAR char0x3444
ENCODING 13380
SWIDTH 1333 0
DWIDTH 16 0
BBX 14 14 1 -1
BITMAP
1000
1000
1000
1FF0
0000
0000
FFFC
0000
3EF0
0210
3E10
2010
2010
3F10
ENDCHAR
STARTCHAR char0x3445
ENCODING 13381
SWIDTH 1333 0
DWIDTH 16 0
BBX 14 14 1 -1
BITMAP
1000
1000
1000
1FF0
0000
0000
FFFC
0000
3CF0
0490
3C90
2090
2090
3CF0
ENDCHAR
STARTCHAR char0x3446
ENCODING 13382
SWIDTH 1333 0
DWIDTH 16 0
BBX 14 14 1 -1
BITMAP
2000
2000
2000
2000
3FF0
0000
0000
FFFC
0000
3FE0
2020
2020
2020
3FE0
ENDCHAR
STARTCHAR char0x3447
ENCODING 13383
SWIDTH 1333 0
DWIDTH 16 0
BBX 14 14 1 -1
BITMAP
2000
2000
2000
2000
3FF0
0000
0000
FFFC
0000
2020
2020
3FE0
2020
3FE0
ENDCHAR
STARTCHAR char0x3448
ENCODING 13384
SWIDTH 1333 0
DWIDTH 16 0
BBX 14 15 1 -2
BITMAP
1000
1000
1000
1000
1FF0
0000
0000
FFFC
0000
0200
0200
0700
0C80
1860
6018
ENDCHAR
STARTCHAR char0x3449
ENCODING 13385
SWIDTH 1333 0
DWIDTH 16 0
BBX 14 14 1 -1
BITMAP
1000
1000
1000
1000
1FF0
0000
0000
FFFC
0000
0FC0
3030
2010
3030
0FC0
ENDCHAR
STARTCHAR char0x344A
ENCODING 13386
SWIDTH 1333 0
DWIDTH 16 0
BBX 14 15 1 -2
BITMAP
1000
1000
1000
1000
1FF0
0000
0000
FFFC
0000
3FF0
0200
0700
0480
1860
6018
ENDCHAR
STARTCHAR char0x344B
ENCODING 13387
SWIDTH 1333 0
DWIDTH 16 0
BBX 14 14 1 -1
BITMAP
2000
2000
2000
2000
3FF0
0000
0000
FFFC
0000
3FF0
0840
0840
0840
3FF0
ENDCHAR
STARTCHAR char0x344C
ENCODING 13388
SWIDTH 1333 0
DWIDTH 16 0
BBX 13 15 1 -2
BITMAP
0008
2008
2008
2008
2008
2008
3FC8
0008
0008
0008
0008
FFE8
0008
0008
0008
ENDCHAR
STARTCHAR char0x344D
ENCODING 13389
SWIDTH 1333 0
DWIDTH 16 0
BBX 12 14 1 -1
BITMAP
0010
4010
4010
4010
4010
7F90
0010
0010
FFD0
0010
1010
1000
1000
1FF0
ENDCHAR
STARTCHAR char0x344E
ENCODING 13390
SWIDTH 1333 0
DWIDTH 16 0
BBX 12 14 1 -1
BITMAP
0010
4010
4010
4010
7F90
0010
FFD0
0010
0000
1FF0
0010
1FF0
1000
1FF0
ENDCHAR
STARTCHAR char0x344F
ENCODING 13391
SWIDTH 1333 0
DWIDTH 16 0
BBX 10 15 3 -2
BITMAP
0040
8040
8040
8040
8040
8040
8040
8040
8040
FF40
0040
0040
0040
0040
0040
ENDCHAR
STARTCHAR char0x3450
ENCODING 13392
SWIDTH 1333 0
DWIDTH 16 0
BBX 10 15 3 -2
BITMAP
0040
8040
8040
8040
8040
8040
FF40
0040
0000
7FC0
0040
0040
0040
0040
0040
ENDCHAR
STARTCHAR char0x3451
ENCODING 13393
SWIDTH 1333 0
DWIDTH 16 0
BBX 10 14 3 -1
BITMAP
0040
8040
8040
8040
8040
8040
8040
FF40
0040
4040
4040
4000
4000
7FC0
ENDCHAR
STARTCHAR char0x3452
ENCODING 13394
SWIDTH 1333 0
DWIDTH 16 0
BBX 10 14 3 -1
BITMAP
0040
8040
8040
8040
8040
8040
FF40
0000
7FC0
0040
7FC0
4000
4000
7FC0
ENDCHAR
STARTCHAR char0x3453
ENCODING 13395
SWIDTH 1333 0
DWIDTH 16 0
BBX 10 14 3 -1
BITMAP
0040
8040
8040
8040
8040
8040
FF40
0000
7BC0
0A40
7A40
4240
4240
7BC0
ENDCHAR
STARTCHAR char0x3454
ENCODING 13396
SWIDTH 1333 0
DWIDTH 16 0
BBX 10 14 3 -1
BITMAP
0040
8040
8040
8040
8040
8040
FF40
0040
0000
7FC0
4040
4040
4040
7FC0
ENDCHAR
STARTCHAR char0x3455
ENCODING 13397
SWIDTH 1333 0
DWIDTH 16 0
BBX 10 14 3 -1
BITMAP
0040
8040
8040
8040
8040
8040
FF40
0000
4040
4040
7FC0
4040
4040
7FC0
ENDCHAR
STARTCHAR char0x3456
ENCODING 13398
SWIDTH 1333 0
DWIDTH 16 0
BBX 12 15 3 -2
BITMAP
0020
8020
8020
8020
8020
8020
8020
FF20
0020
0420
0400
0E00
1900
30C0
C030
ENDCHAR
STARTCHAR char0x3457
ENCODING 13399
SWIDTH 1333 0
DWIDTH 16 0
BBX 11 14 3 -1
BITMAP
0020
8020
8020
8020
8020
8020
FFA0
0020
0020
1F80
6060
4020
6060
1F80
ENDCHAR
STARTCHAR char0x3458
ENCODING 13400
SWIDTH 1333 0
DWIDTH 16 0
BBX 9 13 3 -1
BITMAP
8080
8080
8080
8080
8080
FF80
0000
0000
7F80
1100
1100
1100
FF80
ENDCHAR
STARTCHAR char0x3459
ENCODING 13401
SWIDTH 1333 0
DWIDTH 16 0
BBX 13 15 2 -2
BITMAP
0040
FE40
8040
8040
8040
8040
8078
8040
8040
8040
FF40
0040
0040
0040
0040
ENDCHAR
STARTCHAR char0x345A
ENCODING 13402
SWIDTH 1333 0
DWIDTH 16 0
BBX 13 15 2 -2
BITMAP
0020
FE20
8020
8020
8038
8020
FF20
0020
0000
7FE0
0020
0020
0020
0020
0020
ENDCHAR
STARTCHAR char0x345B
ENCODING 13403
SWIDTH 1333 0
DWIDTH 16 0
BBX 13 15 2 -2
BITMAP
0020
FE20
8020
8020
8038
8020
FF20
0020
0000
7BE0
0820
0820
0820
0820
0820
ENDCHAR
STARTCHAR char0x345C
ENCODING 13404
SWIDTH 1333 0
DWIDTH 16 0
BBX 13 14 2 -1
BITMAP
0020
FE20
8020
8020
8038
8020
8020
FF20
0020
2020
2020
2000
2000
3FE0
ENDCHAR
STARTCHAR char0x345D
ENCODING 13405
SWIDTH 1333 0
DWIDTH 16 0
BBX 13 13 2 -1
BITMAP
FE40
8040
8038
8040
8040
FF40
0000
0000
3FC0
2000
2000
2000
3FC0
ENDCHAR
STARTCHAR char0x345E
ENCODING 13406
SWIDTH 1333 0
DWIDTH 16 0
BBX 13 14 2 -1
BITMAP
0020
FE20
8020
8038
8020
8020
FF20
0000
3FE0
0020
3FE0
2000
2000
3FE0
ENDCHAR
STARTCHAR char0x345F
ENCODING 13407
SWIDTH 1333 0
DWIDTH 16 0
BBX 13 14 2 -1
BITMAP
0020
FE20
8020
8038
8020
8020
FF20
0000
7BE0
0820
7820
4020
4020
7C20
ENDCHAR
STARTCHAR char0x3460
ENCODING 13408
SWIDTH 1333 0
DWIDTH 16 0
BBX 13 14 2 -1
BITMAP
0020
FE20
8020
8038
8020
8020
FF20
0000
7BE0
0A20
7A20
4220
4220
7BE0
ENDCHAR
STARTCHAR char0x3461
ENCODING 13409
SWIDTH 1333 0
DWIDTH 16 0
BBX 13 14 2 -1
BITMAP
0020
FE20
8020
8038
8020
8020
FF20
0000
7A20
0A20
7BE0
4220
4220
7BE0
ENDCHAR
STARTCHAR char0x3462
ENCODING 13410
SWIDTH 1333 0
DWIDTH 16 0
BBX 13 14 2 -1
BITMAP
0020
FE20
8020
8038
8020
8020
FF20
0000
7880
0BF0
7800
41C0
4220
7DC0
ENDCHAR
STARTCHAR char0x3463
ENCODING 13411
SWIDTH 1333 0
DWIDTH 16 0
BBX 13 14 2 -1
BITMAP
0020
FE20
8020
8020
8038
8020
FF20
0020
0000
3FE0
2020
2020
2020
3FE0
ENDCHAR
STARTCHAR char0x3464
ENCODING 13412
SWIDTH 1333 0
DWIDTH 16 0
BBX 13 14 2 -1
BITMAP
0020
FE20
8020
8020
8038
8020
FF20
0000
2020
2020
3FE0
2020
2020
3FE0
ENDCHAR
STARTCHAR char0x3465
ENCODING 13413
SWIDTH 1333 0
DWIDTH 16 0
BBX 13 15 2 -2
BITMAP
0020
FE20
8020
8020
8038
8020
8020
FF20
0020
0220
0200
0700
0D80
30C0
C030
ENDCHAR
STARTCHAR char0x3466
ENCODING 13414
SWIDTH 1333 0
DWIDTH 16 0
BBX 13 15 2 -2
BITMAP
0020
FE20
8020
8020
8038
8020
8020
FF20
0000
1080
1080
10C0
29C0
4720
8618
ENDCHAR
STARTCHAR char0x3467
ENCODING 13415
SWIDTH 1333 0
DWIDTH 16 0
BBX 13 14 2 -1
BITMAP
0020
FE20
8020
8020
8038
8020
FF20
0020
0000
1F80
6060
4020
6060
1F80
ENDCHAR
STARTCHAR char0x3468
ENCODING 13416
SWIDTH 1333 0
DWIDTH 16 0
BBX 13 15 2 -2
BITMAP
0020
FE20
8020
8020
8038
8020
FF20
0020
0000
7FE0
0400
0E00
1900
30C0
C030
ENDCHAR
STARTCHAR char0x3469
ENCODING 13417
SWIDTH 1333 0
DWIDTH 16 0
BBX 13 15 2 -2
BITMAP
0020
FE20
8020
8020
8038
8020
FF20
0020
0400
7FE0
0400
0E00
1900
3080
C070
ENDCHAR
STARTCHAR char0x346A
ENCODING 13418
SWIDTH 1333 0
DWIDTH 16 0
BBX 13 14 2 -1
BITMAP
0020
FE20
8020
8020
8038
8020
FF20
0020
0400
7FE0
0000
1F80
2040
1F80
ENDCHAR
STARTCHAR char0x346B
ENCODING 13419
SWIDTH 1333 0
DWIDTH 16 0
BBX 12 15 2 -2
BITMAP
0090
FC90
8090
8090
8090
8090
80F0
8090
8090
8090
FE90
0090
0090
0090
0090
ENDCHAR
STARTCHAR char0x346C
ENCODING 13420
SWIDTH 1333 0
DWIDTH 16 0
BBX 12 15 2 -2
BITMAP
0090
FC90
8090
8090
80F0
8090
FE90
0090
0000
3FF0
0010
0010
0010
0010
0010
ENDCHAR
STARTCHAR char0x346D
ENCODING 13421
SWIDTH 1333 0
DWIDTH 16 0
BBX 12 14 2 -1
BITMAP
0090
FC90
8090
8090
8090
80F0
8090
FE90
0090
0090
2010
2000
2000
3FF0
ENDCHAR
STARTCHAR char0x346E
ENCODING 13422
SWIDTH 1333 0
DWIDTH 16 0
BBX 12 14 2 -1
BITMAP
0090
FC90
8090
80F0
8090
8090
FE90
0000
3FF0
0010
3FF0
2000
2000
3FF0
ENDCHAR
STARTCHAR char0x346F
ENCODING 13423
SWIDTH 1333 0
DWIDTH 16 0
BBX 12 14 2 -1
BITMAP
0090
FC90
8090
8090
80F0
8090
FE90
0090
0000
3FF0
2010
2010
2010
3FF0
ENDCHAR
STARTCHAR char0x3470
ENCODING 13424
SWIDTH 1333 0
DWIDTH 16 0
BBX 12 14 2 -1
BITMAP
0090
FC90
8090
8090
80F0
8090
FE90
0000
2010
2010
3FF0
2010
2010
3FF0
ENDCHAR
STARTCHAR char0x3471
ENCODING 13425
SWIDTH 1333 0
DWIDTH 16 0
BBX 13 15 2 -2
BITMAP
0090
FC90
8090
8090
8090
80F0
8090
FC90
0090
0210
0200
0700
0980
10C0
6038
ENDCHAR
STARTCHAR char0x3472
ENCODING 13426
SWIDTH 1333 0
DWIDTH 16 0
BBX 13 15 2 -2
BITMAP
00A0
FCA0
80A0
80A0
80E0
80A0
80A0
FCA0
0000
1040
1040
1840
34A0
6790
C318
ENDCHAR
STARTCHAR char0x3473
ENCODING 13427
SWIDTH 1333 0
DWIDTH 16 0
BBX 12 14 2 -1
BITMAP
0090
FC90
8090
8090
80F0
8090
FE90
0090
0000
0FC0
3030
2010
3030
0FC0
ENDCHAR
STARTCHAR char0x3474
ENCODING 13428
SWIDTH 1333 0
DWIDTH 16 0
BBX 13 15 2 -2
BITMAP
0020
FE20
8020
8038
8020
8020
8020
8020
8038
8020
FF20
0020
0020
0020
0020
ENDCHAR
STARTCHAR char0x3475
ENCODING 13429
SWIDTH 1333 0
DWIDTH 16 0
BBX 11 15 2 -2
BITMAP
0020
FE20
8020
8020
8020
83E0
8020
8020
8020
8020
FF20
0020
0020
0020
0020
ENDCHAR
STARTCHAR char0x3476
ENCODING 13430
SWIDTH 1333 0
DWIDTH 16 0
BBX 10 15 3 -2
BITMAP
0040
FE40
8040
87C0
8040
8040
FE40
0040
0000
7FC0
0040
0040
0040
0040
0040
ENDCHAR
STARTCHAR char0x3477
ENCODING 13431
SWIDTH 1333 0
DWIDTH 16 0
BBX 10 15 3 -2
BITMAP
0040
F840
8040
87C0
8040
8040
FC40
0040
0000
7BC0
0840
0840
0840
0840
0840
ENDCHAR
STARTCHAR char0x3478
ENCODING 13432
SWIDTH 1333 0
DWIDTH 16 0
BBX 10 14 3 -1
BITMAP
0040
FE40
8040
8040
87C0
8040
8040
FE40
0040
4040
4040
4000
4000
7FC0
ENDCHAR
STARTCHAR char0x3479
ENCODING 13433
SWIDTH 1333 0
DWIDTH 16 0
BBX 9 13 3 -1
BITMAP
FE80
8080
8780
8080
8080
FE80
0000
0000
7F80
4000
4000
4000
7F80
ENDCHAR
STARTCHAR char0x347A
ENCODING 13434
SWIDTH 1333 0
DWIDTH 16 0
BBX 10 14 3 -1
BITMAP
0040
F840
8040
87C0
8040
8040
FC40
0000
7FC0
0040
7FC0
4000
4000
7FC0
ENDCHAR
STARTCHAR char0x347B
ENCODING 13435
SWIDTH 1333 0
DWIDTH 16 0
BBX 10 14 3 -1
BITMAP
0040
FE40
8040
87C0
8040
8040
FE40
0000
7BC0
0A40
7A40
4240
4240
7BC0
ENDCHAR
STARTCHAR char0x347C
ENCODING 13436
SWIDTH 1333 0
DWIDTH 16 0
BBX 10 14 3 -1
BITMAP
0040
FE40
8040
87C0
8040
8040
FF40
0000
7A40
0A40
7BC0
4240
4240
7BC0
ENDCHAR
STARTCHAR char0x347D
ENCODING 13437
SWIDTH 1333 0
DWIDTH 16 0
BBX 10 14 3 -1
BITMAP
0040
FE40
8040
87C0
8040
8040
FE40
0040
0000
7FC0
4040
4040
4040
7FC0
ENDCHAR
STARTCHAR char0x347E
ENCODING 13438
SWIDTH 1333 0
DWIDTH 16 0
BBX 10 14 3 -1
BITMAP
0040
F840
8040
87C0
8040
8040
FC40
0000
4040
4040
7FC0
4040
4040
7FC0
ENDCHAR
STARTCHAR char0x3521
ENCODING 13601
SWIDTH 1333 0
DWIDTH 16 0
BBX 12 15 3 -2
BITMAP
0040
FE40
8040
8040
87C0
8040
8040
FF40
0040
0240
0200
0700
0980
30C0
C030
ENDCHAR
STARTCHAR char0x3522
ENCODING 13602
SWIDTH 1333 0
DWIDTH 16 0
BBX 11 14 3 -1
BITMAP
0020
FE20
8020
87E0
8020
8020
FF20
0020
0000
1F80
6060
4020
6060
1F80
ENDCHAR
STARTCHAR char0x3523
ENCODING 13603
SWIDTH 1333 0
DWIDTH 16 0
BBX 10 14 3 -2
BITMAP
F880
8080
8780
8080
8080
FC80
0080
0400
0400
7F80
0800
0C00
3200
C1C0
ENDCHAR
STARTCHAR char0x3524
ENCODING 13604
SWIDTH 1333 0
DWIDTH 16 0
BBX 9 13 3 -1
BITMAP
F880
8080
8780
8080
8080
FC80
0000
0000
7F80
1100
1100
1100
7F80
ENDCHAR
STARTCHAR char0x3525
ENCODING 13605
SWIDTH 1333 0
DWIDTH 16 0
BBX 12 15 2 -2
BITMAP
0090
FC90
8090
8090
8090
8790
8090
8090
8090
8090
FE90
0090
0090
0090
0090
ENDCHAR
STARTCHAR char0x3526
ENCODING 13606
SWIDTH 1333 0
DWIDTH 16 0
BBX 12 15 2 -2
BITMAP
0090
FC90
8090
8790
8090
8090
FE90
0090
0000
3FF0
0010
0010
0010
0010
0010
ENDCHAR
STARTCHAR char0x3527
ENCODING 13607
SWIDTH 1333 0
DWIDTH 16 0
BBX 12 14 2 -1
BITMAP
0090
FC90
8090
8090
8790
8090
8090
FE90
0090
0090
2000
2000
2000
3FF0
ENDCHAR
STARTCHAR char0x3528
ENCODING 13608
SWIDTH 1333 0
DWIDTH 16 0
BBX 12 14 2 -1
BITMAP
0090
F090
8090
8F90
8090
8090
F090
0000
3FF0
0010
3FF0
2000
2000
3FF0
ENDCHAR
STARTCHAR char0x3529
ENCODING 13609
SWIDTH 1333 0
DWIDTH 16 0
BBX 12 14 2 -1
BITMAP
0090
FC90
8090
8790
8090
8090
FE90
0090
0000
3FF0
2010
2010
2010
3FF0
ENDCHAR
STARTCHAR char0x352A
ENCODING 13610
SWIDTH 1333 0
DWIDTH 16 0
BBX 12 14 2 -1
BITMAP
0090
FC90
8090
8790
8090
8090
FE90
0000
2010
2010
3FF0
2010
2010
3FF0
ENDCHAR
STARTCHAR char0x352B
ENCODING 13611
SWIDTH 1333 0
DWIDTH 16 0
BBX 13 15 2 -2
BITMAP
0090
FC90
8090
8090
8F90
8090
8090
FE90
0090
0210
0200
0700
0C80
3860
E018
ENDCHAR
STARTCHAR char0x352C
ENCODING 13612
SWIDTH 1333 0
DWIDTH 16 0
BBX 13 15 2 -2
BITMAP
00A0
FCA0
80A0
80A0
8FA0
80A0
80A0
FCA0
00A0
1040
1040
1840
34A0
6790
C318
ENDCHAR
STARTCHAR char0x352D
ENCODING 13613
SWIDTH 1333 0
DWIDTH 16 0
BBX 12 14 2 -1
BITMAP
0090
FC90
8090
8F90
8090
8090
FE90
0090
0000
0FC0
3030
2010
3030
0FC0
ENDCHAR
STARTCHAR char0x352E
ENCODING 13614
SWIDTH 1333 0
DWIDTH 16 0
BBX 11 15 2 -2
BITMAP
0020
FE20
8020
8020
87E0
8020
8020
87E0
8020
8020
FF20
0020
0020
0020
0020
ENDCHAR
STARTCHAR char0x352F
ENCODING 13615
SWIDTH 1333 0
DWIDTH 16 0
BBX 10 14 3 -1
BITMAP
0040
F840
8040
87C0
8040
87C0
8040
F840
0040
2040
2040
2000
2000
3FC0
ENDCHAR
STARTCHAR char0x3530
ENCODING 13616
SWIDTH 1333 0
DWIDTH 16 0
BBX 10 14 3 -1
BITMAP
0040
F840
8040
87C0
8040
87C0
8040
F840
0000
7FC0
0040
7FC0
4000
7FC0
ENDCHAR
STARTCHAR char0x3531
ENCODING 13617
SWIDTH 1333 0
DWIDTH 16 0
BBX 12 15 3 -2
BITMAP
0040
F840
8040
87C0
8040
87C0
8040
FC40
0040
1080
1080
1080
2940
4760
8630
ENDCHAR
STARTCHAR char0x3532
ENCODING 13618
SWIDTH 1333 0
DWIDTH 16 0
BBX 11 14 3 -1
BITMAP
0020
F820
8020
87E0
8020
87E0
8020
FC20
0020
1F80
6060
4020
6060
1F80
ENDCHAR
STARTCHAR char0x3533
ENCODING 13619
SWIDTH 1333 0
DWIDTH 16 0
BBX 12 15 2 -2
BITMAP
0090
FC90
8090
8090
8F90
8090
8090
8F90
8090
8090
FC90
0090
0090
0090
0090
ENDCHAR
STARTCHAR char0x3534
ENCODING 13620
SWIDTH 1333 0
DWIDTH 16 0
BBX 12 14 2 -1
BITMAP
0090
F890
8090
8790
8090
8790
8090
F890
0090
0090
2000
2000
2000
3FF0
ENDCHAR
STARTCHAR char0x3535
ENCODING 13621
SWIDTH 1333 0
DWIDTH 16 0
BBX 14 11 1 1
BITMAP
3FF0
2000
2000
2000
2000
2000
3FF0
0200
0200
0200
FFFC
ENDCHAR
STARTCHAR char0x3536
ENCODING 13622
SWIDTH 1333 0
DWIDTH 16 0
BBX 14 15 1 -2
BITMAP
3FF0
2000
2000
2000
3FF0
0200
0200
FFFC
0000
0000
3FF0
0010
0010
0010
0010
ENDCHAR
STARTCHAR char0x3537
ENCODING 13623
SWIDTH 1333 0
DWIDTH 16 0
BBX 14 14 1 -1
BITMAP
3FF0
2000
2000
2000
3FF0
0200
0200
FFFC
0000
2000
2000
2000
2000
3FF0
ENDCHAR
STARTCHAR char0x3538
ENCODING 13624
SWIDTH 1333 0
DWIDTH 16 0
BBX 14 14 1 -1
BITMAP
3FF0
2000
2000
2000
3FF0
0200
0200
FFFC
0000
3FF0
2000
2000
2000
3FF0
ENDCHAR
STARTCHAR char0x3539
ENCODING 13625
SWIDTH 1333 0
DWIDTH 16 0
BBX 14 14 1 -1
BITMAP
3FF0
2000
2000
2000
3FF0
0200
FFFC
0000
3FF0
0010
3FF0
2000
2000
3FF0
ENDCHAR
STARTCHAR char0x353A
ENCODING 13626
SWIDTH 1333 0
DWIDTH 16 0
BBX 14 14 1 -1
BITMAP
3FF0
2000
2000
2000
3FF0
0200
FFFC
0000
3DF0
0510
3D10
2110
2110
3DF0
ENDCHAR
STARTCHAR char0x353B
ENCODING 13627
SWIDTH 1333 0
DWIDTH 16 0
BBX 14 14 1 -1
BITMAP
3FF0
2000
2000
2000
3FF0
0200
FFFC
0000
3E20
0220
3E20
2070
2090
3F08
ENDCHAR
STARTCHAR char0x353C
ENCODING 13628
SWIDTH 1333 0
DWIDTH 16 0
BBX 14 14 1 -1
BITMAP
3FF0
2000
2000
2000
3FF0
0200
0200
FFFC
0000
3FF0
2010
2010
2010
3FF0
ENDCHAR
STARTCHAR char0x353D
ENCODING 13629
SWIDTH 1333 0
DWIDTH 16 0
BBX 14 14 1 -1
BITMAP
3FF0
2000
2000
2000
3FF0
0200
0200
FFFC
0000
2010
2010
3FF0
2010
3FF0
ENDCHAR
STARTCHAR char0x353E
ENCODING 13630
SWIDTH 1333 0
DWIDTH 16 0
BBX 14 15 1 -2
BITMAP
3FF0
2000
2000
2000
3FF0
0200
0200
FFFC
0000
0200
0200
0700
0C80
1840
6038
ENDCHAR
STARTCHAR char0x353F
ENCODING 13631
SWIDTH 1333 0
DWIDTH 16 0
BBX 14 14 1 -1
BITMAP
3FF0
2000
2000
2000
3FF0
0200
0200
FFFC
0000
0FC0
3030
2010
3030
0FC0
ENDCHAR
STARTCHAR char0x3540
ENCODING 13632
SWIDTH 1333 0
DWIDTH 16 0
BBX 14 15 1 -2
BITMAP
3FF0
2000
2000
2000
3FF0
0200
0200
FFFC
0000
0200
3FF0
0300
0780
1CC0
7038
ENDCHAR
STARTCHAR char0x3541
ENCODING 13633
SWIDTH 1333 0
DWIDTH 16 0
BBX 14 14 1 -1
BITMAP
3FF0
2000
2000
3FF0
0200
0200
FFFC
0000
3FF0
2000
3FF0
2000
2000
3FF0
ENDCHAR
STARTCHAR char0x3542
ENCODING 13634
SWIDTH 1333 0
DWIDTH 16 0
BBX 14 15 1 -2
BITMAP
0010
7F10
4010
4010
4010
4010
7F1C
0810
0810
0810
0810
FFD0
0010
0010
0010
ENDCHAR
STARTCHAR char0x3543
ENCODING 13635
SWIDTH 1333 0
DWIDTH 16 0
BBX 14 14 1 -1
BITMAP
0010
7F10
4010
4010
4010
7F1C
0810
0810
FFD0
0010
1010
1000
1000
1FF0
ENDCHAR
STARTCHAR char0x3544
ENCODING 13636
SWIDTH 1333 0
DWIDTH 16 0
BBX 14 14 1 -1
BITMAP
0010
7F10
4010
4010
7F9C
0810
0810
FFD0
0000
1FF0
0010
1FF0
1000
1FF0
ENDCHAR
STARTCHAR char0x3545
ENCODING 13637
SWIDTH 1333 0
DWIDTH 16 0
BBX 13 15 1 -2
BITMAP
0048
7E48
4048
4048
4048
4048
7E48
0878
0848
0848
0848
FF48
0048
0048
0048
ENDCHAR
STARTCHAR char0x3546
ENCODING 13638
SWIDTH 1333 0
DWIDTH 16 0
BBX 14 15 1 -2
BITMAP
0050
7E50
4050
4050
4050
7E70
1050
1050
FF50
0000
0820
0820
1E70
33D8
618C
ENDCHAR
STARTCHAR char0x3547
ENCODING 13639
SWIDTH 1333 0
DWIDTH 16 0
BBX 12 15 1 -2
BITMAP
0010
7F90
4010
4010
4010
4010
7F90
0410
0410
0410
0410
FFD0
0010
0010
0010
ENDCHAR
STARTCHAR char0x3548
ENCODING 13640
SWIDTH 1333 0
DWIDTH 16 0
BBX 12 14 1 -1
BITMAP
0010
7F90
4010
4010
4010
7F90
0410
0410
FFD0
0010
2010
2000
2000
3FF0
ENDCHAR
STARTCHAR char0x3549
ENCODING 13641
SWIDTH 1333 0
DWIDTH 16 0
BBX 12 14 1 -1
BITMAP
0010
7F90
4010
4010
7F90
0410
0410
FFD0
0000
3FF0
0010
3FF0
2000
3FF0
ENDCHAR
STARTCHAR char0x354A
ENCODING 13642
SWIDTH 1333 0
DWIDTH 16 0
BBX 12 14 1 -1
BITMAP
0010
7F90
4010
4010
7F90
0410
0410
FFD0
0000
3FF0
2010
2010
2010
3FF0
ENDCHAR
STARTCHAR char0x354B
ENCODING 13643
SWIDTH 1333 0
DWIDTH 16 0
BBX 12 14 1 -1
BITMAP
0010
7F90
4010
4010
7F90
0410
0410
FFD0
0000
2010
2010
3FF0
2010
3FF0
ENDCHAR
STARTCHAR char0x354C
ENCODING 13644
SWIDTH 1333 0
DWIDTH 16 0
BBX 13 15 1 -2
BITMAP
0010
7F90
4010
4010
4010
7F90
0410
0410
FFD0
0010
0110
0100
0380
0CE0
7038
ENDCHAR
STARTCHAR char0x354D
ENCODING 13645
SWIDTH 1333 0
DWIDTH 16 0
BBX 14 11 1 1
BITMAP
3FF0
2000
2000
2000
2000
2000
3FF0
0840
0840
0840
FFFC
ENDCHAR
STARTCHAR char0x354E
ENCODING 13646
SWIDTH 1333 0
DWIDTH 16 0
BBX 14 15 1 -2
BITMAP
3FF0
2000
2000
2000
2000
3FF0
0000
0000
FFFC
0200
0200
0200
0200
0200
0200
ENDCHAR
STARTCHAR char0x354F
ENCODING 13647
SWIDTH 1333 0
DWIDTH 16 0
BBX 14 15 1 -2
BITMAP
3FF0
2000
2000
2000
3FF0
0000
0000
FFFC
0200
0200
3FF0
0010
0010
0010
0010
ENDCHAR
STARTCHAR char0x3550
ENCODING 13648
SWIDTH 1333 0
DWIDTH 16 0
BBX 14 14 1 -1
BITMAP
3FF0
2000
2000
2000
3FF0
0000
0000
FFFC
0200
2200
2200
2200
2000
3FF0
ENDCHAR
STARTCHAR char0x3551
ENCODING 13649
SWIDTH 1333 0
DWIDTH 16 0
BBX 14 14 1 -1
BITMAP
3FF0
2000
2000
3FF0
0000
FFFC
0200
0200
3FF0
0010
3FF0
2000
2000
3FF0
ENDCHAR
STARTCHAR char0x3552
ENCODING 13650
SWIDTH 1333 0
DWIDTH 16 0
BBX 14 14 1 -1
BITMAP
3FF0
2000
2000
2000
3FF0
0000
FFFC
0200
0200
3FF0
2010
2010
2010
3FF0
ENDCHAR
STARTCHAR char0x3553
ENCODING 13651
SWIDTH 1333 0
DWIDTH 16 0
BBX 14 14 1 -1
BITMAP
3FF0
2000
2000
2000
3FF0
0000
FFFC
0200
0200
2210
2010
3FF0
2010
3FF0
ENDCHAR
STARTCHAR char0x3554
ENCODING 13652
SWIDTH 1333 0
DWIDTH 16 0
BBX 14 15 1 -2
BITMAP
3FF0
2000
2000
2000
3FF0
0000
0000
FFFC
0200
0000
0200
0200
0700
1CC0
7038
ENDCHAR
STARTCHAR char0x3555
ENCODING 13653
SWIDTH 1333 0
DWIDTH 16 0
BBX 14 14 1 -1
BITMAP
3FF0
2000
2000
2000
3FF0
0000
FFFC
0200
0200
1FC0
3030
2010
3030
0FC0
ENDCHAR
STARTCHAR char0x3556
ENCODING 13654
SWIDTH 1333 0
DWIDTH 16 0
BBX 13 15 1 -2
BITMAP
0008
3F88
2008
2008
2008
3F88
0008
0008
FFE8
0408
04F8
0408
0408
0408
0008
ENDCHAR
STARTCHAR char0x3557
ENCODING 13655
SWIDTH 1333 0
DWIDTH 16 0
BBX 14 15 1 -2
BITMAP
3F90
2010
2010
3F90
0010
FFF0
0810
08F0
0810
0010
0020
1020
1C70
34C8
6304
ENDCHAR
STARTCHAR char0x3558
ENCODING 13656
SWIDTH 1333 0
DWIDTH 16 0
BBX 13 15 1 -2
BITMAP
0048
7F48
4048
4048
4048
7F48
0048
0048
FFC8
0848
09C8
0848
0848
0848
0048
ENDCHAR
STARTCHAR char0x3559
ENCODING 13657
SWIDTH 1333 0
DWIDTH 16 0
BBX 12 14 1 -1
BITMAP
0050
7E50
4050
4050
7E50
0050
FF50
1050
13D0
0000
0FE0
1010
1010
0FE0
ENDCHAR
STARTCHAR char0x355A
ENCODING 13658
SWIDTH 1333 0
DWIDTH 16 0
BBX 13 15 1 -2
BITMAP
0008
3F88
2008
2008
2008
3F88
0008
0008
FFE8
0408
0408
0408
0408
0408
0008
ENDCHAR
STARTCHAR char0x355B
ENCODING 13659
SWIDTH 1333 0
DWIDTH 16 0
BBX 12 14 1 -1
BITMAP
0010
3F90
2010
2010
2010
3F90
0010
FFD0
0410
0410
2410
2000
2000
3FF0
ENDCHAR
STARTCHAR char0x355C
ENCODING 13660
SWIDTH 1333 0
DWIDTH 16 0
BBX 12 14 1 -1
BITMAP
0010
3F10
2010
2010
3F90
0010
FFD0
0410
0400
1FF0
0010
1FF0
1000
1FF0
ENDCHAR
STARTCHAR char0x355D
ENCODING 13661
SWIDTH 1333 0
DWIDTH 16 0
BBX 12 14 1 -1
BITMAP
0010
3F90
2010
2010
3F90
0010
FFD0
0410
0400
1010
1010
1FF0
1010
1FF0
ENDCHAR
STARTCHAR char0x355E
ENCODING 13662
SWIDTH 1333 0
DWIDTH 16 0
BBX 14 15 1 -2
BITMAP
0010
3F90
2010
2010
2010
3F90
0010
FFD0
0810
0810
0910
0100
0380
0E60
381C
ENDCHAR
STARTCHAR char0x355F
ENCODING 13663
SWIDTH 1333 0
DWIDTH 16 0
BBX 13 14 1 -1
BITMAP
0008
3F88
2008
2008
3F88
0008
FFE8
0408
0408
07E0
1818
1008
1818
07E0
ENDCHAR
STARTCHAR char0x3560
ENCODING 13664
SWIDTH 1333 0
DWIDTH 16 0
BBX 14 15 1 -2
BITMAP
3FF0
2000
2000
2000
2000
3FF0
0000
0000
FFFC
0840
0840
0840
0840
0840
0840
ENDCHAR
STARTCHAR char0x3561
ENCODING 13665
SWIDTH 1333 0
DWIDTH 16 0
BBX 14 14 1 -1
BITMAP
3FF0
2000
2000
2000
3FF0
0000
0000
FFFC
0440
0440
2440
2000
2000
3FF0
ENDCHAR
STARTCHAR char0x3562
ENCODING 13666
SWIDTH 1333 0
DWIDTH 16 0
BBX 14 14 1 -1
BITMAP
3FF0
2000
2000
3FF0
0000
FFFC
0840
0840
3FF0
0010
3FF0
2000
2000
3FF0
ENDCHAR
STARTCHAR char0x3563
ENCODING 13667
SWIDTH 1333 0
DWIDTH 16 0
BBX 14 14 1 -1
BITMAP
3FF0
2000
2000
2000
3FF0
0000
FFFC
0840
0840
3FF0
2010
2010
2010
3FF0
ENDCHAR
STARTCHAR char0x3564
ENCODING 13668
SWIDTH 1333 0
DWIDTH 16 0
BBX 14 14 1 -1
BITMAP
3FF0
2000
2000
2000
3FF0
0000
FFFC
0840
0840
0FC0
3030
2010
3030
0FC0
ENDCHAR
STARTCHAR char0x3565
ENCODING 13669
SWIDTH 1333 0
DWIDTH 16 0
BBX 14 11 1 1
BITMAP
3FF0
2000
2000
2000
2000
2000
3FF0
0000
0000
0000
FFFC
ENDCHAR
STARTCHAR char0x3566
ENCODING 13670
SWIDTH 1333 0
DWIDTH 16 0
BBX 14 15 1 -2
BITMAP
3FF0
2000
2000
2000
3FF0
0000
0000
FFFC
0000
0000
3FF0
0010
0010
0010
0010
ENDCHAR
STARTCHAR char0x3567
ENCODING 13671
SWIDTH 1333 0
DWIDTH 16 0
BBX 14 14 1 -1
BITMAP
3FF0
2000
2000
2000
3FF0
0000
0000
FFFC
0000
2000
2000
2000
2000
3FF0
ENDCHAR
STARTCHAR char0x3568
ENCODING 13672
SWIDTH 1333 0
DWIDTH 16 0
BBX 14 14 1 -1
BITMAP
3FF0
2000
2000
2000
3FF0
0000
0000
FFFC
0000
3FF0
2000
2000
2000
3FF0
ENDCHAR
STARTCHAR char0x3569
ENCODING 13673
SWIDTH 1333 0
DWIDTH 16 0
BBX 14 14 1 -1
BITMAP
3FF0
2000
2000
3FF0
0000
0000
FFFC
0000
3FF0
0010
3FF0
2000
2000
3FF0
ENDCHAR
STARTCHAR char0x356A
ENCODING 13674
SWIDTH 1333 0
DWIDTH 16 0
BBX 14 14 1 -1
BITMAP
3FF0
2000
2000
3FF0
0000
0000
FFFC
0000
3CF0
0490
3C90
2090
2090
3CF0
ENDCHAR
STARTCHAR char0x356B
ENCODING 13675
SWIDTH 1333 0
DWIDTH 16 0
BBX 14 14 1 -1
BITMAP
3FF0
2000
2000
2000
3FF0
0000
0000
FFFC
0000
3FF0
2010
2010
2010
3FF0
ENDCHAR
STARTCHAR char0x356C
ENCODING 13676
SWIDTH 1333 0
DWIDTH 16 0
BBX 14 14 1 -1
BITMAP
3FF0
2000
2000
2000
3FF0
0000
0000
FFFC
0000
2010
2010
3FF0
2010
3FF0
ENDCHAR
STARTCHAR char0x356D
ENCODING 13677
SWIDTH 1333 0
DWIDTH 16 0
BBX 14 15 1 -2
BITMAP
3FF0
2000
2000
2000
3FF0
0000
0000
FFFC
0000
0200
0200
0700
0C80
1860
6018
ENDCHAR
STARTCHAR char0x356E
ENCODING 13678
SWIDTH 1333 0
DWIDTH 16 0
BBX 14 14 1 -1
BITMAP
3FF0
2000
2000
2000
3FF0
0000
FFFC
0000
0FC0
3030
2010
2010
3030
0FC0
ENDCHAR
STARTCHAR char0x356F
ENCODING 13679
SWIDTH 1333 0
DWIDTH 16 0
BBX 13 15 1 -2
BITMAP
0008
3F88
2008
2008
2008
2008
2008
3FC8
0008
0008
0008
FFE8
0008
0008
0008
ENDCHAR
STARTCHAR char0x3570
ENCODING 13680
SWIDTH 1333 0
DWIDTH 16 0
BBX 10 15 3 -2
BITMAP
0040
FE40
8040
8040
8040
8040
8040
8040
8040
8040
FE40
0040
0040
0040
0040
ENDCHAR
STARTCHAR char0x3571
ENCODING 13681
SWIDTH 1333 0
DWIDTH 16 0
BBX 10 15 3 -2
BITMAP
0040
FE40
8040
8040
8040
8040
FE40
0040
0000
7FC0
0040
0040
0040
0040
0040
ENDCHAR
STARTCHAR char0x3572
ENCODING 13682
SWIDTH 1333 0
DWIDTH 16 0
BBX 10 14 3 -1
BITMAP
0040
FE40
8040
8040
8040
8040
8040
FE40
0040
0040
4000
4000
4000
7FC0
ENDCHAR
STARTCHAR char0x3573
ENCODING 13683
SWIDTH 1333 0
DWIDTH 16 0
BBX 9 13 3 -1
BITMAP
FE80
8080
8080
8080
8080
FE80
0000
0000
7F80
4000
4000
4000
7F80
ENDCHAR
STARTCHAR char0x3574
ENCODING 13684
SWIDTH 1333 0
DWIDTH 16 0
BBX 10 14 3 -1
BITMAP
0040
FE40
8040
8040
8040
8040
FE40
0000
7FC0
0040
7FC0
4000
4000
7FC0
ENDCHAR
STARTCHAR char0x3575
ENCODING 13685
SWIDTH 1333 0
DWIDTH 16 0
BBX 10 14 3 -1
BITMAP
0040
FE40
8040
8040
8040
8040
FE40
0040
0000
7FC0
4040
4040
4040
7FC0
ENDCHAR
STARTCHAR char0x3576
ENCODING 13686
SWIDTH 1333 0
DWIDTH 16 0
BBX 10 14 3 -1
BITMAP
0040
FE40
8040
8040
8040
8040
FE40
0040
0000
4040
4040
7FC0
4040
7FC0
ENDCHAR
STARTCHAR char0x3577
ENCODING 13687
SWIDTH 1333 0
DWIDTH 16 0
BBX 11 15 3 -2
BITMAP
0040
FE40
8040
8040
8040
8040
8040
FE40
0040
0440
0400
0A00
1B00
3180
C060
ENDCHAR
STARTCHAR char0x3578
ENCODING 13688
SWIDTH 1333 0
DWIDTH 16 0
BBX 12 15 3 -2
BITMAP
0040
FE40
8040
8040
8040
8040
8040
FF40
0040
0000
1080
1080
2940
6760
C630
ENDCHAR
STARTCHAR char0x3579
ENCODING 13689
SWIDTH 1333 0
DWIDTH 16 0
BBX 11 14 3 -1
BITMAP
0020
FE20
8020
8020
8020
8020
FF20
0020
0000
1F80
6060
4020
6060
1F80
ENDCHAR
STARTCHAR char0x357A
ENCODING 13690
SWIDTH 1333 0
DWIDTH 16 0
BBX 10 14 3 -2
BITMAP
FE80
8080
8080
8080
8080
FE80
0000
0000
7F80
0400
0E00
1200
2100
C0C0
ENDCHAR
STARTCHAR char0x357B
ENCODING 13691
SWIDTH 1333 0
DWIDTH 16 0
BBX 14 15 2 -2
BITMAP
0020
F7A0
8420
8420
8420
8420
843C
8420
8420
8420
F7A0
0020
0020
0020
0020
ENDCHAR
STARTCHAR char0x357C
ENCODING 13692
SWIDTH 1333 0
DWIDTH 16 0
BBX 13 15 2 -2
BITMAP
0020
F720
8420
8420
8438
8420
F7A0
0020
0000
7FE0
0020
0020
0020
0020
0020
ENDCHAR
STARTCHAR char0x357D
ENCODING 13693
SWIDTH 1333 0
DWIDTH 16 0
BBX 13 14 2 -1
BITMAP
0020
F720
8420
8420
8420
8438
8420
F7A0
0020
2020
2020
2000
2000
3FE0
ENDCHAR
STARTCHAR char0x357E
ENCODING 13694
SWIDTH 1333 0
DWIDTH 16 0
BBX 13 14 2 -1
BITMAP
0020
F720
8420
8438
8420
8420
F7A0
0000
3FE0
0020
3FE0
2000
2000
3FE0
ENDCHAR
STARTCHAR char0x3621
ENCODING 13857
SWIDTH 1333 0
DWIDTH 16 0
BBX 13 14 2 -1
BITMAP
0020
F720
8420
8420
8438
8420
F7A0
0020
0000
3FE0
2020
2020
2020
3FE0
ENDCHAR
STARTCHAR char0x3622
ENCODING 13858
SWIDTH 1333 0
DWIDTH 16 0
BBX 13 14 2 -1
BITMAP
0020
F720
8420
8438
8420
8420
F7A0
0000
2020
2020
3FE0
2020
2020
3FE0
ENDCHAR
STARTCHAR char0x3623
ENCODING 13859
SWIDTH 1333 0
DWIDTH 16 0
BBX 13 15 2 -2
BITMAP
0020
F720
8420
8420
8438
8420
8420
F7A0
0020
0220
0200
0700
0D80
18C0
6030
ENDCHAR
STARTCHAR char0x3624
ENCODING 13860
SWIDTH 1333 0
DWIDTH 16 0
BBX 13 15 2 -2
BITMAP
0020
E720
8420
8420
8438
8420
8420
F7A0
0000
1040
1040
1840
2CA0
4790
8318
ENDCHAR
STARTCHAR char0x3625
ENCODING 13861
SWIDTH 1333 0
DWIDTH 16 0
BBX 13 14 2 -1
BITMAP
0020
F720
8420
8420
8438
8420
F7A0
0020
0020
0F80
3060
2020
3060
0F80
ENDCHAR
STARTCHAR char0x3626
ENCODING 13862
SWIDTH 1333 0
DWIDTH 16 0
BBX 13 14 2 -1
BITMAP
0020
F720
8420
8420
8438
8420
F7A0
0020
0200
7FF0
0000
1F80
2040
1F80
ENDCHAR
STARTCHAR char0x3627
ENCODING 13863
SWIDTH 1333 0
DWIDTH 16 0
BBX 12 15 2 -2
BITMAP
0090
EE90
8890
8890
8890
8890
88F0
8890
8890
8890
FF90
0090
0090
0090
0090
ENDCHAR
STARTCHAR char0x3628
ENCODING 13864
SWIDTH 1333 0
DWIDTH 16 0
BBX 12 15 2 -2
BITMAP
0090
EE90
8890
8890
88F0
8890
FF90
0090
0000
3FF0
0010
0010
0010
0010
0010
ENDCHAR
STARTCHAR char0x3629
ENCODING 13865
SWIDTH 1333 0
DWIDTH 16 0
BBX 12 14 2 -1
BITMAP
0090
EE90
8890
8890
8890
88F0
8890
FF90
0090
1090
1000
1000
1000
1FF0
ENDCHAR
STARTCHAR char0x362A
ENCODING 13866
SWIDTH 1333 0
DWIDTH 16 0
BBX 12 14 2 -1
BITMAP
0090
EE90
8890
8890
88F0
8890
FF90
0000
1FF0
0010
1FF0
1000
1000
1FF0
ENDCHAR
STARTCHAR char0x362B
ENCODING 13867
SWIDTH 1333 0
DWIDTH 16 0
BBX 12 14 2 -1
BITMAP
0090
EE90
8890
8890
88F0
8890
FF90
0090
0000
1FF0
1010
1010
1010
1FF0
ENDCHAR
STARTCHAR char0x362C
ENCODING 13868
SWIDTH 1333 0
DWIDTH 16 0
BBX 12 14 2 -1
BITMAP
0090
EE90
8890
8890
88F0
8890
FF90
0000
1010
1010
1FF0
1010
1010
1FF0
ENDCHAR
STARTCHAR char0x362D
ENCODING 13869
SWIDTH 1333 0
DWIDTH 16 0
BBX 13 15 2 -2
BITMAP
0090
EE90
8890
8890
88F0
8890
8890
FF90
0090
0210
0200
0700
0C80
1860
6018
ENDCHAR
STARTCHAR char0x362E
ENCODING 13870
SWIDTH 1333 0
DWIDTH 16 0
BBX 13 15 2 -2
BITMAP
0090
EE90
8890
8890
88F0
8890
8890
FF90
0010
1040
1040
1840
34A0
67B0
C318
ENDCHAR
STARTCHAR char0x362F
ENCODING 13871
SWIDTH 1333 0
DWIDTH 16 0
BBX 12 14 2 -1
BITMAP
0090
EE90
8890
8890
88F0
8890
FF90
0090
0010
0FC0
3030
2010
3030
0FC0
ENDCHAR
STARTCHAR char0x3630
ENCODING 13872
SWIDTH 1333 0
DWIDTH 16 0
BBX 11 15 2 -2
BITMAP
0020
EF20
8820
8820
8820
89E0
8820
8820
8820
8820
FFA0
0020
0020
0020
0020
ENDCHAR
STARTCHAR char0x3631
ENCODING 13873
SWIDTH 1333 0
DWIDTH 16 0
BBX 11 15 2 -2
BITMAP
0020
FF20
8820
88E0
8820
8820
FFA0
0020
0000
3FE0
0020
0020
0020
0020
0020
ENDCHAR
STARTCHAR char0x3632
ENCODING 13874
SWIDTH 1333 0
DWIDTH 16 0
BBX 11 14 2 -1
BITMAP
0020
FF20
8820
8820
88E0
8820
8820
FFA0
0020
2020
2020
2000
2000
3FE0
ENDCHAR
STARTCHAR char0x3633
ENCODING 13875
SWIDTH 1333 0
DWIDTH 16 0
BBX 11 14 2 -1
BITMAP
0020
FF20
8820
89E0
8820
8820
FFA0
0000
3FE0
0020
3FE0
2000
2000
3FE0
ENDCHAR
STARTCHAR char0x3634
ENCODING 13876
SWIDTH 1333 0
DWIDTH 16 0
BBX 12 14 2 -1
BITMAP
0010
F790
8410
84F0
8410
8410
F7D0
0000
7DF0
0510
7D10
4110
4110
7DF0
ENDCHAR
STARTCHAR char0x3635
ENCODING 13877
SWIDTH 1333 0
DWIDTH 16 0
BBX 12 14 2 -1
BITMAP
0010
F790
8410
84F0
8410
8410
F7D0
0000
7D10
0510
7DF0
4110
4110
7DF0
ENDCHAR
STARTCHAR char0x3636
ENCODING 13878
SWIDTH 1333 0
DWIDTH 16 0
BBX 11 14 2 -1
BITMAP
0020
FF20
8820
88E0
8820
8820
FFA0
0020
0000
3FE0
2020
2020
2020
3FE0
ENDCHAR
STARTCHAR char0x3637
ENCODING 13879
SWIDTH 1333 0
DWIDTH 16 0
BBX 11 14 2 -1
BITMAP
0020
FF20
8820
89E0
8820
8820
FFA0
0000
2020
2020
3FE0
2020
2020
3FE0
ENDCHAR
STARTCHAR char0x3638
ENCODING 13880
SWIDTH 1333 0
DWIDTH 16 0
BBX 12 15 2 -2
BITMAP
0020
FF20
8820
8820
89E0
8820
8820
FFA0
0020
0220
0200
0700
0D80
18C0
6030
ENDCHAR
STARTCHAR char0x3639
ENCODING 13881
SWIDTH 1333 0
DWIDTH 16 0
BBX 13 15 2 -2
BITMAP
0010
E790
8410
8410
84F0
8410
8410
F790
0010
1040
1040
1840
2CA0
47B0
8318
ENDCHAR
STARTCHAR char0x363A
ENCODING 13882
SWIDTH 1333 0
DWIDTH 16 0
BBX 12 14 2 -1
BITMAP
0010
F790
8410
84F0
8410
8410
F7D0
0010
0010
0FC0
3030
2010
3030
0FC0
ENDCHAR
STARTCHAR char0x363B
ENCODING 13883
SWIDTH 1333 0
DWIDTH 16 0
BBX 10 13 2 -1
BITMAP
FF40
8840
88C0
8840
8840
FFC0
0000
0200
7FC0
0000
1F80
2040
1F80
ENDCHAR
STARTCHAR char0x363C
ENCODING 13884
SWIDTH 1333 0
DWIDTH 16 0
BBX 12 15 2 -2
BITMAP
0090
EE90
8890
8890
8890
8B90
8890
8890
8890
8890
FF90
0090
0090
0090
0090
ENDCHAR
STARTCHAR char0x363D
ENCODING 13885
SWIDTH 1333 0
DWIDTH 16 0
BBX 12 15 2 -2
BITMAP
0050
EE50
8850
89D0
8850
8850
FF50
0050
0000
3FF0
0010
0010
0010
0010
0010
ENDCHAR
STARTCHAR char0x363E
ENCODING 13886
SWIDTH 1333 0
DWIDTH 16 0
BBX 12 14 2 -1
BITMAP
0050
EE50
8850
8850
89D0
8850
8850
FF50
0050
1050
1000
1000
1000
1FF0
ENDCHAR
STARTCHAR char0x363F
ENCODING 13887
SWIDTH 1333 0
DWIDTH 16 0
BBX 12 14 2 -1
BITMAP
0050
EE50
8850
89D0
8850
8850
FF50
0000
1FF0
0010
1FF0
1000
1000
1FF0
ENDCHAR
STARTCHAR char0x3640
ENCODING 13888
SWIDTH 1333 0
DWIDTH 16 0
BBX 12 14 2 -1
BITMAP
0050
EE50
8850
89D0
8850
8850
FF50
0050
0000
1FF0
1010
1010
1010
1FF0
ENDCHAR
STARTCHAR char0x3641
ENCODING 13889
SWIDTH 1333 0
DWIDTH 16 0
BBX 12 14 2 -1
BITMAP
0050
EE50
8850
89D0
8850
8850
FF50
0000
1010
1010
1FF0
1010
1010
1FF0
ENDCHAR
STARTCHAR char0x3642
ENCODING 13890
SWIDTH 1333 0
DWIDTH 16 0
BBX 12 15 2 -2
BITMAP
0050
EE50
8850
8850
8BD0
8850
8850
FE50
0050
0210
0200
0700
0980
10C0
6030
ENDCHAR
STARTCHAR char0x3643
ENCODING 13891
SWIDTH 1333 0
DWIDTH 16 0
BBX 13 15 2 -2
BITMAP
0010
EE90
8890
8890
8990
8890
8890
FF10
0000
1040
1040
1840
34A0
67B0
C318
ENDCHAR
STARTCHAR char0x3644
ENCODING 13892
SWIDTH 1333 0
DWIDTH 16 0
BBX 12 14 2 -1
BITMAP
0050
EE50
8850
89D0
8850
8850
FF50
0050
0000
0FC0
3030
2010
3030
0FC0
ENDCHAR
STARTCHAR char0x3645
ENCODING 13893
SWIDTH 1333 0
DWIDTH 16 0
BBX 11 15 2 -2
BITMAP
0020
EF20
8820
8820
89E0
8820
8820
89E0
8820
8820
FFA0
0020
0020
0020
0020
ENDCHAR
STARTCHAR char0x3646
ENCODING 13894
SWIDTH 1333 0
DWIDTH 16 0
BBX 13 15 2 -2
BITMAP
0010
E790
8410
84F0
8410
84F0
8410
F790
0010
1040
1040
1840
2CA0
47B0
8318
ENDCHAR
STARTCHAR char0x3647
ENCODING 13895
SWIDTH 1333 0
DWIDTH 16 0
BBX 14 11 1 1
BITMAP
7DF0
4100
4100
4100
4100
7FF8
0000
0200
0200
0200
FFFC
ENDCHAR
STARTCHAR char0x3648
ENCODING 13896
SWIDTH 1333 0
DWIDTH 16 0
BBX 14 15 1 -2
BITMAP
3DF0
2100
2100
2100
3FF8
0200
0200
FFFC
0000
0000
3FF0
0010
0010
0010
0010
ENDCHAR
STARTCHAR char0x3649
ENCODING 13897
SWIDTH 1333 0
DWIDTH 16 0
BBX 14 14 1 -1
BITMAP
3DF0
2100
2100
2100
3FF8
0200
0200
FFFC
0000
2000
2000
2000
2000
3FF0
ENDCHAR
STARTCHAR char0x364A
ENCODING 13898
SWIDTH 1333 0
DWIDTH 16 0
BBX 14 14 1 -1
BITMAP
3DF0
2100
2100
3FF8
0200
0200
FFFC
0000
3FF0
0010
3FF0
2000
2000
3FF0
ENDCHAR
STARTCHAR char0x364B
ENCODING 13899
SWIDTH 1333 0
DWIDTH 16 0
BBX 14 14 1 -1
BITMAP
3DF0
2100
2100
2100
3FF8
0200
0200
FFFC
0000
0FC0
3030
2010
3030
0FC0
ENDCHAR
STARTCHAR char0x364C
ENCODING 13900
SWIDTH 1333 0
DWIDTH 16 0
BBX 15 15 1 -2
BITMAP
0010
7BD0
4210
4210
4210
4210
7BDE
0010
0410
0410
0410
FFF0
0010
0010
0010
ENDCHAR
STARTCHAR char0x364D
ENCODING 13901
SWIDTH 1333 0
DWIDTH 16 0
BBX 14 14 1 -1
BITMAP
0010
7F90
4410
4410
7F9C
0410
0410
FFD0
0000
1FF0
0010
1FF0
1000
1FF0
ENDCHAR
STARTCHAR char0x364E
ENCODING 13902
SWIDTH 1333 0
DWIDTH 16 0
BBX 13 15 1 -2
BITMAP
0048
7748
4448
4448
4448
4448
7748
0078
0848
0848
0848
FFC8
0048
0048
0048
ENDCHAR
STARTCHAR char0x364F
ENCODING 13903
SWIDTH 1333 0
DWIDTH 16 0
BBX 12 15 1 -2
BITMAP
0010
7F90
4410
4410
4410
4410
7F90
0010
0410
0410
0410
FFD0
0010
0010
0010
ENDCHAR
STARTCHAR char0x3650
ENCODING 13904
SWIDTH 1333 0
DWIDTH 16 0
BBX 12 14 1 -1
BITMAP
0010
7B90
4210
4210
4210
7B90
0410
0410
FFD0
0010
1010
1000
1000
1FF0
ENDCHAR
STARTCHAR char0x3651
ENCODING 13905
SWIDTH 1333 0
DWIDTH 16 0
BBX 14 15 1 -2
BITMAP
3DF0
2100
2100
2100
2100
3FF0
0000
0000
FFFC
0200
0200
0200
0200
0200
0200
ENDCHAR
STARTCHAR char0x3652
ENCODING 13906
SWIDTH 1333 0
DWIDTH 16 0
BBX 14 15 1 -2
BITMAP
3DF0
2100
2100
2100
3FF0
0000
0000
FFFC
0200
0200
3FF0
0010
0010
0010
0010
ENDCHAR
STARTCHAR char0x3653
ENCODING 13907
SWIDTH 1333 0
DWIDTH 16 0
BBX 14 14 1 -1
BITMAP
3DF0
2100
2100
2100
3FF0
0000
0000
FFFC
0100
2100
2100
2100
2000
3FF0
ENDCHAR
STARTCHAR char0x3654
ENCODING 13908
SWIDTH 1333 0
DWIDTH 16 0
BBX 14 14 1 -1
BITMAP
3DF0
2100
2100
3FF0
0000
FFFC
0200
0200
3FF0
0010
3FF0
2000
2000
3FF0
ENDCHAR
STARTCHAR char0x3655
ENCODING 13909
SWIDTH 1333 0
DWIDTH 16 0
BBX 14 14 1 -1
BITMAP
3FF0
2100
2100
3FF0
0000
FFFC
0200
0040
3DF8
0400
3CE0
2110
2110
3EE0
ENDCHAR
STARTCHAR char0x3656
ENCODING 13910
SWIDTH 1333 0
DWIDTH 16 0
BBX 14 14 1 -1
BITMAP
3DF0
2100
2100
2100
3FF0
0000
FFFC
0200
0200
3FF0
2010
2010
2010
3FF0
ENDCHAR
STARTCHAR char0x3657
ENCODING 13911
SWIDTH 1333 0
DWIDTH 16 0
BBX 14 14 1 -1
BITMAP
3DF0
2100
2100
2100
3FF0
0000
FFFC
0200
0200
1FC0
3030
2010
3030
0FC0
ENDCHAR
STARTCHAR char0x3658
ENCODING 13912
SWIDTH 1333 0
DWIDTH 16 0
BBX 13 15 1 -2
BITMAP
0028
7728
4428
4428
4428
7728
0028
0028
FFA8
0828
09E8
0828
0828
0828
0828
ENDCHAR
STARTCHAR char0x3659
ENCODING 13913
SWIDTH 1333 0
DWIDTH 16 0
BBX 13 15 1 -2
BITMAP
0008
7BC8
4208
4208
4208
7BC8
0008
0008
FFE8
0408
0408
0408
0408
0408
0408
ENDCHAR
STARTCHAR char0x365A
ENCODING 13914
SWIDTH 1333 0
DWIDTH 16 0
BBX 13 14 1 -1
BITMAP
0008
7BC8
4208
4208
4208
7BC8
0008
FFE8
0408
0408
1408
1000
1000
1FF8
ENDCHAR
STARTCHAR char0x365B
ENCODING 13915
SWIDTH 1333 0
DWIDTH 16 0
BBX 13 14 1 -1
BITMAP
0008
7BC8
4208
4208
7BC8
0008
FFE8
0408
0400
1FF8
0008
1FF8
1000
1FF8
ENDCHAR
STARTCHAR char0x365C
ENCODING 13916
SWIDTH 1333 0
DWIDTH 16 0
BBX 13 14 1 -1
BITMAP
0008
7BC8
4208
4208
7BC8
0008
FFE8
0408
0400
1FF8
1008
1008
1008
1FF8
ENDCHAR
STARTCHAR char0x365D
ENCODING 13917
SWIDTH 1333 0
DWIDTH 16 0
BBX 13 14 1 -1
BITMAP
0008
7BC8
4208
4208
7BC8
0008
FFE8
0408
0400
1408
1008
1FF8
1008
1FF8
ENDCHAR
STARTCHAR char0x365E
ENCODING 13918
SWIDTH 1333 0
DWIDTH 16 0
BBX 13 14 1 -1
BITMAP
0008
7BC8
4208
4208
7BC8
0008
FFE8
0408
0408
07E0
3818
2008
3018
0FE0
ENDCHAR
STARTCHAR char0x365F
ENCODING 13919
SWIDTH 1333 0
DWIDTH 16 0
BBX 14 11 1 1
BITMAP
3DF0
2100
2100
2100
2100
2100
3FF8
0000
0000
0000
FFFC
ENDCHAR
STARTCHAR char0x3660
ENCODING 13920
SWIDTH 1333 0
DWIDTH 16 0
BBX 14 15 1 -2
BITMAP
3DF0
2100
2100
2100
3FF0
0000
0000
FFFC
0000
0000
3FF0
0010
0010
0010
0010
ENDCHAR
STARTCHAR char0x3661
ENCODING 13921
SWIDTH 1333 0
DWIDTH 16 0
BBX 14 14 1 -1
BITMAP
3DF0
2100
2100
2100
3FF8
0000
0000
FFFC
0000
0000
2000
2000
2000
3FF0
ENDCHAR
STARTCHAR char0x3662
ENCODING 13922
SWIDTH 1333 0
DWIDTH 16 0
BBX 14 14 1 -1
BITMAP
3DF0
2100
2100
2100
3FF0
0000
0000
FFFC
0000
3FF0
2000
2000
2000
3FF0
ENDCHAR
STARTCHAR char0x3663
ENCODING 13923
SWIDTH 1333 0
DWIDTH 16 0
BBX 14 14 1 -1
BITMAP
3DF0
2100
2100
2100
3FF0
0000
FFFC
0000
3FF0
0010
3FF0
2000
2000
3FF0
ENDCHAR
STARTCHAR char0x3664
ENCODING 13924
SWIDTH 1333 0
DWIDTH 16 0
BBX 14 14 1 -1
BITMAP
3DF0
2100
2100
2100
3FF0
0000
0000
FFFC
0000
3FF0
2010
2010
2010
3FF0
ENDCHAR
STARTCHAR char0x3665
ENCODING 13925
SWIDTH 1333 0
DWIDTH 16 0
BBX 14 14 1 -1
BITMAP
3DF0
2100
2100
2100
3FF0
0000
FFFC
0000
2010
2010
3FF0
2010
2010
3FF0
ENDCHAR
STARTCHAR char0x3666
ENCODING 13926
SWIDTH 1333 0
DWIDTH 16 0
BBX 14 15 1 -2
BITMAP
3DF0
2100
2100
2100
3FF0
0000
0000
FFFC
0000
0200
0200
0700
0C80
1860
6018
ENDCHAR
STARTCHAR char0x3667
ENCODING 13927
SWIDTH 1333 0
DWIDTH 16 0
BBX 13 15 1 -2
BITMAP
0008
7BC8
4208
4208
4208
4208
7BC8
0008
0008
0008
0008
FFE8
0008
0008
0008
ENDCHAR
STARTCHAR char0x3668
ENCODING 13928
SWIDTH 1333 0
DWIDTH 16 0
BBX 13 14 1 -1
BITMAP
0008
7BC8
4208
4208
4208
7BC8
0008
0008
FFE8
0008
1008
1000
1000
1FF8
ENDCHAR
STARTCHAR char0x3669
ENCODING 13929
SWIDTH 1333 0
DWIDTH 16 0
BBX 13 14 1 -1
BITMAP
0008
7BC8
4208
4208
7BC8
0008
FFE8
0000
1FF8
0008
1FF8
1000
1000
1FF8
ENDCHAR
STARTCHAR char0x366A
ENCODING 13930
SWIDTH 1333 0
DWIDTH 16 0
BBX 13 14 1 -1
BITMAP
0008
7BC8
4208
4208
4208
7BC8
0008
FFE8
0000
1FF8
1008
1008
1008
1FF8
ENDCHAR
STARTCHAR char0x366B
ENCODING 13931
SWIDTH 1333 0
DWIDTH 16 0
BBX 13 14 1 -1
BITMAP
0008
7BC8
4208
4208
4208
7BC8
0008
FFE8
0000
1008
1008
1FF8
1008
1FF8
ENDCHAR
STARTCHAR char0x366C
ENCODING 13932
SWIDTH 1333 0
DWIDTH 16 0
BBX 11 15 2 -2
BITMAP
0020
F7A0
8420
8420
8420
8420
8420
8420
8420
8420
F7A0
0020
0020
0020
0020
ENDCHAR
STARTCHAR char0x366D
ENCODING 13933
SWIDTH 1333 0
DWIDTH 16 0
BBX 11 14 2 -1
BITMAP
0020
F720
8420
8420
8420
8420
8420
F7A0
0020
2020
2020
2000
2000
3FE0
ENDCHAR
STARTCHAR char0x366E
ENCODING 13934
SWIDTH 1333 0
DWIDTH 16 0
BBX 11 14 2 -1
BITMAP
0020
F720
8420
8420
8420
8420
F7A0
0000
3FE0
0020
3FE0
2000
2000
3FE0
ENDCHAR
STARTCHAR char0x366F
ENCODING 13935
SWIDTH 1333 0
DWIDTH 16 0
BBX 11 14 2 -1
BITMAP
0020
F720
8420
8420
8420
8420
F7A0
0020
0000
3FE0
2020
2020
2020
3FE0
ENDCHAR
STARTCHAR char0x3670
ENCODING 13936
SWIDTH 1333 0
DWIDTH 16 0
BBX 11 14 2 -1
BITMAP
0020
F720
8420
8420
8420
8420
F7A0
0000
2020
2020
3FE0
2020
2020
3FE0
ENDCHAR
STARTCHAR char0x3671
ENCODING 13937
SWIDTH 1333 0
DWIDTH 16 0
BBX 12 15 2 -2
BITMAP
0020
F720
8420
8420
8420
8420
8420
F7A0
0020
0220
0200
0500
0C80
1040
6030
ENDCHAR
STARTCHAR char0x3672
ENCODING 13938
SWIDTH 1333 0
DWIDTH 16 0
BBX 12 14 2 -1
BITMAP
0010
F790
8410
8410
8410
8410
F7D0
0010
0010
0FC0
3030
2010
3030
0FC0
ENDCHAR
STARTCHAR char0x3673
ENCODING 13939
SWIDTH 1333 0
DWIDTH 16 0
BBX 13 15 2 -2
BITMAP
0040
FC40
0440
0440
0440
FC40
8078
8040
8040
8040
FF40
0040
0040
0040
0040
ENDCHAR
STARTCHAR char0x3674
ENCODING 13940
SWIDTH 1333 0
DWIDTH 16 0
BBX 13 15 2 -2
BITMAP
0020
FE20
0220
0220
FE38
8020
8020
FF20
0020
0000
7FE0
0020
0020
0020
0020
ENDCHAR
STARTCHAR char0x3675
ENCODING 13941
SWIDTH 1333 0
DWIDTH 16 0
BBX 13 14 2 -1
BITMAP
0020
FE20
0220
0220
FE20
8038
8020
8020
FF20
0020
2000
2000
2000
3FE0
ENDCHAR
STARTCHAR char0x3676
ENCODING 13942
SWIDTH 1333 0
DWIDTH 16 0
BBX 13 14 2 -1
BITMAP
0020
FE20
0220
FE38
8020
8020
FF20
0000
3FE0
0020
3FE0
2000
2000
3FE0
ENDCHAR
STARTCHAR char0x3677
ENCODING 13943
SWIDTH 1333 0
DWIDTH 16 0
BBX 13 14 2 -1
BITMAP
0020
FE20
0220
0220
FE38
8020
8020
FF20
0000
3FE0
2020
2020
2020
3FE0
ENDCHAR
STARTCHAR char0x3678
ENCODING 13944
SWIDTH 1333 0
DWIDTH 16 0
BBX 13 14 2 -1
BITMAP
0020
FE20
0220
FE38
8020
8020
FF20
0000
2020
2020
3FE0
2020
2020
3FE0
ENDCHAR
STARTCHAR char0x3679
ENCODING 13945
SWIDTH 1333 0
DWIDTH 16 0
BBX 13 15 2 -2
BITMAP
0020
FE20
0220
0220
FE20
8038
8020
FF20
0020
0220
0200
0700
0980
30C0
C030
ENDCHAR
STARTCHAR char0x367A
ENCODING 13946
SWIDTH 1333 0
DWIDTH 16 0
BBX 13 15 2 -2
BITMAP
0020
FE20
0220
0220
FE38
8020
8020
FF20
0020
0000
1080
1080
29C0
6720
C618
ENDCHAR
STARTCHAR char0x367B
ENCODING 13947
SWIDTH 1333 0
DWIDTH 16 0
BBX 13 14 2 -1
BITMAP
0020
FE20
0220
0220
FE38
8020
8020
FF20
0000
1F80
6060
4020
6060
1F80
ENDCHAR
STARTCHAR char0x367C
ENCODING 13948
SWIDTH 1333 0
DWIDTH 16 0
BBX 13 15 2 -2
BITMAP
0020
FE20
0220
0220
FE38
8020
8020
FF20
0020
0000
7FE0
0400
0E00
3180
E070
ENDCHAR
STARTCHAR char0x367D
ENCODING 13949
SWIDTH 1333 0
DWIDTH 16 0
BBX 13 14 2 -1
BITMAP
0020
FE20
0220
0220
FE38
8020
8020
FF20
0000
7FE0
1080
1080
1080
7FE0
ENDCHAR
STARTCHAR char0x367E
ENCODING 13950
SWIDTH 1333 0
DWIDTH 16 0
BBX 13 14 2 -1
BITMAP
0020
FC20
0420
FC38
8020
8020
FF20
0020
0400
7FE0
0000
1F80
2040
1F80
ENDCHAR
STARTCHAR char0x3721
ENCODING 14113
SWIDTH 1333 0
DWIDTH 16 0
BBX 12 15 2 -2
BITMAP
0090
FC90
0490
0490
0490
FC90
80F0
8090
8090
8090
FE90
0090
0090
0090
0090
ENDCHAR
STARTCHAR char0x3722
ENCODING 14114
SWIDTH 1333 0
DWIDTH 16 0
BBX 12 15 2 -2
BITMAP
0090
FC90
0490
0490
FCF0
8090
8090
FE90
0090
0000
3FF0
0010
0010
0010
0010
ENDCHAR
STARTCHAR char0x3723
ENCODING 14115
SWIDTH 1333 0
DWIDTH 16 0
BBX 12 14 2 -1
BITMAP
0090
FC90
0490
0490
FC90
80F0
8090
FE90
0090
2090
2000
2000
2000
3FF0
ENDCHAR
STARTCHAR char0x3724
ENCODING 14116
SWIDTH 1333 0
DWIDTH 16 0
BBX 12 14 2 -1
BITMAP
0090
FC90
0490
FCF0
8090
8090
FE90
0000
3FF0
0010
3FF0
2000
2000
3FF0
ENDCHAR
STARTCHAR char0x3725
ENCODING 14117
SWIDTH 1333 0
DWIDTH 16 0
BBX 12 14 2 -1
BITMAP
0090
FC90
0490
0490
FCF0
8090
8090
FE90
0000
3FF0
2010
2010
2010
3FF0
ENDCHAR
STARTCHAR char0x3726
ENCODING 14118
SWIDTH 1333 0
DWIDTH 16 0
BBX 12 14 2 -1
BITMAP
0090
FC90
0490
FCF0
8090
8090
FE90
0000
2010
2010
3FF0
2010
2010
3FF0
ENDCHAR
STARTCHAR char0x3727
ENCODING 14119
SWIDTH 1333 0
DWIDTH 16 0
BBX 13 15 2 -2
BITMAP
0090
FC90
0490
0490
FCF0
8090
8090
FE90
0090
0210
0200
0700
0C80
1860
6018
ENDCHAR
STARTCHAR char0x3728
ENCODING 14120
SWIDTH 1333 0
DWIDTH 16 0
BBX 13 15 2 -2
BITMAP
0090
FC90
0490
0490
FCF0
8090
8090
FE90
0000
1040
1040
1840
24A0
6710
C208
ENDCHAR
STARTCHAR char0x3729
ENCODING 14121
SWIDTH 1333 0
DWIDTH 16 0
BBX 12 14 2 -1
BITMAP
0090
FC90
0490
0490
FCF0
8090
8090
FE90
0010
0FC0
3030
2010
3030
0FC0
ENDCHAR
STARTCHAR char0x372A
ENCODING 14122
SWIDTH 1333 0
DWIDTH 16 0
BBX 13 15 2 -2
BITMAP
0040
FC40
0440
0440
0478
FC40
8040
8040
8040
8078
FF40
0040
0040
0040
0040
ENDCHAR
STARTCHAR char0x372B
ENCODING 14123
SWIDTH 1333 0
DWIDTH 16 0
BBX 13 15 2 -2
BITMAP
0020
FE20
0238
0220
FE20
8020
8038
FF20
0020
0000
7FE0
0020
0020
0020
0020
ENDCHAR
STARTCHAR char0x372C
ENCODING 14124
SWIDTH 1333 0
DWIDTH 16 0
BBX 13 14 2 -1
BITMAP
0020
FE20
0220
0238
FE20
8020
8020
8038
FF20
0020
2020
2000
2000
3FE0
ENDCHAR
STARTCHAR char0x372D
ENCODING 14125
SWIDTH 1333 0
DWIDTH 16 0
BBX 13 15 2 -2
BITMAP
0020
FE20
0220
0238
FE20
8020
8038
FF20
0020
0220
0200
0700
0980
30C0
C030
ENDCHAR
STARTCHAR char0x372E
ENCODING 14126
SWIDTH 1333 0
DWIDTH 16 0
BBX 13 14 2 -1
BITMAP
0020
FE20
0238
0220
FE20
8038
8020
FF20
0000
1F80
6060
4020
6060
1F80
ENDCHAR
STARTCHAR char0x372F
ENCODING 14127
SWIDTH 1333 0
DWIDTH 16 0
BBX 11 15 2 -2
BITMAP
0020
FC20
0420
0420
0420
0420
FDE0
8020
8020
8020
8020
FF20
0020
0020
0020
ENDCHAR
STARTCHAR char0x3730
ENCODING 14128
SWIDTH 1333 0
DWIDTH 16 0
BBX 11 15 2 -2
BITMAP
0020
FC20
0420
0420
FDE0
8020
8020
FF20
0020
0000
7FE0
0020
0020
0020
0020
ENDCHAR
STARTCHAR char0x3731
ENCODING 14129
SWIDTH 1333 0
DWIDTH 16 0
BBX 11 14 2 -1
BITMAP
0020
FC20
0420
0420
FDE0
8020
8020
8020
FF20
0020
2000
2000
2000
3FE0
ENDCHAR
STARTCHAR char0x3732
ENCODING 14130
SWIDTH 1333 0
DWIDTH 16 0
BBX 11 14 2 -1
BITMAP
0020
FC20
0420
FDE0
8020
8020
FE20
0000
3FE0
0020
3FE0
2000
2000
3FE0
ENDCHAR
STARTCHAR char0x3733
ENCODING 14131
SWIDTH 1333 0
DWIDTH 16 0
BBX 10 14 3 -1
BITMAP
0040
FC40
0440
0440
FFC0
8040
8040
FE40
0000
3FC0
2040
2040
2040
3FC0
ENDCHAR
STARTCHAR char0x3734
ENCODING 14132
SWIDTH 1333 0
DWIDTH 16 0
BBX 10 14 3 -1
BITMAP
0040
FC40
0440
0440
FFC0
8040
8040
FE40
0000
2040
3FC0
2040
2040
3FC0
ENDCHAR
STARTCHAR char0x3735
ENCODING 14133
SWIDTH 1333 0
DWIDTH 16 0
BBX 12 15 2 -2
BITMAP
0020
FE20
0220
0220
FFE0
8020
8020
FF20
0020
0220
0200
0700
0980
30C0
C030
ENDCHAR
STARTCHAR char0x3736
ENCODING 14134
SWIDTH 1333 0
DWIDTH 16 0
BBX 13 15 2 -2
BITMAP
0020
FC20
0420
0420
FDE0
8020
8020
FF20
0000
1040
1040
30C0
2920
4730
8618
ENDCHAR
STARTCHAR char0x3737
ENCODING 14135
SWIDTH 1333 0
DWIDTH 16 0
BBX 11 14 2 -1
BITMAP
0020
FC20
0420
0420
FDE0
8020
8020
FF20
0020
1F80
6060
4020
6060
1F80
ENDCHAR
STARTCHAR char0x3738
ENCODING 14136
SWIDTH 1333 0
DWIDTH 16 0
BBX 10 14 2 -1
BITMAP
0040
FC40
0440
FD80
8040
8040
FE40
0040
0200
7FC0
0000
1F80
2040
1F80
ENDCHAR
STARTCHAR char0x3739
ENCODING 14137
SWIDTH 1333 0
DWIDTH 16 0
BBX 12 15 2 -2
BITMAP
0090
F890
0890
0890
0890
F890
8390
8090
8090
8090
FC90
0090
0090
0090
0090
ENDCHAR
STARTCHAR char0x373A
ENCODING 14138
SWIDTH 1333 0
DWIDTH 16 0
BBX 12 15 2 -2
BITMAP
0090
F890
0890
0890
FB90
8090
8090
FC90
0090
0000
3FF0
0010
0010
0010
0010
ENDCHAR
STARTCHAR char0x373B
ENCODING 14139
SWIDTH 1333 0
DWIDTH 16 0
BBX 12 14 2 -1
BITMAP
0090
F890
0890
0890
FB90
8090
8090
FC90
0090
0090
2000
2000
2000
3FF0
ENDCHAR
STARTCHAR char0x373C
ENCODING 14140
SWIDTH 1333 0
DWIDTH 16 0
BBX 12 14 2 -1
BITMAP
0090
F890
0890
FB90
8090
8090
FC90
0000
3FF0
0010
3FF0
2000
2000
3FF0
ENDCHAR
STARTCHAR char0x373D
ENCODING 14141
SWIDTH 1333 0
DWIDTH 16 0
BBX 12 14 2 -1
BITMAP
0090
F890
0890
0890
FB90
8090
8090
FC90
0000
3FF0
2010
2010
2010
3FF0
ENDCHAR
STARTCHAR char0x373E
ENCODING 14142
SWIDTH 1333 0
DWIDTH 16 0
BBX 12 14 2 -1
BITMAP
0090
F890
0890
FB90
8090
8090
FC90
0000
2010
2010
3FF0
2010
2010
3FF0
ENDCHAR
STARTCHAR char0x373F
ENCODING 14143
SWIDTH 1333 0
DWIDTH 16 0
BBX 13 15 2 -2
BITMAP
0090
F890
0890
0890
FB90
8090
8090
FC90
0090
0210
0200
0500
0880
3060
C018
ENDCHAR
STARTCHAR char0x3740
ENCODING 14144
SWIDTH 1333 0
DWIDTH 16 0
BBX 12 14 2 -1
BITMAP
0090
F890
0890
0890
FB90
8090
8090
FC90
0000
0FC0
3030
2010
3030
0FC0
ENDCHAR
STARTCHAR char0x3741
ENCODING 14145
SWIDTH 1333 0
DWIDTH 16 0
BBX 11 15 2 -2
BITMAP
0020
FC20
0420
0420
05E0
FC20
8020
8020
81E0
8020
FE20
0020
0020
0020
0020
ENDCHAR
STARTCHAR char0x3742
ENCODING 14146
SWIDTH 1333 0
DWIDTH 16 0
BBX 11 15 2 -2
BITMAP
0020
FC20
05E0
0420
FC20
81E0
8020
FE20
0020
0000
7FE0
0020
0020
0020
0020
ENDCHAR
STARTCHAR char0x3743
ENCODING 14147
SWIDTH 1333 0
DWIDTH 16 0
BBX 11 14 2 -1
BITMAP
0020
FC20
0420
05E0
FC20
8020
81E0
8020
FE20
0020
2020
2000
2000
3FE0
ENDCHAR
STARTCHAR char0x3744
ENCODING 14148
SWIDTH 1333 0
DWIDTH 16 0
BBX 11 14 2 -1
BITMAP
0020
FC20
05E0
FC20
81E0
8020
FE20
0000
3FE0
0020
3FE0
2000
2000
3FE0
ENDCHAR
STARTCHAR char0x3745
ENCODING 14149
SWIDTH 1333 0
DWIDTH 16 0
BBX 11 14 2 -1
BITMAP
0020
FC20
05E0
0420
FC20
81E0
8020
FE20
0000
3FE0
2020
2020
2020
3FE0
ENDCHAR
STARTCHAR char0x3746
ENCODING 14150
SWIDTH 1333 0
DWIDTH 16 0
BBX 11 14 2 -1
BITMAP
0020
FC20
05E0
0420
FC20
81E0
8020
FE20
0000
2020
2020
3FE0
2020
3FE0
ENDCHAR
STARTCHAR char0x3747
ENCODING 14151
SWIDTH 1333 0
DWIDTH 16 0
BBX 13 15 2 -2
BITMAP
0020
FC20
05E0
0420
FC20
81E0
8020
FE20
0020
0220
0200
0700
0C80
1860
6018
ENDCHAR
STARTCHAR char0x3748
ENCODING 14152
SWIDTH 1333 0
DWIDTH 16 0
BBX 13 15 2 -2
BITMAP
0010
FC10
04F0
0410
FC10
80F0
8010
FE10
0010
1040
1040
30C0
2920
4730
8618
ENDCHAR
STARTCHAR char0x3749
ENCODING 14153
SWIDTH 1333 0
DWIDTH 16 0
BBX 11 14 2 -1
BITMAP
0020
FC20
05E0
0420
FC20
81E0
8020
FE20
0020
1F80
6060
4020
6060
1F80
ENDCHAR
STARTCHAR char0x374A
ENCODING 14154
SWIDTH 1333 0
DWIDTH 16 0
BBX 12 15 2 -2
BITMAP
0090
F890
0890
0890
0B90
F890
8090
8090
8390
8090
FC90
0090
0090
0090
0090
ENDCHAR
STARTCHAR char0x374B
ENCODING 14155
SWIDTH 1333 0
DWIDTH 16 0
BBX 12 14 2 -1
BITMAP
0090
F890
0B90
0890
F890
8390
8090
8090
FC90
0090
2000
2000
2000
3FF0
ENDCHAR
STARTCHAR char0x374C
ENCODING 14156
SWIDTH 1333 0
DWIDTH 16 0
BBX 12 14 2 -1
BITMAP
0090
F890
0B90
F890
8390
8090
FC90
0000
2010
2010
3FF0
2010
2010
3FF0
ENDCHAR
STARTCHAR char0x374D
ENCODING 14157
SWIDTH 1333 0
DWIDTH 16 0
BBX 13 15 2 -2
BITMAP
0090
F890
0890
0B90
F890
8090
8390
8090
FC90
0090
0210
0200
0700
18C0
6038
ENDCHAR
STARTCHAR char0x374E
ENCODING 14158
SWIDTH 1333 0
DWIDTH 16 0
BBX 14 11 1 1
BITMAP
3FF0
0010
0010
3FF0
2000
2000
3FF0
0200
0200
0200
FFFC
ENDCHAR
STARTCHAR char0x374F
ENCODING 14159
SWIDTH 1333 0
DWIDTH 16 0
BBX 14 15 1 -2
BITMAP
3FF0
0010
3FF0
2000
2000
3FF0
0200
0200
FFFC
0000
3FF0
0010
0010
0010
0010
ENDCHAR
STARTCHAR char0x3750
ENCODING 14160
SWIDTH 1333 0
DWIDTH 16 0
BBX 14 14 1 -1
BITMAP
3FE0
0020
3FE0
2000
2000
3FE0
0200
0200
FFFC
0000
2000
2000
2000
3FE0
ENDCHAR
STARTCHAR char0x3751
ENCODING 14161
SWIDTH 1333 0
DWIDTH 16 0
BBX 14 14 1 -1
BITMAP
3FF0
0010
3FF0
2000
3FF0
0200
FFFC
0000
3FF0
0010
3FF0
2000
2000
3FF0
ENDCHAR
STARTCHAR char0x3752
ENCODING 14162
SWIDTH 1333 0
DWIDTH 16 0
BBX 14 14 1 -1
BITMAP
3FF0
0010
3FF0
2000
2000
3FF0
0200
FFFC
0000
3FF0
2010
2010
2010
3FF0
ENDCHAR
STARTCHAR char0x3753
ENCODING 14163
SWIDTH 1333 0
DWIDTH 16 0
BBX 14 14 1 -1
BITMAP
3FF0
0010
3FF0
2000
2000
3FF0
0200
FFFC
0000
2010
2010
3FF0
2010
3FF0
ENDCHAR
STARTCHAR char0x3754
ENCODING 14164
SWIDTH 1333 0
DWIDTH 16 0
BBX 14 15 1 -2
BITMAP
3FE0
0020
3FE0
2000
2000
3FE0
0200
0200
FFFC
0000
0200
0200
0500
18C0
6038
ENDCHAR
STARTCHAR char0x3755
ENCODING 14165
SWIDTH 1333 0
DWIDTH 16 0
BBX 14 14 1 -1
BITMAP
3FE0
0020
3FE0
2000
2000
3FE0
0200
FFFC
0000
0FC0
3030
2010
3030
0FC0
ENDCHAR
STARTCHAR char0x3756
ENCODING 14166
SWIDTH 1333 0
DWIDTH 16 0
BBX 14 15 1 -2
BITMAP
0010
7F10
0110
0110
7F10
4010
401C
7F10
0810
0810
0810
FFD0
0010
0010
0010
ENDCHAR
STARTCHAR char0x3757
ENCODING 14167
SWIDTH 1333 0
DWIDTH 16 0
BBX 14 14 1 -1
BITMAP
0010
7F10
0110
7F10
4010
401C
7F10
0810
FFD0
0010
2010
2000
2000
3FF0
ENDCHAR
STARTCHAR char0x3758
ENCODING 14168
SWIDTH 1333 0
DWIDTH 16 0
BBX 14 14 1 -1
BITMAP
0010
7F10
0110
7F10
4010
7F1C
0810
FFD0
0010
0FC0
3030
2010
3030
0FC0
ENDCHAR
STARTCHAR char0x3759
ENCODING 14169
SWIDTH 1333 0
DWIDTH 16 0
BBX 14 15 1 -2
BITMAP
0048
7E48
0248
7E48
4048
7E78
0848
0848
FF48
0000
0820
0820
1450
30D8
618C
ENDCHAR
STARTCHAR char0x375A
ENCODING 14170
SWIDTH 1333 0
DWIDTH 16 0
BBX 12 15 1 -2
BITMAP
0010
3F10
0110
0110
3F10
2010
2010
3F10
0410
0410
0410
FFD0
0010
0010
0010
ENDCHAR
STARTCHAR char0x375B
ENCODING 14171
SWIDTH 1333 0
DWIDTH 16 0
BBX 12 14 1 -1
BITMAP
0010
3F90
0090
3F90
2010
2010
3F90
0410
FFD0
0010
1010
1000
1000
1FF0
ENDCHAR
STARTCHAR char0x375C
ENCODING 14172
SWIDTH 1333 0
DWIDTH 16 0
BBX 12 14 1 -1
BITMAP
0010
7F10
0110
7F10
4010
7F10
0810
FFD0
0000
1FF0
0010
1FF0
1000
1FF0
ENDCHAR
STARTCHAR char0x375D
ENCODING 14173
SWIDTH 1333 0
DWIDTH 16 0
BBX 12 14 1 -1
BITMAP
0010
7F90
0090
7F90
4010
7F90
0410
FFD0
0000
1FF0
1010
1010
1010
1FF0
ENDCHAR
STARTCHAR char0x375E
ENCODING 14174
SWIDTH 1333 0
DWIDTH 16 0
BBX 12 14 1 -1
BITMAP
0010
7F90
0090
7F90
4010
7F90
0410
FFD0
0000
1010
1010
1FF0
1010
1FF0
ENDCHAR
STARTCHAR char0x375F
ENCODING 14175
SWIDTH 1333 0
DWIDTH 16 0
BBX 13 15 1 -2
BITMAP
0010
3F90
0090
3F90
2010
3F90
0410
0410
FFD0
0010
0100
0100
0280
0C60
3018
ENDCHAR
STARTCHAR char0x3760
ENCODING 14176
SWIDTH 1333 0
DWIDTH 16 0
BBX 12 14 1 -1
BITMAP
0010
3F90
0090
3F90
2010
3F90
0410
FFD0
0010
0FC0
3030
2010
3030
0FC0
ENDCHAR
STARTCHAR char0x3761
ENCODING 14177
SWIDTH 1333 0
DWIDTH 16 0
BBX 14 11 1 1
BITMAP
3FF0
0010
0010
3FF0
2000
2000
3FF0
0840
0840
0840
FFFC
ENDCHAR
STARTCHAR char0x3762
ENCODING 14178
SWIDTH 1333 0
DWIDTH 16 0
BBX 14 14 1 -1
BITMAP
3FF0
0010
3FF0
2000
2000
3FF0
0840
0840
FFFC
0000
2000
2000
2000
3FF0
ENDCHAR
STARTCHAR char0x3763
ENCODING 14179
SWIDTH 1333 0
DWIDTH 16 0
BBX 14 14 1 -1
BITMAP
3FF0
0010
3FF0
2000
3FF0
0840
FFFC
0000
3FF0
0010
3FF0
2000
2000
3FF0
ENDCHAR
STARTCHAR char0x3764
ENCODING 14180
SWIDTH 1333 0
DWIDTH 16 0
BBX 14 14 1 -1
BITMAP
3FF0
0010
3FF0
2000
2000
3FF0
0840
FFFC
0000
2010
2010
3FF0
2010
3FF0
ENDCHAR
STARTCHAR char0x3765
ENCODING 14181
SWIDTH 1333 0
DWIDTH 16 0
BBX 14 15 1 -2
BITMAP
3FF0
0010
3FF0
2000
2000
3FF0
0840
0840
FFFC
0000
0200
0200
0700
18C0
6038
ENDCHAR
STARTCHAR char0x3766
ENCODING 14182
SWIDTH 1333 0
DWIDTH 16 0
BBX 14 14 1 -1
BITMAP
3FF0
0010
3FF0
2000
2000
3FF0
0840
FFFC
0000
0FC0
3030
2010
3030
0FC0
ENDCHAR
STARTCHAR char0x3767
ENCODING 14183
SWIDTH 1333 0
DWIDTH 16 0
BBX 14 15 1 -2
BITMAP
3FF0
0010
0010
3FF0
2000
2000
3FF0
0000
0000
FFFC
0200
0200
0200
0200
0200
ENDCHAR
STARTCHAR char0x3768
ENCODING 14184
SWIDTH 1333 0
DWIDTH 16 0
BBX 14 15 1 -2
BITMAP
3FF0
0010
3FF0
2000
2000
3FF0
0000
FFFC
0200
0200
3FF0
0010
0010
0010
0010
ENDCHAR
STARTCHAR char0x3769
ENCODING 14185
SWIDTH 1333 0
DWIDTH 16 0
BBX 14 14 1 -1
BITMAP
3FE0
0020
0020
3FE0
2000
2000
3FE0
0000
FFFC
0100
2100
2100
2000
3FE0
ENDCHAR
STARTCHAR char0x376A
ENCODING 14186
SWIDTH 1333 0
DWIDTH 16 0
BBX 14 14 1 -1
BITMAP
3FF0
0010
3FF0
2000
3FF0
0000
FFFC
0200
3FF0
0010
3FF0
2000
2000
3FF0
ENDCHAR
STARTCHAR char0x376B
ENCODING 14187
SWIDTH 1333 0
DWIDTH 16 0
BBX 14 14 1 -1
BITMAP
3FF0
0010
3FF0
2000
2000
3FF0
0000
FFFC
0200
3FF0
2010
2010
2010
3FF0
ENDCHAR
STARTCHAR char0x376C
ENCODING 14188
SWIDTH 1333 0
DWIDTH 16 0
BBX 14 14 1 -1
BITMAP
3FF0
0010
3FF0
2000
2000
3FF0
0000
FFFC
0200
2210
2010
3FF0
2010
3FF0
ENDCHAR
STARTCHAR char0x376D
ENCODING 14189
SWIDTH 1333 0
DWIDTH 16 0
BBX 14 15 1 -2
BITMAP
3FE0
0020
3FE0
2000
2000
3FE0
0000
FFFC
0200
0200
0000
0200
0700
0CC0
7038
ENDCHAR
STARTCHAR char0x376E
ENCODING 14190
SWIDTH 1333 0
DWIDTH 16 0
BBX 14 14 1 -1
BITMAP
3FE0
0020
3FE0
2000
2000
3FE0
0000
FFFC
0200
1FC0
3030
2010
3030
0FC0
ENDCHAR
STARTCHAR char0x376F
ENCODING 14191
SWIDTH 1333 0
DWIDTH 16 0
BBX 13 15 1 -2
BITMAP
0008
3F88
0088
3F88
2008
2008
3F88
0008
FFE8
0408
0408
04F8
0408
0408
0008
ENDCHAR
STARTCHAR char0x3770
ENCODING 14192
SWIDTH 1333 0
DWIDTH 16 0
BBX 13 15 1 -2
BITMAP
0010
3F10
0110
3F10
2010
3F10
0010
FFD0
0810
08F0
0010
0840
0C40
34A0
C318
ENDCHAR
STARTCHAR char0x3771
ENCODING 14193
SWIDTH 1333 0
DWIDTH 16 0
BBX 13 15 1 -2
BITMAP
0048
7E48
0248
7E48
4048
4048
7E48
0048
FFC8
0848
0848
0BC8
0848
0848
0048
ENDCHAR
STARTCHAR char0x3772
ENCODING 14194
SWIDTH 1333 0
DWIDTH 16 0
BBX 13 15 1 -2
BITMAP
0008
3F88
0088
3F88
2008
2008
3F88
0008
FFE8
0408
0408
0408
0408
0408
0408
ENDCHAR
STARTCHAR char0x3773
ENCODING 14195
SWIDTH 1333 0
DWIDTH 16 0
BBX 12 15 1 -2
BITMAP
0010
3F90
0090
3F90
2010
3F90
0010
FFD0
0410
0400
1FF0
0010
0010
0010
0010
ENDCHAR
STARTCHAR char0x3774
ENCODING 14196
SWIDTH 1333 0
DWIDTH 16 0
BBX 12 14 1 -1
BITMAP
0010
3F90
0090
3F90
2010
2010
3F90
0010
FFD0
0410
2410
2000
2000
3FF0
ENDCHAR
STARTCHAR char0x3775
ENCODING 14197
SWIDTH 1333 0
DWIDTH 16 0
BBX 12 14 1 -1
BITMAP
0010
3F10
0110
3F10
2010
3F10
0010
FFD0
0800
1FF0
0010
1FF0
1000
1FF0
ENDCHAR
STARTCHAR char0x3776
ENCODING 14198
SWIDTH 1333 0
DWIDTH 16 0
BBX 12 14 1 -1
BITMAP
0010
3F90
0090
3F90
2010
3F90
0010
FFD0
0810
0800
1FF0
1010
1010
1FF0
ENDCHAR
STARTCHAR char0x3777
ENCODING 14199
SWIDTH 1333 0
DWIDTH 16 0
BBX 14 15 1 -2
BITMAP
0010
3F90
0090
3F90
2010
2010
3F90
0010
FFF0
0810
0910
0100
0380
0E60
381C
ENDCHAR
STARTCHAR char0x3778
ENCODING 14200
SWIDTH 1333 0
DWIDTH 16 0
BBX 13 14 1 -1
BITMAP
0008
3F88
0088
3F88
2008
3F88
0008
FFE8
0408
07E0
1818
1008
1818
07E0
ENDCHAR
STARTCHAR char0x3779
ENCODING 14201
SWIDTH 1333 0
DWIDTH 16 0
BBX 14 15 1 -2
BITMAP
3FF0
0010
0010
3FF0
2000
2000
3FF0
0000
FFFC
0840
0840
0840
0840
0840
0840
ENDCHAR
STARTCHAR char0x377A
ENCODING 14202
SWIDTH 1333 0
DWIDTH 16 0
BBX 14 15 1 -2
BITMAP
3FF0
0010
3FF0
2000
2000
3FF0
0000
FFFC
0840
0840
3FF0
0010
0010
0010
0010
ENDCHAR
STARTCHAR char0x377B
ENCODING 14203
SWIDTH 1333 0
DWIDTH 16 0
BBX 14 14 1 -1
BITMAP
3FE0
0020
0020
3FE0
2000
2000
3FE0
0000
FFFC
0440
2440
2440
2000
3FE0
ENDCHAR
STARTCHAR char0x377C
ENCODING 14204
SWIDTH 1333 0
DWIDTH 16 0
BBX 14 14 1 -1
BITMAP
3FF0
0010
3FF0
2000
3FF0
0000
FFFC
0840
0840
3FF0
0010
3FF0
2000
3FF0
ENDCHAR
STARTCHAR char0x377D
ENCODING 14205
SWIDTH 1333 0
DWIDTH 16 0
BBX 14 14 1 -1
BITMAP
3FF0
0010
3FF0
2000
2000
3FF0
0000
FFFC
0840
3FF0
2010
2010
2010
3FF0
ENDCHAR
STARTCHAR char0x377E
ENCODING 14206
SWIDTH 1333 0
DWIDTH 16 0
BBX 14 14 1 -1
BITMAP
3FF0
0010
3FF0
2000
2000
3FF0
0000
FFFC
0880
2890
2010
3FF0
2010
3FF0
ENDCHAR
STARTCHAR char0x3821
ENCODING 14369
SWIDTH 1333 0
DWIDTH 16 0
BBX 14 15 1 -2
BITMAP
3FE0
0020
3FE0
2000
2000
3FE0
0000
FFFC
1040
1040
1240
0200
0500
18C0
6038
ENDCHAR
STARTCHAR char0x3822
ENCODING 14370
SWIDTH 1333 0
DWIDTH 16 0
BBX 14 14 1 -1
BITMAP
3FE0
0020
3FE0
2000
2000
3FE0
0000
FFFC
0840
0FC0
3030
2010
3030
0FC0
ENDCHAR
STARTCHAR char0x3823
ENCODING 14371
SWIDTH 1333 0
DWIDTH 16 0
BBX 14 11 1 1
BITMAP
3FF0
0010
0010
3FF0
2000
2000
3FF0
0000
0000
0000
FFFC
ENDCHAR
STARTCHAR char0x3824
ENCODING 14372
SWIDTH 1333 0
DWIDTH 16 0
BBX 14 15 1 -2
BITMAP
3FE0
0020
3FE0
2000
2000
3FE0
0000
FFFC
0000
0000
3FE0
0020
0020
0020
0020
ENDCHAR
STARTCHAR char0x3825
ENCODING 14373
SWIDTH 1333 0
DWIDTH 16 0
BBX 14 14 1 -1
BITMAP
3FE0
0020
0020
3FE0
2000
2000
3FE0
0000
FFFC
0000
2000
2000
2000
3FE0
ENDCHAR
STARTCHAR char0x3826
ENCODING 14374
SWIDTH 1333 0
DWIDTH 16 0
BBX 14 14 1 -1
BITMAP
3FF0
0010
3FF0
2000
3FF0
0000
FFFC
0000
3FF0
0010
3FF0
2000
2000
3FF0
ENDCHAR
STARTCHAR char0x3827
ENCODING 14375
SWIDTH 1333 0
DWIDTH 16 0
BBX 14 14 1 -1
BITMAP
3FF0
0010
3FF0
2000
2000
3FF0
0000
FFFC
0000
3FF0
2010
2010
2010
3FF0
ENDCHAR
STARTCHAR char0x3828
ENCODING 14376
SWIDTH 1333 0
DWIDTH 16 0
BBX 14 14 1 -1
BITMAP
3FF0
0010
3FF0
2000
2000
3FF0
0000
FFFC
0000
2010
2010
3FF0
2010
3FF0
ENDCHAR
STARTCHAR char0x3829
ENCODING 14377
SWIDTH 1333 0
DWIDTH 16 0
BBX 14 15 1 -2
BITMAP
3FE0
0020
0020
3FE0
2000
2000
3FE0
0000
FFFC
0000
0200
0200
0500
18C0
6038
ENDCHAR
STARTCHAR char0x382A
ENCODING 14378
SWIDTH 1333 0
DWIDTH 16 0
BBX 14 14 1 -1
BITMAP
3FE0
0020
3FE0
2000
2000
3FE0
0000
FFFC
0000
0FC0
3030
2010
3030
0FC0
ENDCHAR
STARTCHAR char0x382B
ENCODING 14379
SWIDTH 1333 0
DWIDTH 16 0
BBX 14 15 1 -2
BITMAP
3FE0
0020
0020
3FE0
2000
2000
3FE0
0000
FFFC
0000
3FF0
0200
0700
18C0
6038
ENDCHAR
STARTCHAR char0x382C
ENCODING 14380
SWIDTH 1333 0
DWIDTH 16 0
BBX 14 14 1 -1
BITMAP
3FE0
0020
3FE0
2000
2000
3FE0
0000
FFFC
0000
3FF0
2000
3FE0
2000
3FF0
ENDCHAR
STARTCHAR char0x382D
ENCODING 14381
SWIDTH 1333 0
DWIDTH 16 0
BBX 14 14 1 -1
BITMAP
3FE0
0020
3FE0
2000
2000
3FE0
0000
FFFC
0000
3FE0
0840
0840
0840
3FF0
ENDCHAR
STARTCHAR char0x382E
ENCODING 14382
SWIDTH 1333 0
DWIDTH 16 0
BBX 11 15 2 -2
BITMAP
0020
FE20
0220
0220
0220
0220
FE20
8020
8020
8020
8020
FF20
0020
0020
0020
ENDCHAR
STARTCHAR char0x382F
ENCODING 14383
SWIDTH 1333 0
DWIDTH 16 0
BBX 10 15 3 -2
BITMAP
0040
FC40
0440
0440
FC40
8040
8040
FF40
0040
0000
7FC0
0040
0040
0040
0040
ENDCHAR
STARTCHAR char0x3830
ENCODING 14384
SWIDTH 1333 0
DWIDTH 16 0
BBX 10 14 3 -1
BITMAP
0040
FC40
0440
0440
FC40
8040
8040
FF40
0040
0040
2040
2000
2000
3FC0
ENDCHAR
STARTCHAR char0x3831
ENCODING 14385
SWIDTH 1333 0
DWIDTH 16 0
BBX 10 14 3 -1
BITMAP
0040
FC40
0440
FC40
8040
8040
FF40
0000
3FC0
0040
3FC0
2000
2000
3FC0
ENDCHAR
STARTCHAR char0x3832
ENCODING 14386
SWIDTH 1333 0
DWIDTH 16 0
BBX 10 14 3 -1
BITMAP
0040
FC40
0440
0440
FC40
8040
8040
FF40
0000
3FC0
2040
2040
2040
3FC0
ENDCHAR
STARTCHAR char0x3833
ENCODING 14387
SWIDTH 1333 0
DWIDTH 16 0
BBX 10 14 3 -1
BITMAP
0040
FC40
0440
0440
FC40
8040
8040
FF40
0000
2040
2040
3FC0
2040
3FC0
ENDCHAR
STARTCHAR char0x3834
ENCODING 14388
SWIDTH 1333 0
DWIDTH 16 0
BBX 11 15 3 -2
BITMAP
0040
FC40
0440
0440
FC40
8040
8040
FF40
0040
0440
0440
0A00
1900
2080
C060
ENDCHAR
STARTCHAR char0x3835
ENCODING 14389
SWIDTH 1333 0
DWIDTH 16 0
BBX 10 14 3 -1
BITMAP
0040
FC40
0440
0440
FC40
8040
8040
FF40
0040
1F00
60C0
4040
60C0
1F00
ENDCHAR
STARTCHAR char0x3836
ENCODING 14390
SWIDTH 1333 0
DWIDTH 16 0
BBX 13 15 2 -2
BITMAP
0040
FE40
8240
8240
8240
8240
8278
8240
8240
8240
FE40
0040
0040
0040
0040
ENDCHAR
STARTCHAR char0x3837
ENCODING 14391
SWIDTH 1333 0
DWIDTH 16 0
BBX 13 15 2 -2
BITMAP
0020
FE20
8220
8220
8238
8220
8220
FE20
0000
7FE0
0020
0020
0020
0020
0020
ENDCHAR
STARTCHAR char0x3838
ENCODING 14392
SWIDTH 1333 0
DWIDTH 16 0
BBX 13 14 2 -1
BITMAP
0020
FE20
8220
8220
8220
8238
8220
FE20
0020
2020
2020
2000
2000
3FE0
ENDCHAR
STARTCHAR char0x3839
ENCODING 14393
SWIDTH 1333 0
DWIDTH 16 0
BBX 13 14 2 -1
BITMAP
0020
FC20
8420
8438
8420
8420
FC20
0020
0080
47F0
4000
43C0
4420
7BC0
ENDCHAR
STARTCHAR char0x383A
ENCODING 14394
SWIDTH 1333 0
DWIDTH 16 0
BBX 13 13 2 -1
BITMAP
FE40
8240
8240
8238
8240
FE40
0000
0000
3FC0
2000
2000
2000
3FC0
ENDCHAR
STARTCHAR char0x383B
ENCODING 14395
SWIDTH 1333 0
DWIDTH 16 0
BBX 13 14 2 -1
BITMAP
0020
FE20
8220
8238
8220
8220
FE20
0000
3FE0
0020
3FE0
2000
2000
3FE0
ENDCHAR
STARTCHAR char0x383C
ENCODING 14396
SWIDTH 1333 0
DWIDTH 16 0
BBX 13 14 2 -1
BITMAP
0020
FE20
8220
8238
8220
8220
FE20
0000
7FE0
0420
7C20
4020
4020
7E20
ENDCHAR
STARTCHAR char0x383D
ENCODING 14397
SWIDTH 1333 0
DWIDTH 16 0
BBX 13 14 2 -1
BITMAP
0020
FE20
8220
8238
8220
8220
FE20
0000
7BE0
0A20
7A20
4220
4220
7BE0
ENDCHAR
STARTCHAR char0x383E
ENCODING 14398
SWIDTH 1333 0
DWIDTH 16 0
BBX 13 14 2 -1
BITMAP
0020
FE20
8220
8220
8238
8220
FE20
0020
0000
3FE0
2020
2020
2020
3FE0
ENDCHAR
STARTCHAR char0x383F
ENCODING 14399
SWIDTH 1333 0
DWIDTH 16 0
BBX 13 14 2 -1
BITMAP
0020
FE20
8220
8238
8220
8220
FE20
0000
2020
2020
3FE0
2020
2020
3FE0
ENDCHAR
STARTCHAR char0x3840
ENCODING 14400
SWIDTH 1333 0
DWIDTH 16 0
BBX 13 15 2 -2
BITMAP
0020
FE20
8220
8220
8220
8238
8220
FE20
0020
0220
0200
0700
0980
30C0
C030
ENDCHAR
STARTCHAR char0x3841
ENCODING 14401
SWIDTH 1333 0
DWIDTH 16 0
BBX 13 14 2 -1
BITMAP
0020
FE20
8220
8220
8238
8220
FE20
0020
1F80
2040
4020
4020
2040
1F80
ENDCHAR
STARTCHAR char0x3842
ENCODING 14402
SWIDTH 1333 0
DWIDTH 16 0
BBX 13 15 2 -2
BITMAP
0020
FE20
8220
8220
8238
8220
8220
FE20
0000
7FE0
0400
0E00
1900
30C0
C030
ENDCHAR
STARTCHAR char0x3843
ENCODING 14403
SWIDTH 1333 0
DWIDTH 16 0
BBX 13 13 2 -1
BITMAP
FE40
8240
8240
8238
8240
FE00
0000
3FC0
2000
3FC0
2000
2000
3FC0
ENDCHAR
STARTCHAR char0x3844
ENCODING 14404
SWIDTH 1333 0
DWIDTH 16 0
BBX 13 14 2 -1
BITMAP
0020
FE20
8220
8238
8220
FE20
0020
0200
7FF0
0000
1F80
2040
2040
1F80
ENDCHAR
STARTCHAR char0x3845
ENCODING 14405
SWIDTH 1333 0
DWIDTH 16 0
BBX 12 15 2 -2
BITMAP
0090
FC90
8490
8490
8490
8490
84F0
8490
8490
FC90
0090
0090
0090
0090
0090
ENDCHAR
STARTCHAR char0x3846
ENCODING 14406
SWIDTH 1333 0
DWIDTH 16 0
BBX 12 15 2 -2
BITMAP
0090
FC90
8490
8490
84F0
8490
8490
FC90
0000
3FF0
0010
0010
0010
0010
0010
ENDCHAR
STARTCHAR char0x3847
ENCODING 14407
SWIDTH 1333 0
DWIDTH 16 0
BBX 12 14 2 -1
BITMAP
0090
FC90
8490
8490
8490
84F0
8490
FC90
0090
1090
1000
1000
1000
1FF0
ENDCHAR
STARTCHAR char0x3848
ENCODING 14408
SWIDTH 1333 0
DWIDTH 16 0
BBX 12 14 2 -1
BITMAP
0090
FC90
8490
8490
84F0
8490
FC90
0000
1FF0
0010
1FF0
1000
1000
1FF0
ENDCHAR
STARTCHAR char0x3849
ENCODING 14409
SWIDTH 1333 0
DWIDTH 16 0
BBX 12 14 2 -1
BITMAP
0090
FC90
8490
8490
84F0
8490
FC90
0090
0000
1FF0
1010
1010
1010
1FF0
ENDCHAR
STARTCHAR char0x384A
ENCODING 14410
SWIDTH 1333 0
DWIDTH 16 0
BBX 12 14 2 -1
BITMAP
0090
FC90
8490
8490
84F0
8490
FC90
0000
1010
1010
1FF0
1010
1010
1FF0
ENDCHAR
STARTCHAR char0x384B
ENCODING 14411
SWIDTH 1333 0
DWIDTH 16 0
BBX 13 15 2 -2
BITMAP
0090
FC90
8490
8490
84F0
8490
8490
FC90
0090
0210
0200
0700
0C80
1860
6018
ENDCHAR
STARTCHAR char0x384C
ENCODING 14412
SWIDTH 1333 0
DWIDTH 16 0
BBX 13 15 2 -2
BITMAP
0090
FC90
8490
8490
84F0
8490
8490
FC90
0000
1040
1040
1840
24A0
6710
C208
ENDCHAR
STARTCHAR char0x384D
ENCODING 14413
SWIDTH 1333 0
DWIDTH 16 0
BBX 12 14 2 -1
BITMAP
0090
FC90
8490
84F0
8490
8490
FC90
0000
0FC0
1020
2010
2010
1020
0FC0
ENDCHAR
STARTCHAR char0x384E
ENCODING 14414
SWIDTH 1333 0
DWIDTH 16 0
BBX 12 15 2 -2
BITMAP
0080
FCA0
84A0
84A0
84E0
84A0
84A0
FC80
0000
3FE0
0200
0500
0D80
18C0
6030
ENDCHAR
STARTCHAR char0x384F
ENCODING 14415
SWIDTH 1333 0
DWIDTH 16 0
BBX 13 15 2 -2
BITMAP
0040
FE40
8240
8278
8240
8240
8240
8240
8278
FE40
0040
0040
0040
0040
0040
ENDCHAR
STARTCHAR char0x3850
ENCODING 14416
SWIDTH 1333 0
DWIDTH 16 0
BBX 13 15 2 -2
BITMAP
0020
FE20
8238
8220
8220
8220
8238
FE20
0000
7FE0
0020
0020
0020
0020
0020
ENDCHAR
STARTCHAR char0x3851
ENCODING 14417
SWIDTH 1333 0
DWIDTH 16 0
BBX 13 14 2 -1
BITMAP
0020
FE20
8238
8220
8220
8238
FE20
0000
3FE0
0020
3FE0
2000
2000
3FE0
ENDCHAR
STARTCHAR char0x3852
ENCODING 14418
SWIDTH 1333 0
DWIDTH 16 0
BBX 13 14 2 -1
BITMAP
0020
FE20
8238
8220
8220
8238
FE20
0020
0000
1F80
6060
4020
6060
1F80
ENDCHAR
STARTCHAR char0x3853
ENCODING 14419
SWIDTH 1333 0
DWIDTH 16 0
BBX 11 15 2 -2
BITMAP
0020
FE20
8220
8220
8220
83E0
8220
8220
8220
8220
FE20
0020
0020
0020
0020
ENDCHAR
STARTCHAR char0x3854
ENCODING 14420
SWIDTH 1333 0
DWIDTH 16 0
BBX 11 15 2 -2
BITMAP
0020
FE20
8220
8220
83E0
8220
8220
FE20
0000
7FE0
0020
0020
0020
0020
0020
ENDCHAR
STARTCHAR char0x3855
ENCODING 14421
SWIDTH 1333 0
DWIDTH 16 0
BBX 11 14 2 -1
BITMAP
0020
FE20
8220
8220
83E0
8220
8220
FE20
0020
2020
2000
2000
2000
3FE0
ENDCHAR
STARTCHAR char0x3856
ENCODING 14422
SWIDTH 1333 0
DWIDTH 16 0
BBX 11 14 2 -1
BITMAP
0020
FE20
8220
83E0
8220
8220
FE20
0000
3FE0
0020
3FE0
2000
2000
3FE0
ENDCHAR
STARTCHAR char0x3857
ENCODING 14423
SWIDTH 1333 0
DWIDTH 16 0
BBX 11 14 2 -1
BITMAP
0020
FE20
8220
83E0
8220
8220
FE20
0000
79E0
0920
7920
4120
4120
79E0
ENDCHAR
STARTCHAR char0x3858
ENCODING 14424
SWIDTH 1333 0
DWIDTH 16 0
BBX 11 14 2 -1
BITMAP
0020
FE20
8220
83E0
8220
8220
FE20
0020
0000
3FE0
2020
2020
2020
3FE0
ENDCHAR
STARTCHAR char0x3859
ENCODING 14425
SWIDTH 1333 0
DWIDTH 16 0
BBX 11 14 2 -1
BITMAP
0020
FE20
8220
83E0
8220
8220
FE20
0000
2020
2020
3FE0
2020
2020
3FE0
ENDCHAR
STARTCHAR char0x385A
ENCODING 14426
SWIDTH 1333 0
DWIDTH 16 0
BBX 13 15 2 -2
BITMAP
0010
FE10
8210
8210
83F0
8210
8210
FE10
0010
0210
0200
0700
0C80
1860
6018
ENDCHAR
STARTCHAR char0x385B
ENCODING 14427
SWIDTH 1333 0
DWIDTH 16 0
BBX 11 14 2 -1
BITMAP
0020
FE20
8220
83E0
8220
8220
FE20
0020
0F80
3060
2020
2020
3060
0F80
ENDCHAR
STARTCHAR char0x385C
ENCODING 14428
SWIDTH 1333 0
DWIDTH 16 0
BBX 11 14 2 -2
BITMAP
FE40
8240
8240
83C0
8240
8240
FE00
0000
7FC0
0200
0700
0900
1080
6060
ENDCHAR
STARTCHAR char0x385D
ENCODING 14429
SWIDTH 1333 0
DWIDTH 16 0
BBX 11 14 2 -1
BITMAP
0040
FC40
8440
8380
8440
FC40
0040
0200
7FC0
0000
1FC0
2020
2020
1FC0
ENDCHAR
STARTCHAR char0x385E
ENCODING 14430
SWIDTH 1333 0
DWIDTH 16 0
BBX 12 15 2 -2
BITMAP
0090
FC90
8490
8490
8490
8790
8490
8490
8490
FC90
0090
0090
0090
0090
0010
ENDCHAR
STARTCHAR char0x385F
ENCODING 14431
SWIDTH 1333 0
DWIDTH 16 0
BBX 12 15 2 -2
BITMAP
0090
FC90
8490
8490
8790
8490
8490
FC90
0000
3FF0
0010
0010
0010
0010
0010
ENDCHAR
STARTCHAR char0x3860
ENCODING 14432
SWIDTH 1333 0
DWIDTH 16 0
BBX 12 14 2 -1
BITMAP
0090
FC90
8490
8490
8790
8490
8490
FC90
0090
0090
1000
1000
1000
1FF0
ENDCHAR
STARTCHAR char0x3861
ENCODING 14433
SWIDTH 1333 0
DWIDTH 16 0
BBX 12 14 2 -1
BITMAP
0090
FC90
8490
8790
8490
8490
FC90
0000
1FF0
0010
1FF0
1000
1000
1FF0
ENDCHAR
STARTCHAR char0x3862
ENCODING 14434
SWIDTH 1333 0
DWIDTH 16 0
BBX 12 14 2 -1
BITMAP
0090
FC90
8490
8790
8490
8490
FC90
0090
0000
1FF0
1010
1010
1010
1FF0
ENDCHAR
STARTCHAR char0x3863
ENCODING 14435
SWIDTH 1333 0
DWIDTH 16 0
BBX 12 14 2 -1
BITMAP
0090
FC90
8490
8790
8490
8490
FC90
0000
1010
1010
1FF0
1010
1010
1FF0
ENDCHAR
STARTCHAR char0x3864
ENCODING 14436
SWIDTH 1333 0
DWIDTH 16 0
BBX 13 15 2 -2
BITMAP
0090
FC90
8490
8490
8790
8490
8490
FC90
0090
0110
0100
0380
04C0
1860
6018
ENDCHAR
STARTCHAR char0x3865
ENCODING 14437
SWIDTH 1333 0
DWIDTH 16 0
BBX 13 15 2 -2
BITMAP
0090
FC90
8490
8490
8790
8490
8490
FC90
0090
0000
1040
1040
3CA0
67B0
C318
ENDCHAR
STARTCHAR char0x3866
ENCODING 14438
SWIDTH 1333 0
DWIDTH 16 0
BBX 12 14 2 -1
BITMAP
0090
FC90
8490
8490
8790
8490
FC90
0090
0000
0FC0
3030
2010
3030
0FC0
ENDCHAR
STARTCHAR char0x3867
ENCODING 14439
SWIDTH 1333 0
DWIDTH 16 0
BBX 11 15 2 -2
BITMAP
0020
FE20
8220
83E0
8220
8220
8220
83E0
8220
FE20
0020
0020
0020
0020
0020
ENDCHAR
STARTCHAR char0x3868
ENCODING 14440
SWIDTH 1333 0
DWIDTH 16 0
BBX 11 15 2 -2
BITMAP
0020
FE20
83E0
8220
8220
83E0
8220
FE20
0000
7FE0
0020
0020
0020
0020
0020
ENDCHAR
STARTCHAR char0x3869
ENCODING 14441
SWIDTH 1333 0
DWIDTH 16 0
BBX 11 14 2 -1
BITMAP
0020
FE20
83E0
8220
8220
83E0
8220
FE20
0020
2020
2020
2000
2000
3FE0
ENDCHAR
STARTCHAR char0x386A
ENCODING 14442
SWIDTH 1333 0
DWIDTH 16 0
BBX 10 14 3 -1
BITMAP
0040
FC40
87C0
8440
8440
87C0
FC40
0000
3FC0
0040
3FC0
2000
2000
3FC0
ENDCHAR
STARTCHAR char0x386B
ENCODING 14443
SWIDTH 1333 0
DWIDTH 16 0
BBX 13 15 2 -2
BITMAP
0010
FE10
83F0
8210
8210
8210
83F0
FE10
0010
0210
0200
0500
0880
3060
C018
ENDCHAR
STARTCHAR char0x386C
ENCODING 14444
SWIDTH 1333 0
DWIDTH 16 0
BBX 13 15 2 -2
BITMAP
0020
FE20
83E0
8220
8220
83E0
8220
FE20
0020
0020
1040
1040
28E0
4530
8618
ENDCHAR
STARTCHAR char0x386D
ENCODING 14445
SWIDTH 1333 0
DWIDTH 16 0
BBX 11 14 2 -1
BITMAP
0020
FE20
83E0
8220
8220
83E0
FE20
0020
0020
1F80
6060
4020
6060
1F80
ENDCHAR
STARTCHAR char0x386E
ENCODING 14446
SWIDTH 1333 0
DWIDTH 16 0
BBX 11 14 2 -2
BITMAP
FE40
83C0
8240
8240
83C0
8240
FE40
0000
0200
7FC0
0400
0A00
1100
E0E0
ENDCHAR
STARTCHAR char0x386F
ENCODING 14447
SWIDTH 1333 0
DWIDTH 16 0
BBX 12 15 2 -2
BITMAP
0090
FC90
8490
8790
8490
8490
8490
8490
8790
8490
FC90
0090
0090
0090
0090
ENDCHAR
STARTCHAR char0x3870
ENCODING 14448
SWIDTH 1333 0
DWIDTH 16 0
BBX 14 11 1 1
BITMAP
3FE0
2020
2020
2020
2020
2020
3FE0
0200
0200
0200
FFFC
ENDCHAR
STARTCHAR char0x3871
ENCODING 14449
SWIDTH 1333 0
DWIDTH 16 0
BBX 14 15 1 -2
BITMAP
3FF0
2010
2010
2010
3FF0
0200
0200
FFFC
0000
0000
3FF0
0010
0010
0010
0010
ENDCHAR
STARTCHAR char0x3872
ENCODING 14450
SWIDTH 1333 0
DWIDTH 16 0
BBX 14 15 1 -2
BITMAP
3FF0
2010
2010
2010
3FF0
0200
0200
FFFC
0000
7C40
0440
0440
04E0
0490
0508
ENDCHAR
STARTCHAR char0x3873
ENCODING 14451
SWIDTH 1333 0
DWIDTH 16 0
BBX 14 14 1 -1
BITMAP
3FE0
2020
2020
2020
3FE0
0200
0200
FFFC
0000
0000
2000
2000
2000
3FF0
ENDCHAR
STARTCHAR char0x3874
ENCODING 14452
SWIDTH 1333 0
DWIDTH 16 0
BBX 14 14 1 -1
BITMAP
3FF0
2010
2010
2010
3FF0
0200
FFFC
0000
3FF0
0010
3FF0
2000
2000
3FF0
ENDCHAR
STARTCHAR char0x3875
ENCODING 14453
SWIDTH 1333 0
DWIDTH 16 0
BBX 14 14 1 -1
BITMAP
3FE0
2020
2020
2020
3FE0
0200
FFFC
0000
3DF0
0510
3D10
2110
2110
3DF0
ENDCHAR
STARTCHAR char0x3876
ENCODING 14454
SWIDTH 1333 0
DWIDTH 16 0
BBX 14 14 1 -1
BITMAP
3FF0
2010
2010
2010
3FF0
0200
0200
FFFC
0000
3FF0
2010
2010
2010
3FF0
ENDCHAR
STARTCHAR char0x3877
ENCODING 14455
SWIDTH 1333 0
DWIDTH 16 0
BBX 14 14 1 -1
BITMAP
3FF0
2010
2010
2010
3FF0
0200
0200
FFFC
0000
2010
2010
3FF0
2010
3FF0
ENDCHAR
STARTCHAR char0x3878
ENCODING 14456
SWIDTH 1333 0
DWIDTH 16 0
BBX 14 15 1 -2
BITMAP
3FE0
2020
2020
2020
3FE0
0200
0200
FFFC
0000
0200
0200
0700
0C80
1840
6038
ENDCHAR
STARTCHAR char0x3879
ENCODING 14457
SWIDTH 1333 0
DWIDTH 16 0
BBX 14 14 1 -1
BITMAP
3FF0
2010
2010
2010
3FF0
0200
0200
FFFC
0000
0FC0
3030
2010
3030
0FC0
ENDCHAR
STARTCHAR char0x387A
ENCODING 14458
SWIDTH 1333 0
DWIDTH 16 0
BBX 15 15 1 -2
BITMAP
0010
7F90
4090
4090
4090
4090
409E
7F90
0410
0410
0410
FFD0
0010
0010
0010
ENDCHAR
STARTCHAR char0x387B
ENCODING 14459
SWIDTH 1333 0
DWIDTH 16 0
BBX 14 14 1 -1
BITMAP
0010
7F10
4110
4110
4110
7F1C
0810
0810
FFD0
0010
1010
1000
1000
1FF0
ENDCHAR
STARTCHAR char0x387C
ENCODING 14460
SWIDTH 1333 0
DWIDTH 16 0
BBX 14 15 1 -2
BITMAP
0010
7F10
4110
4110
4110
7F1C
0810
0810
FFD0
0000
0820
0820
1E50
33D8
618C
ENDCHAR
STARTCHAR char0x387D
ENCODING 14461
SWIDTH 1333 0
DWIDTH 16 0
BBX 14 14 1 -1
BITMAP
0010
7F10
4110
4110
7F1C
0810
0810
FFD0
0010
0FC0
3030
2010
3030
0FC0
ENDCHAR
STARTCHAR char0x387E
ENCODING 14462
SWIDTH 1333 0
DWIDTH 16 0
BBX 12 15 1 -2
BITMAP
0010
7F90
4090
4090
4090
4090
4090
7F90
0810
0810
0810
FFD0
0010
0010
0010
ENDCHAR
STARTCHAR char0x3921
ENCODING 14625
SWIDTH 1333 0
DWIDTH 16 0
BBX 12 14 1 -1
BITMAP
0010
7F10
4110
4110
4110
7F10
0810
0810
FFD0
0010
2010
2000
2000
3FF0
ENDCHAR
STARTCHAR char0x3922
ENCODING 14626
SWIDTH 1333 0
DWIDTH 16 0
BBX 12 14 1 -1
BITMAP
0010
7F10
4110
4110
7F10
0810
FFD0
0000
1FF0
0010
1FF0
1000
1000
1FF0
ENDCHAR
STARTCHAR char0x3923
ENCODING 14627
SWIDTH 1333 0
DWIDTH 16 0
BBX 12 14 1 -1
BITMAP
0010
7F10
4110
4110
7F10
0810
0810
FFD0
0000
1010
1010
1FF0
1010
1FF0
ENDCHAR
STARTCHAR char0x3924
ENCODING 14628
SWIDTH 1333 0
DWIDTH 16 0
BBX 13 15 1 -2
BITMAP
0010
7F90
4090
4090
4090
7F90
0410
0410
FFD0
0010
0110
0100
0280
0C60
7018
ENDCHAR
STARTCHAR char0x3925
ENCODING 14629
SWIDTH 1333 0
DWIDTH 16 0
BBX 12 14 1 -1
BITMAP
0010
7F90
4090
4090
7F90
0410
0410
FFD0
0010
0FC0
3030
2010
3030
0FC0
ENDCHAR
STARTCHAR char0x3926
ENCODING 14630
SWIDTH 1333 0
DWIDTH 16 0
BBX 14 11 1 1
BITMAP
3FF0
2010
2010
2010
2010
2010
3FF0
0840
0840
0840
FFFC
ENDCHAR
STARTCHAR char0x3927
ENCODING 14631
SWIDTH 1333 0
DWIDTH 16 0
BBX 14 14 1 -1
BITMAP
3FF0
2010
2010
2010
2010
3FF0
0840
0840
FFFC
0000
2000
2000
2000
3FF0
ENDCHAR
STARTCHAR char0x3928
ENCODING 14632
SWIDTH 1333 0
DWIDTH 16 0
BBX 14 14 1 -1
BITMAP
3FF0
2010
2010
2010
3FF0
0840
FFFC
0000
3FF0
0010
3FF0
2000
2000
3FF0
ENDCHAR
STARTCHAR char0x3929
ENCODING 14633
SWIDTH 1333 0
DWIDTH 16 0
BBX 14 14 1 -1
BITMAP
3FF0
2010
2010
2010
3FF0
0840
0840
FFFC
0000
2010
2010
3FF0
2010
3FF0
ENDCHAR
STARTCHAR char0x392A
ENCODING 14634
SWIDTH 1333 0
DWIDTH 16 0
BBX 14 15 1 -2
BITMAP
3FF0
2010
2010
2010
2010
3FF0
0840
0840
FFFC
0000
0200
0200
0700
18C0
7038
ENDCHAR
STARTCHAR char0x392B
ENCODING 14635
SWIDTH 1333 0
DWIDTH 16 0
BBX 14 15 1 -2
BITMAP
3FF0
2010
2010
2010
2010
3FF0
0000
0000
FFFC
0200
0200
0200
0200
0200
0200
ENDCHAR
STARTCHAR char0x392C
ENCODING 14636
SWIDTH 1333 0
DWIDTH 16 0
BBX 14 15 1 -2
BITMAP
3FF0
2010
2010
2010
3FF0
0000
0000
FFFC
0200
0200
3FF0
0010
0010
0010
0010
ENDCHAR
STARTCHAR char0x392D
ENCODING 14637
SWIDTH 1333 0
DWIDTH 16 0
BBX 14 15 1 -2
BITMAP
3FF0
2010
2010
2010
3FF0
0000
0000
FFFC
0200
0200
3FF0
0210
0210
0210
0210
ENDCHAR
STARTCHAR char0x392E
ENCODING 14638
SWIDTH 1333 0
DWIDTH 16 0
BBX 14 14 1 -1
BITMAP
3FE0
2020
2020
2020
3FE0
0000
0000
FFFC
0100
2100
2100
2000
2000
3FF0
ENDCHAR
STARTCHAR char0x392F
ENCODING 14639
SWIDTH 1333 0
DWIDTH 16 0
BBX 14 14 1 -1
BITMAP
3FE0
2020
2020
2020
3FE0
0000
FFFC
0200
0200
3FF0
2000
2000
2000
3FF0
ENDCHAR
STARTCHAR char0x3930
ENCODING 14640
SWIDTH 1333 0
DWIDTH 16 0
BBX 14 14 1 -1
BITMAP
3FF0
2010
2010
2010
3FF0
0000
FFFC
0200
3FF0
0010
3FF0
2000
2000
3FF0
ENDCHAR
STARTCHAR char0x3931
ENCODING 14641
SWIDTH 1333 0
DWIDTH 16 0
BBX 14 14 1 -1
BITMAP
3FE0
2020
2020
2020
3FE0
0000
FFFC
0200
3FF0
0210
3E10
2010
2010
3E10
ENDCHAR
STARTCHAR char0x3932
ENCODING 14642
SWIDTH 1333 0
DWIDTH 16 0
BBX 14 14 1 -1
BITMAP
3FF0
2010
2010
2010
3FF0
0000
FFFC
0200
3FF0
0510
3D10
2110
2110
3DF0
ENDCHAR
STARTCHAR char0x3933
ENCODING 14643
SWIDTH 1333 0
DWIDTH 16 0
BBX 14 14 1 -1
BITMAP
3FF0
2010
2010
2010
3FF0
0000
FFFC
0200
0200
3FF0
2010
2010
2010
3FF0
ENDCHAR
STARTCHAR char0x3934
ENCODING 14644
SWIDTH 1333 0
DWIDTH 16 0
BBX 14 14 1 -1
BITMAP
3FF0
2010
2010
2010
3FF0
0000
FFFC
0200
2210
2010
3FF0
2010
2010
3FF0
ENDCHAR
STARTCHAR char0x3935
ENCODING 14645
SWIDTH 1333 0
DWIDTH 16 0
BBX 14 15 1 -2
BITMAP
3FE0
2020
2020
2020
3FE0
0000
0000
FFFC
0200
0200
0000
0200
0700
0CC0
7038
ENDCHAR
STARTCHAR char0x3936
ENCODING 14646
SWIDTH 1333 0
DWIDTH 16 0
BBX 14 14 1 -1
BITMAP
3FF0
2010
2010
2010
3FF0
0000
FFFC
0200
0200
1FC0
3030
2010
3030
0FC0
ENDCHAR
STARTCHAR char0x3937
ENCODING 14647
SWIDTH 1333 0
DWIDTH 16 0
BBX 14 14 1 -1
BITMAP
3FF0
2010
2010
2010
3FF0
0000
FFFC
0200
0200
3FF0
2000
3FF0
2000
3FF0
ENDCHAR
STARTCHAR char0x3938
ENCODING 14648
SWIDTH 1333 0
DWIDTH 16 0
BBX 14 14 1 -1
BITMAP
3FF0
2010
2010
3FF0
0000
FFFC
0200
0000
0200
3FF0
0000
0FC0
1020
0FC0
ENDCHAR
STARTCHAR char0x3939
ENCODING 14649
SWIDTH 1333 0
DWIDTH 16 0
BBX 13 15 1 -2
BITMAP
0008
3F88
2088
2088
2088
3F88
0008
0008
FFE8
0408
0408
04F8
0408
0408
0008
ENDCHAR
STARTCHAR char0x393A
ENCODING 14650
SWIDTH 1333 0
DWIDTH 16 0
BBX 12 14 1 -1
BITMAP
0010
3F10
2110
2110
2110
3F10
0010
FFD0
0410
04F0
2410
2000
2000
3FF0
ENDCHAR
STARTCHAR char0x393B
ENCODING 14651
SWIDTH 1333 0
DWIDTH 16 0
BBX 13 14 1 -1
BITMAP
3F88
2088
2088
3F88
0008
FFE8
0408
0478
0000
1FF8
0008
1FF8
1000
1FF8
ENDCHAR
STARTCHAR char0x393C
ENCODING 14652
SWIDTH 1333 0
DWIDTH 16 0
BBX 12 14 1 -1
BITMAP
7F10
4110
4110
7F10
0010
FFD0
0810
08F0
0800
2010
2010
3FF0
2010
3FF0
ENDCHAR
STARTCHAR char0x393D
ENCODING 14653
SWIDTH 1333 0
DWIDTH 16 0
BBX 13 15 1 -2
BITMAP
0010
7F10
4110
4110
7F10
0010
FFD0
0810
08F0
0810
0910
0100
0680
0860
7018
ENDCHAR
STARTCHAR char0x393E
ENCODING 14654
SWIDTH 1333 0
DWIDTH 16 0
BBX 13 15 1 -2
BITMAP
0048
7E48
4248
4248
4248
7E48
0048
0048
FFC8
0848
09C8
0848
0848
0848
0048
ENDCHAR
STARTCHAR char0x393F
ENCODING 14655
SWIDTH 1333 0
DWIDTH 16 0
BBX 13 15 1 -2
BITMAP
0008
3F88
2088
2088
2088
3F88
0008
0008
FFE8
0408
0408
0408
0408
0408
0408
ENDCHAR
STARTCHAR char0x3940
ENCODING 14656
SWIDTH 1333 0
DWIDTH 16 0
BBX 12 14 1 -1
BITMAP
0010
3F10
2110
2110
2110
3F10
0010
FFD0
0410
0410
2410
2000
2000
3FF0
ENDCHAR
STARTCHAR char0x3941
ENCODING 14657
SWIDTH 1333 0
DWIDTH 16 0
BBX 12 14 1 -1
BITMAP
0010
3F10
2110
2110
3F10
0010
FFD0
0810
0800
1FF0
0010
1FF0
1000
1FF0
ENDCHAR
STARTCHAR char0x3942
ENCODING 14658
SWIDTH 1333 0
DWIDTH 16 0
BBX 14 15 1 -2
BITMAP
3FF0
2010
2010
2010
2010
3FF0
0000
0000
FFFC
0840
0840
0840
0840
0840
0840
ENDCHAR
STARTCHAR char0x3943
ENCODING 14659
SWIDTH 1333 0
DWIDTH 16 0
BBX 14 14 1 -1
BITMAP
3FE0
2020
2020
2020
3FE0
0000
0000
FFFC
0440
0440
2440
2440
2000
3FF0
ENDCHAR
STARTCHAR char0x3944
ENCODING 14660
SWIDTH 1333 0
DWIDTH 16 0
BBX 14 14 1 -1
BITMAP
3FF0
2010
2010
2010
3FF0
0000
FFFC
0840
0840
3FF0
0010
3FF0
2000
3FF0
ENDCHAR
STARTCHAR char0x3945
ENCODING 14661
SWIDTH 1333 0
DWIDTH 16 0
BBX 14 14 1 -1
BITMAP
3FF0
2010
2010
2010
3FF0
0000
FFFC
0840
0840
3FF0
2010
2010
2010
3FF0
ENDCHAR
STARTCHAR char0x3946
ENCODING 14662
SWIDTH 1333 0
DWIDTH 16 0
BBX 14 15 1 -2
BITMAP
3FE0
2020
2020
2020
3FE0
0000
0000
FFFC
1040
1240
1240
0700
0C80
1840
6038
ENDCHAR
STARTCHAR char0x3947
ENCODING 14663
SWIDTH 1333 0
DWIDTH 16 0
BBX 14 11 1 1
BITMAP
3FF0
2010
2010
2010
2010
2010
3FF0
0000
0000
0000
FFFC
ENDCHAR
STARTCHAR char0x3948
ENCODING 14664
SWIDTH 1333 0
DWIDTH 16 0
BBX 14 14 1 -1
BITMAP
3FE0
2020
2020
2020
2020
3FE0
0000
0000
FFFC
0000
2000
2000
2000
3FF0
ENDCHAR
STARTCHAR char0x3949
ENCODING 14665
SWIDTH 1333 0
DWIDTH 16 0
BBX 14 14 1 -1
BITMAP
3FF0
2010
2010
2010
3FF0
0000
FFFC
0000
3FF0
0010
3FF0
2000
2000
3FF0
ENDCHAR
STARTCHAR char0x394A
ENCODING 14666
SWIDTH 1333 0
DWIDTH 16 0
BBX 14 14 1 -1
BITMAP
3FF0
2010
2010
2010
3FF0
0000
0000
FFFC
0000
3FF0
2010
2010
2010
3FF0
ENDCHAR
STARTCHAR char0x394B
ENCODING 14667
SWIDTH 1333 0
DWIDTH 16 0
BBX 14 15 1 -2
BITMAP
3FE0
2020
2020
2020
3FE0
0000
0000
FFFC
0000
0200
0200
0700
0C80
1840
6038
ENDCHAR
STARTCHAR char0x394C
ENCODING 14668
SWIDTH 1333 0
DWIDTH 16 0
BBX 11 15 2 -2
BITMAP
0020
FE20
8220
8220
8220
8220
8220
8220
8220
FE20
0020
0020
0020
0020
0020
ENDCHAR
STARTCHAR char0x394D
ENCODING 14669
SWIDTH 1333 0
DWIDTH 16 0
BBX 10 15 3 -2
BITMAP
0040
FC40
8440
8440
8440
8440
FC40
0040
0000
7FC0
0040
0040
0040
0040
0040
ENDCHAR
STARTCHAR char0x394E
ENCODING 14670
SWIDTH 1333 0
DWIDTH 16 0
BBX 10 14 3 -1
BITMAP
0040
FC40
8440
8440
8440
8440
8440
FC40
0040
2040
2040
2000
2000
3FC0
ENDCHAR
STARTCHAR char0x394F
ENCODING 14671
SWIDTH 1333 0
DWIDTH 16 0
BBX 9 13 3 -1
BITMAP
FC80
8480
8480
8480
8480
FC80
0000
0000
3F80
2000
2000
2000
3F80
ENDCHAR
STARTCHAR char0x3950
ENCODING 14672
SWIDTH 1333 0
DWIDTH 16 0
BBX 10 14 3 -1
BITMAP
0040
FC40
8440
8440
8440
8440
FC40
0000
3FC0
0040
3FC0
2000
2000
3FC0
ENDCHAR
STARTCHAR char0x3951
ENCODING 14673
SWIDTH 1333 0
DWIDTH 16 0
BBX 10 14 3 -1
BITMAP
0040
FC40
8440
8440
8440
8440
FC40
0000
7BC0
0A40
7A40
4240
4240
7BC0
ENDCHAR
STARTCHAR char0x3952
ENCODING 14674
SWIDTH 1333 0
DWIDTH 16 0
BBX 10 14 3 -1
BITMAP
0040
FC40
8440
8440
8440
8440
FC40
0040
0000
3FC0
2040
2040
2040
3FC0
ENDCHAR
STARTCHAR char0x3953
ENCODING 14675
SWIDTH 1333 0
DWIDTH 16 0
BBX 10 14 3 -1
BITMAP
0040
FC40
8440
8440
8440
8440
FC40
0000
2040
2040
3FC0
2040
2040
3FC0
ENDCHAR
STARTCHAR char0x3954
ENCODING 14676
SWIDTH 1333 0
DWIDTH 16 0
BBX 12 15 3 -2
BITMAP
0020
FE20
8220
8220
8220
8220
8220
FE20
0020
0220
0200
0700
0980
30C0
C030
ENDCHAR
STARTCHAR char0x3955
ENCODING 14677
SWIDTH 1333 0
DWIDTH 16 0
BBX 12 15 3 -2
BITMAP
0040
FC40
8440
8440
8440
8440
8440
FC40
0000
1080
1080
1080
2940
4620
8410
ENDCHAR
STARTCHAR char0x3956
ENCODING 14678
SWIDTH 1333 0
DWIDTH 16 0
BBX 11 14 3 -1
BITMAP
0020
FE20
8220
8220
8220
8220
FE20
0020
0000
1F80
6060
4020
6060
1F80
ENDCHAR
STARTCHAR char0x3957
ENCODING 14679
SWIDTH 1333 0
DWIDTH 16 0
BBX 10 14 3 -2
BITMAP
FE80
8280
8280
8280
8280
FE80
0080
0400
0400
7F80
0800
0C00
3200
C1C0
ENDCHAR
STARTCHAR char0x3958
ENCODING 14680
SWIDTH 1333 0
DWIDTH 16 0
BBX 9 13 3 -1
BITMAP
FC80
8480
8480
8480
8480
FC00
0000
3F80
2000
3F80
2000
2000
3F80
ENDCHAR
STARTCHAR char0x3959
ENCODING 14681
SWIDTH 1333 0
DWIDTH 16 0
BBX 13 15 2 -2
BITMAP
0040
8240
8240
8240
8240
FE40
8278
8240
8240
8240
FE40
0040
0040
0040
0040
ENDCHAR
STARTCHAR char0x395A
ENCODING 14682
SWIDTH 1333 0
DWIDTH 16 0
BBX 13 15 2 -2
BITMAP
0020
8220
8220
FE20
8238
8220
FE20
0020
0000
7FE0
0020
0020
0020
0020
0020
ENDCHAR
STARTCHAR char0x395B
ENCODING 14683
SWIDTH 1333 0
DWIDTH 16 0
BBX 13 15 2 -2
BITMAP
0020
8220
8220
FE20
8238
8220
FE20
0020
0000
7BE0
0820
0820
0820
0820
0820
ENDCHAR
STARTCHAR char0x395C
ENCODING 14684
SWIDTH 1333 0
DWIDTH 16 0
BBX 13 15 2 -2
BITMAP
0020
8220
8220
FE38
8220
8220
FE20
0020
0000
7C40
0440
0440
04E0
0520
0610
ENDCHAR
STARTCHAR char0x395D
ENCODING 14685
SWIDTH 1333 0
DWIDTH 16 0
BBX 13 14 2 -1
BITMAP
0020
8220
8220
8220
FE38
8220
8220
FE20
0020
0020
2020
2000
2000
3FE0
ENDCHAR
STARTCHAR char0x395E
ENCODING 14686
SWIDTH 1333 0
DWIDTH 16 0
BBX 13 13 2 -1
BITMAP
8240
8240
FE40
8238
8240
FE40
0000
0000
3FC0
2000
2000
2000
3FC0
ENDCHAR
STARTCHAR char0x395F
ENCODING 14687
SWIDTH 1333 0
DWIDTH 16 0
BBX 13 14 2 -1
BITMAP
0020
8220
8220
FE38
8220
8220
FE20
0000
3FE0
0020
3FE0
2000
2000
3FE0
ENDCHAR
STARTCHAR char0x3960
ENCODING 14688
SWIDTH 1333 0
DWIDTH 16 0
BBX 13 14 2 -1
BITMAP
0020
8220
8220
FE38
8220
8220
FE20
0000
7FE0
0420
7C20
4020
4020
7E20
ENDCHAR
STARTCHAR char0x3961
ENCODING 14689
SWIDTH 1333 0
DWIDTH 16 0
BBX 13 14 2 -1
BITMAP
0020
8220
8220
FE38
8220
8220
FE20
0000
7BE0
0A20
7A20
4220
4220
7BE0
ENDCHAR
STARTCHAR char0x3962
ENCODING 14690
SWIDTH 1333 0
DWIDTH 16 0
BBX 13 14 2 -1
BITMAP
0020
8220
8220
FE38
8220
8220
FE20
0000
7A20
0A20
7BE0
4220
4220
7BE0
ENDCHAR
STARTCHAR char0x3963
ENCODING 14691
SWIDTH 1333 0
DWIDTH 16 0
BBX 13 14 2 -1
BITMAP
0020
8220
8220
FE20
8238
8220
FE20
0020
0000
3FE0
2020
2020
2020
3FE0
ENDCHAR
STARTCHAR char0x3964
ENCODING 14692
SWIDTH 1333 0
DWIDTH 16 0
BBX 13 14 2 -1
BITMAP
0020
8220
8220
FE38
8220
8220
FE20
0000
2020
2020
3FE0
2020
2020
3FE0
ENDCHAR
STARTCHAR char0x3965
ENCODING 14693
SWIDTH 1333 0
DWIDTH 16 0
BBX 13 15 2 -2
BITMAP
0020
8220
8220
8220
FE20
8238
8220
FE20
0020
0220
0200
0700
0980
30C0
C030
ENDCHAR
STARTCHAR char0x3966
ENCODING 14694
SWIDTH 1333 0
DWIDTH 16 0
BBX 13 14 2 -1
BITMAP
0020
8220
8220
FE20
8238
8220
FE20
0020
0000
1F80
6060
4020
6060
1F80
ENDCHAR
STARTCHAR char0x3967
ENCODING 14695
SWIDTH 1333 0
DWIDTH 16 0
BBX 13 13 2 -1
BITMAP
8240
8240
FE38
8240
8240
FE00
0000
3FC0
2000
3FC0
2000
2000
3FC0
ENDCHAR
STARTCHAR char0x3968
ENCODING 14696
SWIDTH 1333 0
DWIDTH 16 0
BBX 12 15 2 -2
BITMAP
0090
8490
8490
8490
8490
FC90
84F0
8490
8490
8490
FC90
0090
0090
0090
0090
ENDCHAR
STARTCHAR char0x3969
ENCODING 14697
SWIDTH 1333 0
DWIDTH 16 0
BBX 12 15 2 -2
BITMAP
0090
8490
8490
FC90
84F0
8490
FC90
0090
0000
3FF0
0010
0010
0010
0010
0010
ENDCHAR
STARTCHAR char0x396A
ENCODING 14698
SWIDTH 1333 0
DWIDTH 16 0
BBX 12 14 2 -1
BITMAP
0090
8490
8490
8490
FC90
84F0
8490
FC90
0090
0090
1000
1000
1000
1FF0
ENDCHAR
STARTCHAR char0x396B
ENCODING 14699
SWIDTH 1333 0
DWIDTH 16 0
BBX 12 14 2 -1
BITMAP
0090
8490
8490
FCF0
8490
8490
FC90
0000
1FF0
0010
1FF0
1000
1000
1FF0
ENDCHAR
STARTCHAR char0x396C
ENCODING 14700
SWIDTH 1333 0
DWIDTH 16 0
BBX 12 14 2 -1
BITMAP
0090
8490
8490
FCF0
8490
8490
FC90
0090
0000
1FF0
1010
1010
1010
1FF0
ENDCHAR
STARTCHAR char0x396D
ENCODING 14701
SWIDTH 1333 0
DWIDTH 16 0
BBX 12 14 2 -1
BITMAP
0090
8490
8490
FCF0
8490
8490
FC90
0000
1010
1010
1FF0
1010
1010
1FF0
ENDCHAR
STARTCHAR char0x396E
ENCODING 14702
SWIDTH 1333 0
DWIDTH 16 0
BBX 13 15 2 -2
BITMAP
0090
8490
8490
8490
FCF0
8490
8490
FC90
0090
0210
0200
0700
0C80
1860
6018
ENDCHAR
STARTCHAR char0x396F
ENCODING 14703
SWIDTH 1333 0
DWIDTH 16 0
BBX 13 15 2 -2
BITMAP
0090
8490
8490
8490
FCF0
8490
8490
FC90
0000
1040
1040
1840
24A0
6710
C208
ENDCHAR
STARTCHAR char0x3970
ENCODING 14704
SWIDTH 1333 0
DWIDTH 16 0
BBX 12 14 2 -1
BITMAP
0090
8490
8490
FCF0
8490
8490
FC90
0090
0000
0FC0
3030
2010
3030
0FC0
ENDCHAR
STARTCHAR char0x3971
ENCODING 14705
SWIDTH 1333 0
DWIDTH 16 0
BBX 11 14 2 -1
BITMAP
0080
84A0
84A0
FCE0
84A0
84A0
FC80
0000
1FE0
1000
1FE0
1000
1000
1FE0
ENDCHAR
STARTCHAR char0x3972
ENCODING 14706
SWIDTH 1333 0
DWIDTH 16 0
BBX 13 15 2 -2
BITMAP
0040
8240
8240
8240
8278
FE40
8240
8240
8240
8278
FE40
0040
0040
0040
0040
ENDCHAR
STARTCHAR char0x3973
ENCODING 14707
SWIDTH 1333 0
DWIDTH 16 0
BBX 13 15 2 -2
BITMAP
0020
8220
8238
FE20
8220
8238
FE20
0020
0000
7FE0
0020
0020
0020
0020
0020
ENDCHAR
STARTCHAR char0x3974
ENCODING 14708
SWIDTH 1333 0
DWIDTH 16 0
BBX 13 14 2 -1
BITMAP
0020
8220
8220
8238
FE20
8220
8238
FE20
0020
0020
2000
2000
2000
3FE0
ENDCHAR
STARTCHAR char0x3975
ENCODING 14709
SWIDTH 1333 0
DWIDTH 16 0
BBX 13 14 2 -1
BITMAP
0020
8220
8238
FE20
8220
8238
FE20
0000
2020
2020
3FE0
2020
2020
3FE0
ENDCHAR
STARTCHAR char0x3976
ENCODING 14710
SWIDTH 1333 0
DWIDTH 16 0
BBX 11 15 2 -2
BITMAP
0020
8220
8220
8220
8220
FFE0
8220
8220
8220
8220
FE20
0020
0020
0020
0020
ENDCHAR
STARTCHAR char0x3977
ENCODING 14711
SWIDTH 1333 0
DWIDTH 16 0
BBX 10 15 3 -2
BITMAP
0040
8440
8440
FC40
87C0
8440
FC40
0040
0000
7FC0
0040
0040
0040
0040
0040
ENDCHAR
STARTCHAR char0x3978
ENCODING 14712
SWIDTH 1333 0
DWIDTH 16 0
BBX 11 14 3 -1
BITMAP
0040
8440
8440
8440
FFC0
8440
8440
FC40
0040
0040
2040
2000
2000
3FE0
ENDCHAR
STARTCHAR char0x3979
ENCODING 14713
SWIDTH 1333 0
DWIDTH 16 0
BBX 9 13 3 -1
BITMAP
8480
8480
FF80
8480
8480
FC80
0000
0000
3F80
2000
2000
2000
3F80
ENDCHAR
STARTCHAR char0x397A
ENCODING 14714
SWIDTH 1333 0
DWIDTH 16 0
BBX 10 14 3 -1
BITMAP
0040
8440
8440
FFC0
8440
8440
FC40
0000
3FC0
0040
3FC0
2000
2000
3FC0
ENDCHAR
STARTCHAR char0x397B
ENCODING 14715
SWIDTH 1333 0
DWIDTH 16 0
BBX 10 14 3 -1
BITMAP
0040
8440
8440
FFC0
8440
8440
FC40
0000
7BC0
0A40
7A40
4240
4240
7BC0
ENDCHAR
STARTCHAR char0x397C
ENCODING 14716
SWIDTH 1333 0
DWIDTH 16 0
BBX 10 14 3 -1
BITMAP
0040
8440
8440
FFC0
8440
8440
FC40
0040
0000
3FC0
2040
2040
2040
3FC0
ENDCHAR
STARTCHAR char0x397D
ENCODING 14717
SWIDTH 1333 0
DWIDTH 16 0
BBX 10 14 3 -1
BITMAP
0040
8440
8440
FFC0
8440
8440
FC40
0000
2040
2040
3FC0
2040
2040
3FC0
ENDCHAR
STARTCHAR char0x397E
ENCODING 14718
SWIDTH 1333 0
DWIDTH 16 0
BBX 12 15 3 -2
BITMAP
0020
8220
8220
8220
FFE0
8220
8220
FE20
0020
0220
0200
0700
0980
30C0
C030
ENDCHAR
STARTCHAR char0x3A21
ENCODING 14881
SWIDTH 1333 0
DWIDTH 16 0
BBX 11 14 3 -1
BITMAP
0020
8220
8220
FFE0
8220
8220
FE20
0020
0020
1F80
6060
4020
6060
1F80
ENDCHAR
STARTCHAR char0x3A22
ENCODING 14882
SWIDTH 1333 0
DWIDTH 16 0
BBX 10 14 3 -2
BITMAP
8480
8480
8480
FF80
8480
8480
FC80
0000
0000
7F80
0400
0E00
3300
C0C0
ENDCHAR
STARTCHAR char0x3A23
ENCODING 14883
SWIDTH 1333 0
DWIDTH 16 0
BBX 12 15 2 -2
BITMAP
0090
8490
8490
8490
8490
FC90
8790
8490
8490
8490
FC90
0090
0090
0090
0090
ENDCHAR
STARTCHAR char0x3A24
ENCODING 14884
SWIDTH 1333 0
DWIDTH 16 0
BBX 12 15 2 -2
BITMAP
0090
8490
8490
8490
FF90
8490
8490
FC90
0090
0000
3FF0
0010
0010
0010
0010
ENDCHAR
STARTCHAR char0x3A25
ENCODING 14885
SWIDTH 1333 0
DWIDTH 16 0
BBX 12 14 2 -1
BITMAP
0090
8490
8490
8490
FF90
8490
8490
FC90
0090
0090
1000
1000
1000
1FF0
ENDCHAR
STARTCHAR char0x3A26
ENCODING 14886
SWIDTH 1333 0
DWIDTH 16 0
BBX 11 14 2 -1
BITMAP
0080
84A0
84A0
FFA0
84A0
84A0
FCA0
0080
0000
1FE0
1000
1000
1000
1FE0
ENDCHAR
STARTCHAR char0x3A27
ENCODING 14887
SWIDTH 1333 0
DWIDTH 16 0
BBX 12 14 2 -1
BITMAP
0090
8490
8490
FF90
8490
8490
FC90
0000
1FF0
0010
1FF0
1000
1000
1FF0
ENDCHAR
STARTCHAR char0x3A28
ENCODING 14888
SWIDTH 1333 0
DWIDTH 16 0
BBX 12 14 2 -1
BITMAP
0090
8490
8490
FF90
8490
8490
FC90
0090
0000
1FF0
1010
1010
1010
1FF0
ENDCHAR
STARTCHAR char0x3A29
ENCODING 14889
SWIDTH 1333 0
DWIDTH 16 0
BBX 12 14 2 -1
BITMAP
0090
8490
8490
FF90
8490
8490
FC90
0000
1010
1010
1FF0
1010
1010
1FF0
ENDCHAR
STARTCHAR char0x3A2A
ENCODING 14890
SWIDTH 1333 0
DWIDTH 16 0
BBX 13 15 2 -2
BITMAP
0090
8490
8490
8490
FF90
8490
8490
FC90
0090
0110
0300
0380
04C0
1860
6018
ENDCHAR
STARTCHAR char0x3A2B
ENCODING 14891
SWIDTH 1333 0
DWIDTH 16 0
BBX 13 15 2 -2
BITMAP
0090
8490
8490
8490
FF90
8490
8490
FC90
0090
0000
1040
1040
3CA0
67B0
C318
ENDCHAR
STARTCHAR char0x3A2C
ENCODING 14892
SWIDTH 1333 0
DWIDTH 16 0
BBX 12 14 2 -1
BITMAP
0090
8490
8490
FF90
8490
8490
FC90
0090
0000
0FC0
3030
2010
3030
0FC0
ENDCHAR
STARTCHAR char0x3A2D
ENCODING 14893
SWIDTH 1333 0
DWIDTH 16 0
BBX 11 15 2 -2
BITMAP
0020
8220
8220
8220
83E0
FE20
8220
8220
83E0
8220
FE20
0020
0020
0020
0020
ENDCHAR
STARTCHAR char0x3A2E
ENCODING 14894
SWIDTH 1333 0
DWIDTH 16 0
BBX 10 15 3 -2
BITMAP
0040
8440
87C0
8440
FC40
87C0
8440
FC40
0040
0000
7FC0
0040
0040
0040
0040
ENDCHAR
STARTCHAR char0x3A2F
ENCODING 14895
SWIDTH 1333 0
DWIDTH 16 0
BBX 10 14 3 -1
BITMAP
0040
8440
8440
87C0
FC40
8440
87C0
FC40
0040
2040
2040
2000
2000
3FC0
ENDCHAR
STARTCHAR char0x3A30
ENCODING 14896
SWIDTH 1333 0
DWIDTH 16 0
BBX 10 14 3 -1
BITMAP
0040
8440
87C0
FC40
8440
87C0
FC40
0000
3FC0
0040
3FC0
2000
2000
3FC0
ENDCHAR
STARTCHAR char0x3A31
ENCODING 14897
SWIDTH 1333 0
DWIDTH 16 0
BBX 10 14 3 -1
BITMAP
0040
8440
87C0
FC40
8440
87C0
FC40
0000
2040
2040
3FC0
2040
2040
3FC0
ENDCHAR
STARTCHAR char0x3A32
ENCODING 14898
SWIDTH 1333 0
DWIDTH 16 0
BBX 12 15 3 -2
BITMAP
0020
8220
8220
83E0
FE20
8220
83E0
FE20
0020
0220
0200
0700
0980
30C0
C030
ENDCHAR
STARTCHAR char0x3A33
ENCODING 14899
SWIDTH 1333 0
DWIDTH 16 0
BBX 12 15 3 -2
BITMAP
0040
8240
83C0
8240
FE40
83C0
8240
FE40
0040
1080
1080
1080
2940
4620
8410
ENDCHAR
STARTCHAR char0x3A34
ENCODING 14900
SWIDTH 1333 0
DWIDTH 16 0
BBX 11 14 3 -1
BITMAP
0020
8220
83E0
FE20
8220
83E0
FE20
0020
0020
1F80
6060
4020
6060
1F80
ENDCHAR
STARTCHAR char0x3A35
ENCODING 14901
SWIDTH 1333 0
DWIDTH 16 0
BBX 9 13 3 -1
BITMAP
8480
8780
FC80
8480
8780
FC80
0000
0000
3F80
2000
3F80
2000
3F80
ENDCHAR
STARTCHAR char0x3A36
ENCODING 14902
SWIDTH 1333 0
DWIDTH 16 0
BBX 12 15 2 -2
BITMAP
0090
8490
8490
8490
8790
FC90
8490
8490
8790
8490
FC90
0090
0090
0090
0010
ENDCHAR
STARTCHAR char0x3A37
ENCODING 14903
SWIDTH 1333 0
DWIDTH 16 0
BBX 12 14 2 -1
BITMAP
0090
8490
8490
8790
FC90
8490
8790
FC90
0090
1090
1000
1000
1000
1FF0
ENDCHAR
STARTCHAR char0x3A38
ENCODING 14904
SWIDTH 1333 0
DWIDTH 16 0
BBX 14 11 1 1
BITMAP
2010
2010
2010
3FF0
2010
2010
3FF0
0200
0200
0200
FFFC
ENDCHAR
STARTCHAR char0x3A39
ENCODING 14905
SWIDTH 1333 0
DWIDTH 16 0
BBX 14 15 1 -2
BITMAP
2010
2010
3FF0
2010
2010
3FF0
0200
0200
FFFC
0000
0000
3FF0
0010
0010
0010
ENDCHAR
STARTCHAR char0x3A3A
ENCODING 14906
SWIDTH 1333 0
DWIDTH 16 0
BBX 14 15 1 -2
BITMAP
2010
2010
3FF0
2010
2010
3FF0
0200
0200
FFFC
0000
0000
3DF0
0410
0410
0410
ENDCHAR
STARTCHAR char0x3A3B
ENCODING 14907
SWIDTH 1333 0
DWIDTH 16 0
BBX 14 14 1 -1
BITMAP
2020
2020
3FE0
2020
2020
3FE0
0200
0200
FFFC
0000
2000
2000
2000
3FF0
ENDCHAR
STARTCHAR char0x3A3C
ENCODING 14908
SWIDTH 1333 0
DWIDTH 16 0
BBX 14 14 1 -1
BITMAP
2010
2010
3FF0
2010
3FF0
0200
FFFC
0000
3FF0
0010
3FF0
2000
2000
3FF0
ENDCHAR
STARTCHAR char0x3A3D
ENCODING 14909
SWIDTH 1333 0
DWIDTH 16 0
BBX 14 14 1 -1
BITMAP
2010
2010
3FF0
2010
2010
3FF0
0200
FFFC
0000
3FF0
2010
2010
2010
3FF0
ENDCHAR
STARTCHAR char0x3A3E
ENCODING 14910
SWIDTH 1333 0
DWIDTH 16 0
BBX 14 14 1 -1
BITMAP
2010
2010
3FF0
2010
3FF0
0200
FFFC
0000
2010
2010
3FF0
2010
2010
3FF0
ENDCHAR
STARTCHAR char0x3A3F
ENCODING 14911
SWIDTH 1333 0
DWIDTH 16 0
BBX 14 15 1 -2
BITMAP
2020
2020
3FE0
2020
2020
3FE0
0200
0200
FFFC
0000
0200
0200
0700
18C0
6038
ENDCHAR
STARTCHAR char0x3A40
ENCODING 14912
SWIDTH 1333 0
DWIDTH 16 0
BBX 14 14 1 -1
BITMAP
2010
2010
3FF0
2010
2010
3FF0
0200
FFFC
0000
0FC0
3030
2010
3030
0FC0
ENDCHAR
STARTCHAR char0x3A41
ENCODING 14913
SWIDTH 1333 0
DWIDTH 16 0
BBX 15 15 1 -2
BITMAP
0010
4090
4090
4090
7F90
4090
409E
7F90
0410
0410
0410
FFD0
0010
0010
0010
ENDCHAR
STARTCHAR char0x3A42
ENCODING 14914
SWIDTH 1333 0
DWIDTH 16 0
BBX 14 14 1 -1
BITMAP
0010
4110
4110
7F10
4110
7F1C
0810
0810
FFD0
0010
1010
1000
1000
1FF0
ENDCHAR
STARTCHAR char0x3A43
ENCODING 14915
SWIDTH 1333 0
DWIDTH 16 0
BBX 14 15 1 -2
BITMAP
0010
4110
4110
7F10
411C
4110
7F10
0810
FFD0
0000
0840
0840
14A0
37B0
6318
ENDCHAR
STARTCHAR char0x3A44
ENCODING 14916
SWIDTH 1333 0
DWIDTH 16 0
BBX 13 15 1 -2
BITMAP
0048
4248
4248
4248
7E48
4248
4248
7E78
0848
0848
0848
FF48
0048
0048
0048
ENDCHAR
STARTCHAR char0x3A45
ENCODING 14917
SWIDTH 1333 0
DWIDTH 16 0
BBX 14 15 1 -2
BITMAP
0048
4248
4248
7E48
4278
7E48
1048
1048
FF48
0000
0820
0820
1C70
2498
C30C
ENDCHAR
STARTCHAR char0x3A46
ENCODING 14918
SWIDTH 1333 0
DWIDTH 16 0
BBX 12 15 1 -2
BITMAP
0010
2090
2090
2090
3F90
2090
2090
3F90
0410
0410
0410
FFD0
0010
0010
0010
ENDCHAR
STARTCHAR char0x3A47
ENCODING 14919
SWIDTH 1333 0
DWIDTH 16 0
BBX 12 15 1 -2
BITMAP
0010
4090
4090
7F90
4090
7F90
0410
0410
FFD0
0000
3FF0
0010
0010
0010
0010
ENDCHAR
STARTCHAR char0x3A48
ENCODING 14920
SWIDTH 1333 0
DWIDTH 16 0
BBX 12 14 1 -1
BITMAP
0010
4090
4090
7F90
4090
7F90
0410
0410
FFD0
0010
1010
1000
1000
1FF0
ENDCHAR
STARTCHAR char0x3A49
ENCODING 14921
SWIDTH 1333 0
DWIDTH 16 0
BBX 12 14 1 -1
BITMAP
0010
4090
4090
7F90
4090
7F90
0410
FFD0
0000
1FF0
0010
1FF0
1000
1FF0
ENDCHAR
STARTCHAR char0x3A4A
ENCODING 14922
SWIDTH 1333 0
DWIDTH 16 0
BBX 12 14 1 -1
BITMAP
0010
4090
4090
7F90
4090
7F90
0410
FFD0
0000
1FF0
1010
1010
1010
1FF0
ENDCHAR
STARTCHAR char0x3A4B
ENCODING 14923
SWIDTH 1333 0
DWIDTH 16 0
BBX 12 14 1 -1
BITMAP
0010
4090
4090
7F90
4090
7F90
0410
FFD0
0000
1010
1010
1FF0
1010
1FF0
ENDCHAR
STARTCHAR char0x3A4C
ENCODING 14924
SWIDTH 1333 0
DWIDTH 16 0
BBX 14 11 1 1
BITMAP
2010
2010
2010
3FF0
2010
2010
3FF0
0840
0840
0840
FFFC
ENDCHAR
STARTCHAR char0x3A4D
ENCODING 14925
SWIDTH 1333 0
DWIDTH 16 0
BBX 14 14 1 -1
BITMAP
2020
2020
3FE0
2020
2020
3FE0
0840
0840
FFFC
0000
2000
2000
2000
3FF0
ENDCHAR
STARTCHAR char0x3A4E
ENCODING 14926
SWIDTH 1333 0
DWIDTH 16 0
BBX 14 15 1 -2
BITMAP
2010
2010
3FF0
2010
2010
3FF0
0000
0000
FFFC
0200
0200
0200
0200
0200
0200
ENDCHAR
STARTCHAR char0x3A4F
ENCODING 14927
SWIDTH 1333 0
DWIDTH 16 0
BBX 14 15 1 -2
BITMAP
2010
2010
3FF0
2010
2010
3FF0
0000
FFFC
0200
0200
3FF0
0010
0010
0010
0010
ENDCHAR
STARTCHAR char0x3A50
ENCODING 14928
SWIDTH 1333 0
DWIDTH 16 0
BBX 14 14 1 -1
BITMAP
2020
2020
3FE0
2020
2020
3FE0
0000
FFFC
0200
0200
2200
2200
2000
3FF0
ENDCHAR
STARTCHAR char0x3A51
ENCODING 14929
SWIDTH 1333 0
DWIDTH 16 0
BBX 14 14 1 -1
BITMAP
2020
2020
3FE0
2020
3FE0
0000
FFFC
0200
0200
3FF0
2000
2000
2000
3FF0
ENDCHAR
STARTCHAR char0x3A52
ENCODING 14930
SWIDTH 1333 0
DWIDTH 16 0
BBX 14 14 1 -1
BITMAP
2010
2010
3FF0
2010
3FF0
0000
FFFC
0200
3FF0
0010
3FF0
2000
2000
3FF0
ENDCHAR
STARTCHAR char0x3A53
ENCODING 14931
SWIDTH 1333 0
DWIDTH 16 0
BBX 14 14 1 -1
BITMAP
2020
2020
3FE0
2020
3FE0
0000
FFFC
0200
3FF0
0210
3E10
2010
2010
3E10
ENDCHAR
STARTCHAR char0x3A54
ENCODING 14932
SWIDTH 1333 0
DWIDTH 16 0
BBX 14 14 1 -1
BITMAP
2020
2020
3FE0
2020
3FE0
0000
FFFC
0200
3FF0
0510
3D10
2110
2110
3DF0
ENDCHAR
STARTCHAR char0x3A55
ENCODING 14933
SWIDTH 1333 0
DWIDTH 16 0
BBX 14 14 1 -1
BITMAP
2010
2010
3FF0
2010
3FF0
0000
FFFC
0200
0200
3FF0
2010
2010
2010
3FF0
ENDCHAR
STARTCHAR char0x3A56
ENCODING 14934
SWIDTH 1333 0
DWIDTH 16 0
BBX 14 14 1 -1
BITMAP
2010
2010
3FF0
2010
3FF0
0000
FFFC
0200
2210
2010
3FF0
2010
2010
3FF0
ENDCHAR
STARTCHAR char0x3A57
ENCODING 14935
SWIDTH 1333 0
DWIDTH 16 0
BBX 14 15 1 -2
BITMAP
2020
2020
3FE0
2020
3FE0
0000
0000
FFFC
0200
0200
0000
0200
0700
1CC0
7038
ENDCHAR
STARTCHAR char0x3A58
ENCODING 14936
SWIDTH 1333 0
DWIDTH 16 0
BBX 14 14 1 -1
BITMAP
2010
2010
3FF0
2010
3FF0
0000
FFFC
0200
0200
1FC0
3030
2010
3030
0FC0
ENDCHAR
STARTCHAR char0x3A59
ENCODING 14937
SWIDTH 1333 0
DWIDTH 16 0
BBX 14 14 1 -1
BITMAP
2020
2020
3FE0
2020
3FE0
0000
FFFC
0200
0200
3FF0
2000
3FF0
2000
3FF0
ENDCHAR
STARTCHAR char0x3A5A
ENCODING 14938
SWIDTH 1333 0
DWIDTH 16 0
BBX 14 14 1 -1
BITMAP
2020
2020
3FE0
2020
3FE0
0000
FFFC
0200
0200
3FF0
0840
0840
0840
3FF0
ENDCHAR
STARTCHAR char0x3A5B
ENCODING 14939
SWIDTH 1333 0
DWIDTH 16 0
BBX 13 15 1 -2
BITMAP
0008
2088
2088
3F88
2088
2088
3F88
0008
FFE8
0408
0408
04F8
0408
0408
0408
ENDCHAR
STARTCHAR char0x3A5C
ENCODING 14940
SWIDTH 1333 0
DWIDTH 16 0
BBX 13 14 1 -1
BITMAP
0008
2088
3F88
20F8
3F88
0008
FFE8
0408
0400
1FF8
0008
1FF8
1000
1FF8
ENDCHAR
STARTCHAR char0x3A5D
ENCODING 14941
SWIDTH 1333 0
DWIDTH 16 0
BBX 13 15 1 -2
BITMAP
0010
2110
2110
3F10
2110
3F10
0010
FFD0
0810
08F0
0010
0840
0C40
14A0
6318
ENDCHAR
STARTCHAR char0x3A5E
ENCODING 14942
SWIDTH 1333 0
DWIDTH 16 0
BBX 13 15 1 -2
BITMAP
0048
4248
4248
7E48
4248
4248
7E48
0048
FFC8
0848
0BC8
0848
0848
0848
0048
ENDCHAR
STARTCHAR char0x3A5F
ENCODING 14943
SWIDTH 1333 0
DWIDTH 16 0
BBX 13 15 1 -2
BITMAP
0008
2088
2088
3F88
2088
2088
3F88
0008
FFE8
0408
0408
0408
0408
0408
0408
ENDCHAR
STARTCHAR char0x3A60
ENCODING 14944
SWIDTH 1333 0
DWIDTH 16 0
BBX 12 15 1 -2
BITMAP
0010
2110
2110
3F10
2110
3F10
0010
FFD0
0810
0800
1FF0
0010
0010
0010
0010
ENDCHAR
STARTCHAR char0x3A61
ENCODING 14945
SWIDTH 1333 0
DWIDTH 16 0
BBX 12 14 1 -1
BITMAP
0010
4110
4110
7F10
4110
7F10
0010
FFD0
0410
0410
2410
2000
2000
3FF0
ENDCHAR
STARTCHAR char0x3A62
ENCODING 14946
SWIDTH 1333 0
DWIDTH 16 0
BBX 12 14 1 -1
BITMAP
0010
4110
7F10
4110
7F10
0010
FFD0
0810
0800
1FF0
0010
1FF0
1000
1FF0
ENDCHAR
STARTCHAR char0x3A63
ENCODING 14947
SWIDTH 1333 0
DWIDTH 16 0
BBX 13 14 1 -1
BITMAP
0008
2088
2088
3F88
2088
3F88
0008
FFE8
0408
07E0
1818
1008
1818
07E0
ENDCHAR
STARTCHAR char0x3A64
ENCODING 14948
SWIDTH 1333 0
DWIDTH 16 0
BBX 14 15 1 -2
BITMAP
2010
2010
3FF0
2010
2010
3FF0
0000
0000
FFFC
0840
0840
0840
0840
0840
0840
ENDCHAR
STARTCHAR char0x3A65
ENCODING 14949
SWIDTH 1333 0
DWIDTH 16 0
BBX 14 14 1 -1
BITMAP
2020
2020
3FE0
2020
2020
3FE0
0000
FFFC
0440
0440
2440
2440
2000
3FF0
ENDCHAR
STARTCHAR char0x3A66
ENCODING 14950
SWIDTH 1333 0
DWIDTH 16 0
BBX 14 14 1 -1
BITMAP
2010
2010
3FF0
2010
3FF0
0000
FFFC
0840
0840
3FF0
0010
3FF0
2000
3FF0
ENDCHAR
STARTCHAR char0x3A67
ENCODING 14951
SWIDTH 1333 0
DWIDTH 16 0
BBX 14 14 1 -1
BITMAP
2010
2010
3FF0
2010
2010
3FF0
0000
FFFC
0840
3FF0
2010
2010
2010
3FF0
ENDCHAR
STARTCHAR char0x3A68
ENCODING 14952
SWIDTH 1333 0
DWIDTH 16 0
BBX 14 15 1 -2
BITMAP
2020
2020
3FE0
2020
2020
3FE0
0000
FFFC
1040
1240
1240
0700
0C80
1860
6018
ENDCHAR
STARTCHAR char0x3A69
ENCODING 14953
SWIDTH 1333 0
DWIDTH 16 0
BBX 14 14 1 -1
BITMAP
2010
2010
3FF0
2010
3FF0
0000
FFFC
0840
0840
0FC0
3030
2010
3030
0FC0
ENDCHAR
STARTCHAR char0x3A6A
ENCODING 14954
SWIDTH 1333 0
DWIDTH 16 0
BBX 14 11 1 1
BITMAP
2020
2020
2020
3FE0
2020
2020
3FE0
0000
0000
0000
FFFC
ENDCHAR
STARTCHAR char0x3A6B
ENCODING 14955
SWIDTH 1333 0
DWIDTH 16 0
BBX 14 15 1 -2
BITMAP
2010
2010
3FF0
2010
2010
3FF0
0000
0000
FFFC
0000
0000
3FF0
0010
0010
0010
ENDCHAR
STARTCHAR char0x3A6C
ENCODING 14956
SWIDTH 1333 0
DWIDTH 16 0
BBX 14 14 1 -1
BITMAP
2020
2020
3FE0
2020
2020
3FE0
0000
FFFC
0000
0000
2000
2000
2000
3FF0
ENDCHAR
STARTCHAR char0x3A6D
ENCODING 14957
SWIDTH 1333 0
DWIDTH 16 0
BBX 14 14 1 -1
BITMAP
2010
2010
3FF0
2010
3FF0
0000
FFFC
0000
3FF0
0010
3FF0
2000
2000
3FF0
ENDCHAR
STARTCHAR char0x3A6E
ENCODING 14958
SWIDTH 1333 0
DWIDTH 16 0
BBX 14 14 1 -1
BITMAP
2010
2010
3FF0
2010
2010
3FF0
0000
FFFC
0000
3FF0
2010
2010
2010
3FF0
ENDCHAR
STARTCHAR char0x3A6F
ENCODING 14959
SWIDTH 1333 0
DWIDTH 16 0
BBX 14 14 1 -1
BITMAP
2010
2010
3FF0
2010
3FF0
0000
FFFC
0000
2010
2010
3FF0
2010
2010
3FF0
ENDCHAR
STARTCHAR char0x3A70
ENCODING 14960
SWIDTH 1333 0
DWIDTH 16 0
BBX 14 15 1 -2
BITMAP
2020
2020
3FE0
2020
2020
3FE0
0000
FFFC
0000
0200
0200
0700
0C80
1840
6038
ENDCHAR
STARTCHAR char0x3A71
ENCODING 14961
SWIDTH 1333 0
DWIDTH 16 0
BBX 11 15 2 -2
BITMAP
0020
8220
8220
8220
8220
FE20
8220
8220
8220
8220
FE20
0020
0020
0020
0020
ENDCHAR
STARTCHAR char0x3A72
ENCODING 14962
SWIDTH 1333 0
DWIDTH 16 0
BBX 10 15 3 -2
BITMAP
0040
8440
8440
FC40
8440
8440
FC40
0040
0000
7FC0
0040
0040
0040
0040
0040
ENDCHAR
STARTCHAR char0x3A73
ENCODING 14963
SWIDTH 1333 0
DWIDTH 16 0
BBX 10 14 3 -1
BITMAP
0040
8440
8440
8440
FC40
8440
8440
FC40
0040
2040
2000
2000
2000
3FC0
ENDCHAR
STARTCHAR char0x3A74
ENCODING 14964
SWIDTH 1333 0
DWIDTH 16 0
BBX 10 14 3 -1
BITMAP
0040
8440
8440
FC40
8440
8440
FC40
0000
3FC0
0040
3FC0
2000
2000
3FC0
ENDCHAR
STARTCHAR char0x3A75
ENCODING 14965
SWIDTH 1333 0
DWIDTH 16 0
BBX 10 14 3 -1
BITMAP
0040
8440
8440
FC40
8440
8440
FC40
0000
7BC0
0A40
7A40
4240
4240
7BC0
ENDCHAR
STARTCHAR char0x3A76
ENCODING 14966
SWIDTH 1333 0
DWIDTH 16 0
BBX 10 14 3 -1
BITMAP
0040
8440
8440
FC40
8440
8440
FC40
0040
0000
3FC0
2040
2040
2040
3FC0
ENDCHAR
STARTCHAR char0x3A77
ENCODING 14967
SWIDTH 1333 0
DWIDTH 16 0
BBX 10 14 3 -1
BITMAP
0040
8440
8440
FC40
8440
8440
FC40
0000
2040
2040
3FC0
2040
2040
3FC0
ENDCHAR
STARTCHAR char0x3A78
ENCODING 14968
SWIDTH 1333 0
DWIDTH 16 0
BBX 12 15 3 -2
BITMAP
0020
8220
8220
8220
FE20
8220
8220
FE20
0020
0220
0600
0700
0980
30C0
C030
ENDCHAR
STARTCHAR char0x3A79
ENCODING 14969
SWIDTH 1333 0
DWIDTH 16 0
BBX 11 14 3 -1
BITMAP
0020
8220
8220
FE20
8220
8220
FE20
0020
0020
1F80
6060
4020
6060
1F80
ENDCHAR
STARTCHAR char0x3A7A
ENCODING 14970
SWIDTH 1333 0
DWIDTH 16 0
BBX 10 14 3 -2
BITMAP
8480
8480
FC80
8480
8480
FC80
0000
0000
7F80
0400
0E00
1200
2180
C0C0
ENDCHAR
STARTCHAR char0x3A7B
ENCODING 14971
SWIDTH 1333 0
DWIDTH 16 0
BBX 10 15 3 -2
BITMAP
0080
8480
8480
FC80
8480
8480
FC80
0080
0480
0400
7F80
0800
0C00
3200
C1C0
ENDCHAR
STARTCHAR char0x3A7C
ENCODING 14972
SWIDTH 1333 0
DWIDTH 16 0
BBX 15 15 1 -2
BITMAP
0010
9490
9490
9490
9490
F790
949E
9490
9490
9490
F790
0010
0010
0010
0010
ENDCHAR
STARTCHAR char0x3A7D
ENCODING 14973
SWIDTH 1333 0
DWIDTH 16 0
BBX 13 15 2 -2
BITMAP
0020
9520
9520
F720
9538
9520
9520
F720
0000
7FE0
0020
0020
0020
0020
0020
ENDCHAR
STARTCHAR char0x3A7E
ENCODING 14974
SWIDTH 1333 0
DWIDTH 16 0
BBX 13 14 2 -1
BITMAP
0020
9520
9520
9520
F720
9538
9520
F720
0020
0020
2000
2000
2000
3FE0
ENDCHAR
STARTCHAR char0x3B21
ENCODING 15137
SWIDTH 1333 0
DWIDTH 16 0
BBX 13 14 2 -1
BITMAP
0020
9520
9520
F720
9538
9520
F720
0000
3FE0
0020
3FE0
2000
2000
3FE0
ENDCHAR
STARTCHAR char0x3B22
ENCODING 15138
SWIDTH 1333 0
DWIDTH 16 0
BBX 13 14 2 -1
BITMAP
0020
9520
9520
F720
9538
9520
F720
0000
7BE0
0A20
7A20
4220
4220
7BE0
ENDCHAR
STARTCHAR char0x3B23
ENCODING 15139
SWIDTH 1333 0
DWIDTH 16 0
BBX 13 14 2 -1
BITMAP
0020
9520
9520
F720
9538
9520
F720
0020
0000
3FE0
2020
2020
2020
3FE0
ENDCHAR
STARTCHAR char0x3B24
ENCODING 15140
SWIDTH 1333 0
DWIDTH 16 0
BBX 13 14 2 -1
BITMAP
0020
94A0
94A0
F7A0
94B8
94A0
F7A0
0000
2020
2020
3FE0
2020
2020
3FE0
ENDCHAR
STARTCHAR char0x3B25
ENCODING 15141
SWIDTH 1333 0
DWIDTH 16 0
BBX 13 15 2 -2
BITMAP
0020
94A0
94A0
94A0
F7A0
94B8
94A0
F7A0
0020
0420
0400
0E00
0D00
38C0
6030
ENDCHAR
STARTCHAR char0x3B26
ENCODING 15142
SWIDTH 1333 0
DWIDTH 16 0
BBX 13 15 2 -2
BITMAP
0020
9520
9520
9520
F738
9520
9520
F720
0020
1040
1040
1040
28E0
4520
8210
ENDCHAR
STARTCHAR char0x3B27
ENCODING 15143
SWIDTH 1333 0
DWIDTH 16 0
BBX 13 14 2 -1
BITMAP
0020
9520
9520
9520
F738
9520
9520
F720
0020
1F80
6060
4020
6060
1F80
ENDCHAR
STARTCHAR char0x3B28
ENCODING 15144
SWIDTH 1333 0
DWIDTH 16 0
BBX 13 14 2 -1
BITMAP
0020
9520
9520
F738
9520
F720
0020
0200
7FF0
0000
1F80
2040
2040
1F80
ENDCHAR
STARTCHAR char0x3B29
ENCODING 15145
SWIDTH 1333 0
DWIDTH 16 0
BBX 13 15 1 -2
BITMAP
0048
9548
9548
9548
9548
F748
9578
9548
9548
9548
F748
0048
0048
0048
0008
ENDCHAR
STARTCHAR char0x3B2A
ENCODING 15146
SWIDTH 1333 0
DWIDTH 16 0
BBX 12 15 2 -2
BITMAP
0050
A950
A950
EF50
A970
A950
A950
EF50
0050
0000
3FF0
0010
0010
0010
0010
ENDCHAR
STARTCHAR char0x3B2B
ENCODING 15147
SWIDTH 1333 0
DWIDTH 16 0
BBX 12 14 2 -1
BITMAP
0050
A950
A950
A950
EF50
A970
A950
EF50
0050
0050
2000
2000
2000
3FF0
ENDCHAR
STARTCHAR char0x3B2C
ENCODING 15148
SWIDTH 1333 0
DWIDTH 16 0
BBX 12 14 2 -1
BITMAP
0050
A950
A950
EF70
A950
A950
EF50
0000
3FF0
0010
3FF0
2000
2000
3FF0
ENDCHAR
STARTCHAR char0x3B2D
ENCODING 15149
SWIDTH 1333 0
DWIDTH 16 0
BBX 12 14 2 -1
BITMAP
0050
A950
A950
A950
EF70
A950
A950
EF50
0000
3FF0
2010
2010
2010
3FF0
ENDCHAR
STARTCHAR char0x3B2E
ENCODING 15150
SWIDTH 1333 0
DWIDTH 16 0
BBX 12 14 2 -1
BITMAP
0050
A950
A950
EF70
A950
A950
EF50
0000
2010
2010
3FF0
2010
2010
3FF0
ENDCHAR
STARTCHAR char0x3B2F
ENCODING 15151
SWIDTH 1333 0
DWIDTH 16 0
BBX 13 15 2 -2
BITMAP
0050
A950
A950
A950
A970
EF50
A950
EF50
0050
0200
0200
0700
0C80
1860
6018
ENDCHAR
STARTCHAR char0x3B30
ENCODING 15152
SWIDTH 1333 0
DWIDTH 16 0
BBX 13 15 2 -2
BITMAP
0050
A950
A950
A950
EF70
A950
A950
A950
EF00
1040
1040
1840
24A0
6710
C208
ENDCHAR
STARTCHAR char0x3B31
ENCODING 15153
SWIDTH 1333 0
DWIDTH 16 0
BBX 12 14 2 -1
BITMAP
0050
A950
A950
A950
EF70
A950
A950
EF50
0000
0FC0
3030
2010
3030
0FC0
ENDCHAR
STARTCHAR char0x3B32
ENCODING 15154
SWIDTH 1333 0
DWIDTH 16 0
BBX 15 15 1 -2
BITMAP
0010
9490
9490
9490
949E
F790
9490
9490
9490
949E
F790
0010
0010
0010
0010
ENDCHAR
STARTCHAR char0x3B33
ENCODING 15155
SWIDTH 1333 0
DWIDTH 16 0
BBX 13 15 2 -2
BITMAP
0020
9520
9538
9520
F720
9538
9520
F720
0000
7FE0
0020
0020
0020
0020
0020
ENDCHAR
STARTCHAR char0x3B34
ENCODING 15156
SWIDTH 1333 0
DWIDTH 16 0
BBX 13 14 2 -1
BITMAP
0020
94A0
94B8
94A0
F7A0
94B8
94A0
F7A0
0000
3FE0
2020
2020
2020
3FE0
ENDCHAR
STARTCHAR char0x3B35
ENCODING 15157
SWIDTH 1333 0
DWIDTH 16 0
BBX 11 15 2 -2
BITMAP
0020
9520
9520
9520
9520
F720
95E0
9520
9520
9520
F720
0020
0020
0020
0020
ENDCHAR
STARTCHAR char0x3B36
ENCODING 15158
SWIDTH 1333 0
DWIDTH 16 0
BBX 12 15 2 -2
BITMAP
0010
9490
9490
9490
F7F0
9490
9490
F790
0000
3FF0
0010
0010
0010
0010
0010
ENDCHAR
STARTCHAR char0x3B37
ENCODING 15159
SWIDTH 1333 0
DWIDTH 16 0
BBX 13 14 2 -1
BITMAP
0010
9490
9490
9490
F7F0
9490
9490
F790
0010
0010
2010
2000
2000
3FF8
ENDCHAR
STARTCHAR char0x3B38
ENCODING 15160
SWIDTH 1333 0
DWIDTH 16 0
BBX 11 13 2 -1
BITMAP
94A0
94A0
94A0
F7E0
94A0
94A0
F780
0000
3FE0
2000
2000
2000
3FE0
ENDCHAR
STARTCHAR char0x3B39
ENCODING 15161
SWIDTH 1333 0
DWIDTH 16 0
BBX 12 14 2 -1
BITMAP
0010
9490
9490
F7F0
9490
9490
F790
0000
3FF0
0010
3FF0
2000
2000
3FF0
ENDCHAR
STARTCHAR char0x3B3A
ENCODING 15162
SWIDTH 1333 0
DWIDTH 16 0
BBX 12 14 2 -1
BITMAP
0010
9490
9490
9490
F7F0
9490
9490
F790
0000
3FF0
2010
2010
2010
3FF0
ENDCHAR
STARTCHAR char0x3B3B
ENCODING 15163
SWIDTH 1333 0
DWIDTH 16 0
BBX 13 15 2 -2
BITMAP
0010
9490
9490
9490
F7F0
9490
9490
F790
0010
0210
0200
0700
0C80
1860
6018
ENDCHAR
STARTCHAR char0x3B3C
ENCODING 15164
SWIDTH 1333 0
DWIDTH 16 0
BBX 13 15 2 -2
BITMAP
0010
9490
9490
9490
F7F0
9490
9490
F790
0010
1040
1040
1840
24A0
6710
C208
ENDCHAR
STARTCHAR char0x3B3D
ENCODING 15165
SWIDTH 1333 0
DWIDTH 16 0
BBX 12 14 2 -1
BITMAP
0010
9490
9490
9490
F7F0
9490
9490
F790
0000
0FC0
3030
2010
3030
0FC0
ENDCHAR
STARTCHAR char0x3B3E
ENCODING 15166
SWIDTH 1333 0
DWIDTH 16 0
BBX 13 15 1 -2
BITMAP
0028
9528
9528
9528
9528
F7E8
9528
9528
9528
9528
F728
0028
0028
0028
0028
ENDCHAR
STARTCHAR char0x3B3F
ENCODING 15167
SWIDTH 1333 0
DWIDTH 16 0
BBX 12 14 2 -1
BITMAP
0050
A950
A950
A950
EFD0
A950
A950
EF50
0000
0FC0
3030
2010
3030
0FC0
ENDCHAR
STARTCHAR char0x3B40
ENCODING 15168
SWIDTH 1333 0
DWIDTH 16 0
BBX 11 15 2 -2
BITMAP
0020
9520
9520
9520
95E0
F720
9520
9520
95E0
9520
F720
0020
0020
0020
0020
ENDCHAR
STARTCHAR char0x3B41
ENCODING 15169
SWIDTH 1333 0
DWIDTH 16 0
BBX 12 15 2 -2
BITMAP
0010
9490
94F0
9490
F790
94F0
9490
F790
0000
3FF0
0010
0010
0010
0010
0010
ENDCHAR
STARTCHAR char0x3B42
ENCODING 15170
SWIDTH 1333 0
DWIDTH 16 0
BBX 12 14 2 -1
BITMAP
0010
9490
9490
94F0
F790
9490
94F0
F790
0000
3FF0
2010
2010
2010
3FF0
ENDCHAR
STARTCHAR char0x3B43
ENCODING 15171
SWIDTH 1333 0
DWIDTH 16 0
BBX 12 14 2 -1
BITMAP
0010
9490
94F0
F790
9490
94F0
F790
0000
2010
2010
3FF0
2010
2010
3FF0
ENDCHAR
STARTCHAR char0x3B44
ENCODING 15172
SWIDTH 1333 0
DWIDTH 16 0
BBX 13 15 2 -2
BITMAP
0010
9490
94F0
9490
F790
9490
94F0
F790
0010
0110
0300
0380
04C0
1860
6018
ENDCHAR
STARTCHAR char0x3B45
ENCODING 15173
SWIDTH 1333 0
DWIDTH 16 0
BBX 13 15 2 -2
BITMAP
0010
9490
9490
94F0
F790
9490
94F0
F790
0010
1040
1040
1840
24A0
6710
C208
ENDCHAR
STARTCHAR char0x3B46
ENCODING 15174
SWIDTH 1333 0
DWIDTH 16 0
BBX 12 14 2 -1
BITMAP
0010
9490
9490
94F0
F790
9490
94F0
F790
0010
0FC0
3030
2010
3030
0FC0
ENDCHAR
STARTCHAR char0x3B47
ENCODING 15175
SWIDTH 1333 0
DWIDTH 16 0
BBX 14 11 1 1
BITMAP
4488
4488
4488
7CF8
4488
4488
7CF8
0200
0200
0200
FFFC
ENDCHAR
STARTCHAR char0x3B48
ENCODING 15176
SWIDTH 1333 0
DWIDTH 16 0
BBX 14 15 1 -2
BITMAP
2490
2490
3CF0
2490
2490
3FF0
0200
0200
FFFC
0000
3FF0
0010
0010
0010
0010
ENDCHAR
STARTCHAR char0x3B49
ENCODING 15177
SWIDTH 1333 0
DWIDTH 16 0
BBX 14 14 1 -1
BITMAP
2490
2490
3CF0
2490
2490
3FF0
0200
0200
FFFC
0000
2000
2000
2000
3FF0
ENDCHAR
STARTCHAR char0x3B4A
ENCODING 15178
SWIDTH 1333 0
DWIDTH 16 0
BBX 14 14 1 -1
BITMAP
2490
2490
3CF0
2490
3FF0
0200
FFFC
0000
3FF0
0010
3FF0
2000
2000
3FF0
ENDCHAR
STARTCHAR char0x3B4B
ENCODING 15179
SWIDTH 1333 0
DWIDTH 16 0
BBX 14 14 1 -1
BITMAP
2490
2490
3CF0
2490
2490
3FF0
0200
FFFC
0000
3FF0
2010
2010
2010
3FF0
ENDCHAR
STARTCHAR char0x3B4C
ENCODING 15180
SWIDTH 1333 0
DWIDTH 16 0
BBX 14 14 1 -1
BITMAP
2490
2490
3CF0
2490
3FF0
0200
FFFC
0000
2010
2010
3FF0
2010
2010
3FF0
ENDCHAR
STARTCHAR char0x3B4D
ENCODING 15181
SWIDTH 1333 0
DWIDTH 16 0
BBX 14 14 1 -1
BITMAP
2490
2490
3CF0
2490
3FF0
0200
FFFC
0000
0FC0
3030
2010
2010
3030
0FC0
ENDCHAR
STARTCHAR char0x3B4E
ENCODING 15182
SWIDTH 1333 0
DWIDTH 16 0
BBX 13 15 1 -2
BITMAP
0008
4A48
4A48
4A48
7BC8
4A48
4A48
7BC8
0008
0408
0408
FFE8
0008
0008
0008
ENDCHAR
STARTCHAR char0x3B4F
ENCODING 15183
SWIDTH 1333 0
DWIDTH 16 0
BBX 14 11 1 1
BITMAP
4490
4490
4490
7CF0
4490
4490
7CF0
0840
0840
0840
FFFC
ENDCHAR
STARTCHAR char0x3B50
ENCODING 15184
SWIDTH 1333 0
DWIDTH 16 0
BBX 14 14 1 -1
BITMAP
2490
2490
3CF0
2490
3CF0
0840
FFFC
0000
0FC0
3030
2010
2010
3030
0FC0
ENDCHAR
STARTCHAR char0x3B51
ENCODING 15185
SWIDTH 1333 0
DWIDTH 16 0
BBX 14 15 1 -2
BITMAP
4490
4490
7CF0
4490
4490
7CF0
0000
0000
FFFC
0200
0200
0200
0200
0200
0200
ENDCHAR
STARTCHAR char0x3B52
ENCODING 15186
SWIDTH 1333 0
DWIDTH 16 0
BBX 14 15 1 -2
BITMAP
2490
2490
3CF0
2490
2490
3CF0
0000
FFFC
0200
0200
3FF0
0010
0010
0010
0010
ENDCHAR
STARTCHAR char0x3B53
ENCODING 15187
SWIDTH 1333 0
DWIDTH 16 0
BBX 14 14 1 -1
BITMAP
2490
2490
3CF0
2490
2490
3CF0
0000
FFFC
0200
0200
2200
2000
2000
3FF0
ENDCHAR
STARTCHAR char0x3B54
ENCODING 15188
SWIDTH 1333 0
DWIDTH 16 0
BBX 14 14 1 -1
BITMAP
2490
2490
3CF0
2490
3CF0
0000
FFFC
0200
0200
3FF0
0010
3FF0
2000
3FF0
ENDCHAR
STARTCHAR char0x3B55
ENCODING 15189
SWIDTH 1333 0
DWIDTH 16 0
BBX 14 14 1 -1
BITMAP
2490
2490
3CF0
2490
3CF0
0000
FFFC
0200
0200
3FF0
2010
2010
2010
3FF0
ENDCHAR
STARTCHAR char0x3B56
ENCODING 15190
SWIDTH 1333 0
DWIDTH 16 0
BBX 14 15 1 -2
BITMAP
2490
2490
3CF0
2490
3CF0
0000
0000
FFFC
0200
0200
0000
0200
0700
0CC0
7038
ENDCHAR
STARTCHAR char0x3B57
ENCODING 15191
SWIDTH 1333 0
DWIDTH 16 0
BBX 14 14 1 -1
BITMAP
2490
2490
3CF0
2490
3CF0
0000
FFFC
0200
0200
1FC0
3030
2010
3030
0FC0
ENDCHAR
STARTCHAR char0x3B58
ENCODING 15192
SWIDTH 1333 0
DWIDTH 16 0
BBX 14 15 1 -2
BITMAP
4490
4490
7CF0
4490
4490
7CF0
0000
0000
FFFC
0840
0840
0840
0840
0840
0840
ENDCHAR
STARTCHAR char0x3B59
ENCODING 15193
SWIDTH 1333 0
DWIDTH 16 0
BBX 14 14 1 -1
BITMAP
2490
2490
3CF0
2490
3CF0
0000
FFFC
0840
0840
0FC0
3030
2010
3030
0FC0
ENDCHAR
STARTCHAR char0x3B5A
ENCODING 15194
SWIDTH 1333 0
DWIDTH 16 0
BBX 14 11 1 1
BITMAP
4490
4490
4490
7CF0
4490
4490
7CF0
0000
0000
0000
FFFC
ENDCHAR
STARTCHAR char0x3B5B
ENCODING 15195
SWIDTH 1333 0
DWIDTH 16 0
BBX 14 14 1 -1
BITMAP
2490
2490
3CF0
2490
2490
3CF0
0000
0000
FFFC
0000
2000
2000
2000
3FF0
ENDCHAR
STARTCHAR char0x3B5C
ENCODING 15196
SWIDTH 1333 0
DWIDTH 16 0
BBX 14 14 1 -1
BITMAP
2490
2490
3CF0
2490
3CF0
0000
FFFC
0000
3FF0
0010
3FF0
2000
2000
3FF0
ENDCHAR
STARTCHAR char0x3B5D
ENCODING 15197
SWIDTH 1333 0
DWIDTH 16 0
BBX 14 14 1 -1
BITMAP
2490
2490
3CF0
2490
2490
3CF0
0000
FFFC
0000
3FF0
2010
2010
2010
3FF0
ENDCHAR
STARTCHAR char0x3B5E
ENCODING 15198
SWIDTH 1333 0
DWIDTH 16 0
BBX 14 14 1 -1
BITMAP
2490
2490
3CF0
2490
3CF0
0000
FFFC
0000
2010
2010
3FF0
2010
2010
3FF0
ENDCHAR
STARTCHAR char0x3B5F
ENCODING 15199
SWIDTH 1333 0
DWIDTH 16 0
BBX 11 15 2 -2
BITMAP
0020
94A0
94A0
94A0
94A0
F7A0
94A0
94A0
94A0
94A0
F7A0
0020
0020
0020
0020
ENDCHAR
STARTCHAR char0x3B60
ENCODING 15200
SWIDTH 1333 0
DWIDTH 16 0
BBX 11 15 2 -2
BITMAP
0020
94A0
94A0
94A0
F7A0
94A0
94A0
F7A0
0000
7FE0
0020
0020
0020
0020
0020
ENDCHAR
STARTCHAR char0x3B61
ENCODING 15201
SWIDTH 1333 0
DWIDTH 16 0
BBX 11 14 2 -1
BITMAP
0020
94A0
94A0
94A0
F7A0
94A0
94A0
F7A0
0020
0020
2020
2000
2000
3FE0
ENDCHAR
STARTCHAR char0x3B62
ENCODING 15202
SWIDTH 1333 0
DWIDTH 16 0
BBX 11 14 2 -1
BITMAP
0020
94A0
94A0
F7A0
94A0
94A0
F7A0
0000
3FE0
0020
3FE0
2000
2000
3FE0
ENDCHAR
STARTCHAR char0x3B63
ENCODING 15203
SWIDTH 1333 0
DWIDTH 16 0
BBX 11 14 2 -1
BITMAP
0020
94A0
94A0
F7A0
94A0
94A0
F7A0
0020
0000
3FE0
2020
2020
2020
3FE0
ENDCHAR
STARTCHAR char0x3B64
ENCODING 15204
SWIDTH 1333 0
DWIDTH 16 0
BBX 11 14 2 -1
BITMAP
0020
94A0
94A0
F7A0
94A0
94A0
F7A0
0000
2020
2020
3FE0
2020
2020
3FE0
ENDCHAR
STARTCHAR char0x3B65
ENCODING 15205
SWIDTH 1333 0
DWIDTH 16 0
BBX 13 15 2 -2
BITMAP
0010
9490
9490
9490
F790
9490
9490
F790
0010
0210
0200
0700
0C80
1860
6018
ENDCHAR
STARTCHAR char0x3B66
ENCODING 15206
SWIDTH 1333 0
DWIDTH 16 0
BBX 11 14 2 -1
BITMAP
0020
94A0
94A0
94A0
F7A0
94A0
94A0
F7A0
0020
1F80
6060
4020
6060
1F80
ENDCHAR
STARTCHAR char0x3B67
ENCODING 15207
SWIDTH 1333 0
DWIDTH 16 0
BBX 14 15 1 -2
BITMAP
0020
0820
0820
0820
0820
0820
143C
1420
2220
4120
80A0
0020
0020
0020
0020
ENDCHAR
STARTCHAR char0x3B68
ENCODING 15208
SWIDTH 1333 0
DWIDTH 16 0
BBX 14 15 1 -2
BITMAP
0010
0810
0810
0810
1C1C
1410
6310
C190
0000
3FF0
0010
0010
0010
0010
0010
ENDCHAR
STARTCHAR char0x3B69
ENCODING 15209
SWIDTH 1333 0
DWIDTH 16 0
BBX 14 15 1 -2
BITMAP
0010
0810
0810
0810
1C1C
1410
6310
C190
0000
3C20
0420
0420
0470
0490
0508
ENDCHAR
STARTCHAR char0x3B6A
ENCODING 15210
SWIDTH 1333 0
DWIDTH 16 0
BBX 14 14 1 -1
BITMAP
0010
0810
0810
0810
0810
141C
3610
6310
C190
0010
1010
1000
1000
1FF0
ENDCHAR
STARTCHAR char0x3B6B
ENCODING 15211
SWIDTH 1333 0
DWIDTH 16 0
BBX 14 13 1 -1
BITMAP
0820
0820
0820
1C1C
1420
6320
C180
0000
1FE0
1000
1000
1000
1FE0
ENDCHAR
STARTCHAR char0x3B6C
ENCODING 15212
SWIDTH 1333 0
DWIDTH 16 0
BBX 14 14 1 -1
BITMAP
0010
0810
0810
0810
141C
2210
C190
0000
1FF0
0010
1FF0
1000
1000
1FF0
ENDCHAR
STARTCHAR char0x3B6D
ENCODING 15213
SWIDTH 1333 0
DWIDTH 16 0
BBX 14 14 1 -1
BITMAP
0010
0810
0810
0810
141C
2210
C190
0000
3DF0
0410
3C10
2010
2010
3C10
ENDCHAR
STARTCHAR char0x3B6E
ENCODING 15214
SWIDTH 1333 0
DWIDTH 16 0
BBX 14 14 1 -1
BITMAP
0010
0810
0810
0810
141C
3210
C190
0000
3DF0
0510
3D10
2110
2110
3DF0
ENDCHAR
STARTCHAR char0x3B6F
ENCODING 15215
SWIDTH 1333 0
DWIDTH 16 0
BBX 14 14 1 -1
BITMAP
0010
0810
0810
0810
1C1C
1410
6310
C190
0000
1FF0
1010
1010
1010
1FF0
ENDCHAR
STARTCHAR char0x3B70
ENCODING 15216
SWIDTH 1333 0
DWIDTH 16 0
BBX 14 14 1 -1
BITMAP
0010
0810
0810
0810
1C1C
1410
6310
C190
0000
1010
1010
1FF0
1010
1FF0
ENDCHAR
STARTCHAR char0x3B71
ENCODING 15217
SWIDTH 1333 0
DWIDTH 16 0
BBX 14 15 1 -2
BITMAP
0010
0810
0810
0810
0810
141C
6310
C190
0010
0110
0100
0380
04C0
1860
6018
ENDCHAR
STARTCHAR char0x3B72
ENCODING 15218
SWIDTH 1333 0
DWIDTH 16 0
BBX 14 15 1 -2
BITMAP
0010
0810
0810
0810
181C
2410
6310
8190
0000
0840
0840
0860
14E0
2790
430C
ENDCHAR
STARTCHAR char0x3B73
ENCODING 15219
SWIDTH 1333 0
DWIDTH 16 0
BBX 14 14 1 -1
BITMAP
0010
0810
0810
0810
1C1C
1410
6310
C190
0010
0FC0
3030
2010
3030
0FC0
ENDCHAR
STARTCHAR char0x3B74
ENCODING 15220
SWIDTH 1333 0
DWIDTH 16 0
BBX 14 13 1 -1
BITMAP
0820
0820
0820
1C1C
1420
6320
C180
0000
1FE0
1000
1FE0
1000
1FE0
ENDCHAR
STARTCHAR char0x3B75
ENCODING 15221
SWIDTH 1333 0
DWIDTH 16 0
BBX 13 15 1 -2
BITMAP
0048
0848
0848
0848
0848
0848
1848
1478
2448
4248
8148
0048
0048
0048
0048
ENDCHAR
STARTCHAR char0x3B76
ENCODING 15222
SWIDTH 1333 0
DWIDTH 16 0
BBX 13 15 1 -2
BITMAP
0048
1048
1048
1048
1878
3848
6648
C348
0000
1FF8
0008
0008
0008
0008
0008
ENDCHAR
STARTCHAR char0x3B77
ENCODING 15223
SWIDTH 1333 0
DWIDTH 16 0
BBX 13 14 1 -1
BITMAP
0048
1048
1048
1048
1078
3848
6648
C348
0048
1048
1000
1000
1000
1FF8
ENDCHAR
STARTCHAR char0x3B78
ENCODING 15224
SWIDTH 1333 0
DWIDTH 16 0
BBX 13 14 1 -1
BITMAP
0048
1048
1048
1078
3848
6448
C348
0000
1FF8
0008
1FF8
1000
1000
1FF8
ENDCHAR
STARTCHAR char0x3B79
ENCODING 15225
SWIDTH 1333 0
DWIDTH 16 0
BBX 13 14 1 -1
BITMAP
0048
1048
1048
1048
1878
3848
6648
C348
0000
1FF8
1008
1008
1008
1FF8
ENDCHAR
STARTCHAR char0x3B7A
ENCODING 15226
SWIDTH 1333 0
DWIDTH 16 0
BBX 13 14 1 -1
BITMAP
0048
1048
1048
1078
3848
6448
C348
0000
1008
1008
1FF8
1008
1008
1FF8
ENDCHAR
STARTCHAR char0x3B7B
ENCODING 15227
SWIDTH 1333 0
DWIDTH 16 0
BBX 14 15 1 -2
BITMAP
0048
1048
1048
1048
1078
2848
6448
C248
0048
0108
0100
0380
04C0
0830
300C
ENDCHAR
STARTCHAR char0x3B7C
ENCODING 15228
SWIDTH 1333 0
DWIDTH 16 0
BBX 14 15 1 -2
BITMAP
0048
1048
1048
1048
1878
3848
6648
C348
0000
0820
0820
0C20
1250
3388
6104
ENDCHAR
STARTCHAR char0x3B7D
ENCODING 15229
SWIDTH 1333 0
DWIDTH 16 0
BBX 13 14 1 -1
BITMAP
0048
1048
1048
1048
1878
3848
6648
C348
0000
07E0
1818
1008
1818
07E0
ENDCHAR
STARTCHAR char0x3B7E
ENCODING 15230
SWIDTH 1333 0
DWIDTH 16 0
BBX 14 15 1 -2
BITMAP
0020
0820
0820
0820
083C
0820
1420
1420
2220
413C
80A0
0020
0020
0020
0020
ENDCHAR
STARTCHAR char0x3C21
ENCODING 15393
SWIDTH 1333 0
DWIDTH 16 0
BBX 14 15 1 -2
BITMAP
0010
0810
081C
0810
1C10
141C
6310
C190
0010
0000
3FF0
0010
0010
0010
0010
ENDCHAR
STARTCHAR char0x3C22
ENCODING 15394
SWIDTH 1333 0
DWIDTH 16 0
BBX 14 14 1 -1
BITMAP
0010
0810
0810
081C
0810
1410
231C
C190
0010
1010
1010
1000
1000
1FF0
ENDCHAR
STARTCHAR char0x3C23
ENCODING 15395
SWIDTH 1333 0
DWIDTH 16 0
BBX 14 14 1 -1
BITMAP
0010
0810
081C
0810
1410
221C
C190
0000
1FF0
0010
1FF0
1000
1000
1FF0
ENDCHAR
STARTCHAR char0x3C24
ENCODING 15396
SWIDTH 1333 0
DWIDTH 16 0
BBX 14 14 1 -1
BITMAP
0010
0810
081C
0810
1C10
141C
6310
C190
0000
1FF0
1010
1010
1010
1FF0
ENDCHAR
STARTCHAR char0x3C25
ENCODING 15397
SWIDTH 1333 0
DWIDTH 16 0
BBX 14 14 1 -1
BITMAP
0010
0810
081C
0810
1C10
361C
C190
0000
1010
1010
1FF0
1010
1010
1FF0
ENDCHAR
STARTCHAR char0x3C26
ENCODING 15398
SWIDTH 1333 0
DWIDTH 16 0
BBX 14 15 1 -2
BITMAP
0010
0810
0810
081C
0810
1410
631C
C190
0010
0110
0100
0380
04C0
1860
6018
ENDCHAR
STARTCHAR char0x3C27
ENCODING 15399
SWIDTH 1333 0
DWIDTH 16 0
BBX 14 14 1 -1
BITMAP
0010
0810
081C
0810
1C10
141C
6310
C190
0010
0FC0
3030
2010
3030
0FC0
ENDCHAR
STARTCHAR char0x3C28
ENCODING 15400
SWIDTH 1333 0
DWIDTH 16 0
BBX 13 15 1 -2
BITMAP
0048
0848
0848
0848
0878
0848
1848
1C48
2478
4248
C148
0048
0048
0048
0048
ENDCHAR
STARTCHAR char0x3C29
ENCODING 15401
SWIDTH 1333 0
DWIDTH 16 0
BBX 13 14 1 -1
BITMAP
0048
1048
1048
1078
1048
3848
2878
6648
C148
0048
1000
1000
1000
1FF8
ENDCHAR
STARTCHAR char0x3C2A
ENCODING 15402
SWIDTH 1333 0
DWIDTH 16 0
BBX 13 14 1 -1
BITMAP
0048
1048
1078
1048
3848
6478
C348
0000
1FF8
0008
1FF8
1000
1000
1FF8
ENDCHAR
STARTCHAR char0x3C2B
ENCODING 15403
SWIDTH 1333 0
DWIDTH 16 0
BBX 12 14 1 -1
BITMAP
0090
1090
10F0
1090
1090
28F0
4490
8290
0000
1FF0
1010
1010
1010
1FF0
ENDCHAR
STARTCHAR char0x3C2C
ENCODING 15404
SWIDTH 1333 0
DWIDTH 16 0
BBX 13 14 1 -1
BITMAP
0048
1048
1078
1048
1848
2478
6248
C148
0000
07E0
1818
1008
1818
07E0
ENDCHAR
STARTCHAR char0x3C2D
ENCODING 15405
SWIDTH 1333 0
DWIDTH 16 0
BBX 12 15 1 -2
BITMAP
0010
0810
0810
0810
0810
08F0
1410
1410
2210
6110
C090
0010
0010
0010
0010
ENDCHAR
STARTCHAR char0x3C2E
ENCODING 15406
SWIDTH 1333 0
DWIDTH 16 0
BBX 12 15 1 -2
BITMAP
0010
0810
0810
09F0
1C10
3610
6310
C190
0000
3FF0
0010
0010
0010
0010
0010
ENDCHAR
STARTCHAR char0x3C2F
ENCODING 15407
SWIDTH 1333 0
DWIDTH 16 0
BBX 12 15 1 -2
BITMAP
0010
0810
0810
09F0
1410
3410
6310
C190
0000
3DF0
0410
0410
0410
0410
0410
ENDCHAR
STARTCHAR char0x3C30
ENCODING 15408
SWIDTH 1333 0
DWIDTH 16 0
BBX 13 15 1 -2
BITMAP
0010
0810
0810
09F0
1410
3410
6310
C190
0010
7C40
0440
0440
04E0
0490
0508
ENDCHAR
STARTCHAR char0x3C31
ENCODING 15409
SWIDTH 1333 0
DWIDTH 16 0
BBX 12 14 1 -1
BITMAP
0010
0810
0810
09F0
1410
1410
6310
C190
0010
1010
1000
1000
1000
1FF0
ENDCHAR
STARTCHAR char0x3C32
ENCODING 15410
SWIDTH 1333 0
DWIDTH 16 0
BBX 11 13 1 -1
BITMAP
0820
0820
09E0
1420
3620
6320
C180
0000
1FE0
1000
1000
1000
1FE0
ENDCHAR
STARTCHAR char0x3C33
ENCODING 15411
SWIDTH 1333 0
DWIDTH 16 0
BBX 12 14 1 -1
BITMAP
0010
0810
0810
09F0
1410
6310
C190
0000
1FF0
0010
1FF0
1000
1000
1FF0
ENDCHAR
STARTCHAR char0x3C34
ENCODING 15412
SWIDTH 1333 0
DWIDTH 16 0
BBX 12 14 1 -1
BITMAP
0810
0810
08F0
1C10
1410
6310
C190
0000
3CF0
0490
3C90
2090
2090
3CF0
ENDCHAR
STARTCHAR char0x3C35
ENCODING 15413
SWIDTH 1333 0
DWIDTH 16 0
BBX 12 14 1 -1
BITMAP
0810
0810
0810
1DF0
1610
6310
C190
0000
3C90
0490
3CF0
2090
2090
3CF0
ENDCHAR
STARTCHAR char0x3C36
ENCODING 15414
SWIDTH 1333 0
DWIDTH 16 0
BBX 12 14 1 -1
BITMAP
0010
0810
0810
09F0
1410
1410
6310
C190
0000
1FF0
1010
1010
1010
1FF0
ENDCHAR
STARTCHAR char0x3C37
ENCODING 15415
SWIDTH 1333 0
DWIDTH 16 0
BBX 12 14 1 -1
BITMAP
0010
0810
0810
09F0
1410
2210
C190
0000
1010
1010
1FF0
1010
1010
1FF0
ENDCHAR
STARTCHAR char0x3C38
ENCODING 15416
SWIDTH 1333 0
DWIDTH 16 0
BBX 14 15 1 -2
BITMAP
0008
0808
0808
09F8
0808
1408
2208
6188
C008
0108
0100
0380
04C0
0870
301C
ENDCHAR
STARTCHAR char0x3C39
ENCODING 15417
SWIDTH 1333 0
DWIDTH 16 0
BBX 14 15 1 -2
BITMAP
0010
0810
0810
08F0
1410
1410
6310
C190
0010
0820
0820
0C20
1E50
33C8
618C
ENDCHAR
STARTCHAR char0x3C3A
ENCODING 15418
SWIDTH 1333 0
DWIDTH 16 0
BBX 13 14 1 -1
BITMAP
0008
0808
0808
08F8
1408
1208
6188
C008
07E0
0810
1008
1008
0810
07E0
ENDCHAR
STARTCHAR char0x3C3B
ENCODING 15419
SWIDTH 1333 0
DWIDTH 16 0
BBX 11 13 1 -1
BITMAP
0820
0820
09E0
1820
3420
6220
C180
0000
3FE0
0840
0840
0840
3FE0
ENDCHAR
STARTCHAR char0x3C3C
ENCODING 15420
SWIDTH 1333 0
DWIDTH 16 0
BBX 13 15 1 -2
BITMAP
0048
0848
0848
0848
0848
0BC8
1848
1C48
2448
4248
C148
0048
0048
0048
0048
ENDCHAR
STARTCHAR char0x3C3D
ENCODING 15421
SWIDTH 1333 0
DWIDTH 16 0
BBX 13 15 1 -2
BITMAP
0048
1048
1048
11C8
1848
3448
6348
C048
0000
1FF8
0008
0008
0008
0008
0008
ENDCHAR
STARTCHAR char0x3C3E
ENCODING 15422
SWIDTH 1333 0
DWIDTH 16 0
BBX 13 14 1 -1
BITMAP
0048
1048
1048
11C8
1048
3848
6448
C348
0048
1048
1000
1000
1000
1FF8
ENDCHAR
STARTCHAR char0x3C3F
ENCODING 15423
SWIDTH 1333 0
DWIDTH 16 0
BBX 13 14 1 -1
BITMAP
0048
1048
1048
11C8
3848
6448
C348
0000
1FF8
0008
1FF8
1000
1000
1FF8
ENDCHAR
STARTCHAR char0x3C40
ENCODING 15424
SWIDTH 1333 0
DWIDTH 16 0
BBX 13 14 1 -1
BITMAP
0048
1048
1048
11C8
1848
2848
6448
C348
0048
1FF8
1008
1008
1008
1FF8
ENDCHAR
STARTCHAR char0x3C41
ENCODING 15425
SWIDTH 1333 0
DWIDTH 16 0
BBX 13 14 1 -1
BITMAP
0048
1048
1048
11C8
3848
6448
C348
0000
1008
1008
1FF8
1008
1008
1FF8
ENDCHAR
STARTCHAR char0x3C42
ENCODING 15426
SWIDTH 1333 0
DWIDTH 16 0
BBX 14 15 1 -2
BITMAP
0048
1048
1048
11C8
1048
2848
2848
4448
8248
0008
0100
0100
0280
0C60
301C
ENDCHAR
STARTCHAR char0x3C43
ENCODING 15427
SWIDTH 1333 0
DWIDTH 16 0
BBX 14 15 1 -2
BITMAP
0048
1048
1048
11C8
1848
3848
6648
C348
0048
0820
0820
0C20
1E50
33C8
618C
ENDCHAR
STARTCHAR char0x3C44
ENCODING 15428
SWIDTH 1333 0
DWIDTH 16 0
BBX 13 14 1 -1
BITMAP
0048
1048
1048
11C8
1848
2848
6448
C348
0000
07E0
1818
1008
1818
07E0
ENDCHAR
STARTCHAR char0x3C45
ENCODING 15429
SWIDTH 1333 0
DWIDTH 16 0
BBX 12 15 1 -2
BITMAP
0010
0810
0810
08F0
0810
0810
14F0
1410
2210
4110
8090
0010
0010
0010
0010
ENDCHAR
STARTCHAR char0x3C46
ENCODING 15430
SWIDTH 1333 0
DWIDTH 16 0
BBX 12 15 1 -2
BITMAP
0010
0810
08F0
0810
1CF0
1410
2310
C190
0000
3FF0
0010
0010
0010
0010
0010
ENDCHAR
STARTCHAR char0x3C47
ENCODING 15431
SWIDTH 1333 0
DWIDTH 16 0
BBX 12 14 1 -1
BITMAP
0010
0810
08F0
0810
1C10
14F0
2310
C190
0010
1010
1000
1000
1000
1FF0
ENDCHAR
STARTCHAR char0x3C48
ENCODING 15432
SWIDTH 1333 0
DWIDTH 16 0
BBX 12 14 1 -1
BITMAP
0810
08F0
0810
14F0
1410
6210
C190
0000
1FF0
0010
1FF0
1000
1000
1FF0
ENDCHAR
STARTCHAR char0x3C49
ENCODING 15433
SWIDTH 1333 0
DWIDTH 16 0
BBX 12 14 1 -1
BITMAP
0010
08F0
0810
0810
1CF0
1210
2190
C010
0000
1FF0
1010
1010
1010
1FF0
ENDCHAR
STARTCHAR char0x3C4A
ENCODING 15434
SWIDTH 1333 0
DWIDTH 16 0
BBX 12 14 1 -1
BITMAP
0010
0810
08F0
0810
14F0
2210
C190
0000
1010
1010
1FF0
1010
1010
1FF0
ENDCHAR
STARTCHAR char0x3C4B
ENCODING 15435
SWIDTH 1333 0
DWIDTH 16 0
BBX 14 15 1 -2
BITMAP
0008
0808
08F8
0808
0808
14F8
1408
6308
C188
0008
0100
0100
0380
0C60
301C
ENDCHAR
STARTCHAR char0x3C4C
ENCODING 15436
SWIDTH 1333 0
DWIDTH 16 0
BBX 14 15 1 -2
BITMAP
0010
0810
08F0
0810
1410
14F0
2210
C190
0010
0000
0820
0820
1C50
33D8
618C
ENDCHAR
STARTCHAR char0x3C4D
ENCODING 15437
SWIDTH 1333 0
DWIDTH 16 0
BBX 13 14 1 -1
BITMAP
0008
0808
08F8
0808
14F8
1208
2188
C008
0000
07E0
1818
1008
1818
07E0
ENDCHAR
STARTCHAR char0x3C4E
ENCODING 15438
SWIDTH 1333 0
DWIDTH 16 0
BBX 13 15 1 -2
BITMAP
0048
0848
0848
09C8
0848
0848
19C8
1448
2448
4248
C148
0048
0048
0048
0048
ENDCHAR
STARTCHAR char0x3C4F
ENCODING 15439
SWIDTH 1333 0
DWIDTH 16 0
BBX 13 14 1 -1
BITMAP
0048
1048
11C8
1048
11C8
3848
6648
C348
0048
1008
1000
1000
1000
1FF8
ENDCHAR
STARTCHAR char0x3C50
ENCODING 15440
SWIDTH 1333 0
DWIDTH 16 0
BBX 13 14 1 -1
BITMAP
0048
1048
11C8
1048
39C8
6448
C348
0000
1FF8
0008
1FF8
1000
1000
1FF8
ENDCHAR
STARTCHAR char0x3C51
ENCODING 15441
SWIDTH 1333 0
DWIDTH 16 0
BBX 13 14 1 -1
BITMAP
0048
1048
11C8
1048
19C8
3448
6348
C048
0000
07E0
1818
1008
1818
07E0
ENDCHAR
STARTCHAR char0x3C52
ENCODING 15442
SWIDTH 1333 0
DWIDTH 16 0
BBX 14 11 1 1
BITMAP
0200
0200
0300
0500
0C80
1060
6218
0200
0200
0200
FFFC
ENDCHAR
STARTCHAR char0x3C53
ENCODING 15443
SWIDTH 1333 0
DWIDTH 16 0
BBX 14 15 1 -2
BITMAP
0200
0200
0700
18C0
7038
0200
0200
FFFC
0000
0000
3FF0
0010
0010
0010
0010
ENDCHAR
STARTCHAR char0x3C54
ENCODING 15444
SWIDTH 1333 0
DWIDTH 16 0
BBX 14 15 1 -2
BITMAP
0200
0200
0700
1CC0
7038
0200
0200
FFFC
0000
0000
3FF0
0210
0210
0210
0210
ENDCHAR
ENDFONT
